M48
; DRILL file {KiCad (6.0.2)} date Thu Jun  2 21:34:59 2022
; FORMAT={-:-/ absolute / inch / decimal}
; #@! TF.CreationDate,2022-06-02T21:34:59-05:00
; #@! TF.GenerationSoftware,Kicad,Pcbnew,(6.0.2)
; #@! TF.FileFunction,Plated,1,2,PTH
FMAT,2
INCH
; #@! TA.AperFunction,Plated,PTH,ViaDrill
T1C0.0157
; #@! TA.AperFunction,Plated,PTH,ComponentDrill
T2C0.0236
; #@! TA.AperFunction,Plated,PTH,ViaDrill
T3C0.0315
; #@! TA.AperFunction,Plated,PTH,ComponentDrill
T4C0.0315
; #@! TA.AperFunction,Plated,PTH,ComponentDrill
T5C0.0394
; #@! TA.AperFunction,Plated,PTH,ComponentDrill
T6C0.0591
; #@! TA.AperFunction,Plated,PTH,ComponentDrill
T7C0.0984
%
G90
G05
T1
X3.175Y-4.775
X3.71Y-4.77
X3.89Y-4.77
X4.03Y-5.54
X4.04Y-6.275
X4.25Y-6.9
X4.32Y-5.54
X4.325Y-6.275
X4.74Y-6.77
X6.1Y-6.375
X6.175Y-7.025
X6.305Y-7.28
X6.31Y-4.94
X6.34Y-7.315
X6.375Y-7.35
X6.39Y-5.65
X6.59Y-7.41
X6.62Y-7.13
X6.62Y-7.17
X6.625Y-7.55
X6.7Y-7.375
X6.74Y-7.55
X6.74Y-7.6
X6.74Y-7.65
X6.74Y-7.7
X6.85Y-7.1
X6.86Y-7.17
X6.8698Y-7.5552
X6.975Y-7.1
X7.023Y-7.098
X7.03Y-7.64
X7.07Y-7.6
X7.11Y-7.56
X7.15Y-7.42
X7.15Y-7.52
X8.3Y-7.093
X8.35Y-7.1215
X8.4Y-7.15
X8.828Y-7.74
T3
X3.8Y-4.21
X5.95Y-7.26
X5.95Y-7.39
X7.575Y-7.4
X7.575Y-7.525
T4
X3.43Y-4.85
X3.73Y-4.85
X3.87Y-4.85
X4.17Y-4.85
X5.71Y-7.5339
X5.71Y-7.7261
T5
X8.71Y-7.26
X8.71Y-7.36
X8.71Y-7.46
X8.81Y-7.26
X8.81Y-7.36
X8.81Y-7.46
T6
X3.242Y-4.375
X3.3378Y-7.375
X3.43Y-5.125
X3.492Y-4.275
X3.5224Y-5.875
X3.5878Y-7.275
X3.68Y-5.025
X3.7106Y-6.6246
X3.7724Y-5.775
X3.9606Y-6.5246
X3.992Y-4.375
X4.242Y-4.275
X4.275Y-7.375
X4.367Y-5.125
X4.525Y-7.275
X4.554Y-5.875
X4.617Y-5.025
X4.742Y-4.375
X4.804Y-5.775
X4.93Y-6.625
X4.992Y-4.275
X5.117Y-5.125
X5.18Y-6.525
X5.2121Y-7.375
X5.304Y-5.875
X5.367Y-5.025
X5.4621Y-7.275
X5.492Y-4.375
X5.554Y-5.775
X5.68Y-6.625
X5.742Y-4.275
X5.867Y-5.125
X5.93Y-6.525
X6.054Y-5.875
X6.117Y-5.025
X6.242Y-4.375
X6.304Y-5.775
X6.43Y-6.625
X6.492Y-4.275
X6.617Y-5.125
X6.68Y-6.525
X6.804Y-5.875
X6.867Y-5.025
X6.992Y-4.375
X7.054Y-5.775
X7.18Y-6.625
X7.242Y-4.275
X7.367Y-5.125
X7.43Y-6.525
X7.554Y-5.875
X7.617Y-5.025
X7.742Y-4.375
X7.804Y-5.775
X7.93Y-6.625
X7.992Y-4.275
X8.0241Y-7.3746
X8.117Y-5.125
X8.18Y-6.525
X8.2741Y-7.2746
X8.304Y-5.875
X8.367Y-5.025
X8.492Y-4.375
X8.554Y-5.775
X8.68Y-6.625
X8.742Y-4.275
X8.867Y-5.125
X8.93Y-6.525
X9.054Y-5.875
X9.117Y-5.025
X9.242Y-4.375
X9.304Y-5.775
X9.43Y-6.625
X9.492Y-4.275
X9.617Y-5.125
X9.68Y-6.525
X9.804Y-5.875
X9.867Y-5.025
X9.992Y-4.375
X10.054Y-5.775
X10.18Y-6.625
X10.242Y-4.275
X10.367Y-5.125
X10.43Y-6.525
X10.554Y-5.875
X10.617Y-5.025
X10.742Y-4.375
X10.742Y-7.375
X10.804Y-5.775
X10.93Y-6.625
X10.992Y-4.275
X10.992Y-7.275
X11.117Y-5.125
X11.18Y-6.525
X11.304Y-5.875
X11.367Y-5.025
X11.492Y-4.375
X11.492Y-7.375
X11.554Y-5.775
X11.68Y-6.625
X11.742Y-4.275
X11.742Y-7.275
X11.867Y-5.125
X11.93Y-6.525
X12.054Y-5.875
X12.117Y-5.025
X12.242Y-4.375
X12.242Y-7.375
X12.304Y-5.775
X12.492Y-4.275
X12.492Y-7.275
X12.617Y-5.125
X12.711Y-6.625
X12.867Y-5.025
X12.961Y-6.525
X12.992Y-7.375
X13.242Y-7.275
X13.2725Y-5.875
X13.367Y-4.375
X13.5225Y-5.775
X13.554Y-5.125
X13.617Y-4.275
X13.742Y-6.625
X13.742Y-7.375
X13.804Y-5.025
X13.992Y-6.525
X13.992Y-7.275
X14.492Y-4.375
X14.492Y-5.125
X14.492Y-5.875
X14.492Y-6.625
X14.492Y-7.375
X14.742Y-4.275
X14.742Y-5.025
X14.742Y-5.775
X14.742Y-6.525
X14.742Y-7.275
T2
G00X3.5787Y-4.0839
M15
G01X3.5787Y-4.1312
M16
G05
G00X3.5787Y-4.2493
M15
G01X3.5787Y-4.2808
M16
G05
G00X4.0213Y-4.0839
M15
G01X4.0213Y-4.1312
M16
G05
G00X4.0213Y-4.2493
M15
G01X4.0213Y-4.2808
M16
G05
T7
G00X3.9508Y-5.22
M15
G01X4.0492Y-5.22
M16
G05
G00X3.9508Y-7.47
M15
G01X4.0492Y-7.47
M16
G05
G00X8.0308Y-5.97
M15
G01X8.1292Y-5.97
M16
G05
G00X10.3708Y-7.47
M15
G01X10.4692Y-7.47
M16
G05
G00X13.2208Y-5.22
M15
G01X13.3192Y-5.22
M16
G05
G00X13.4708Y-7.47
M15
G01X13.5692Y-7.47
M16
G05
T0
M30
