M48
; DRILL file {KiCad (6.0.2)} date Thu Jun  2 21:34:59 2022
; FORMAT={-:-/ absolute / inch / decimal}
; #@! TF.CreationDate,2022-06-02T21:34:59-05:00
; #@! TF.GenerationSoftware,Kicad,Pcbnew,(6.0.2)
; #@! TF.FileFunction,NonPlated,1,2,NPTH
FMAT,2
INCH
; #@! TA.AperFunction,NonPlated,NPTH,ComponentDrill
T1C0.0669
; #@! TA.AperFunction,NonPlated,NPTH,ComponentDrill
T2C0.1201
; #@! TA.AperFunction,NonPlated,NPTH,ComponentDrill
T3C0.1575
%
G90
G05
T1
X3.192Y-4.475
X3.2878Y-7.475
X3.38Y-5.225
X3.4724Y-5.975
X3.592Y-4.475
X3.6606Y-6.7246
X3.6878Y-7.475
X3.78Y-5.225
X3.8724Y-5.975
X3.942Y-4.475
X4.0606Y-6.7246
X4.225Y-7.475
X4.317Y-5.225
X4.342Y-4.475
X4.504Y-5.975
X4.625Y-7.475
X4.692Y-4.475
X4.717Y-5.225
X4.88Y-6.725
X4.904Y-5.975
X5.067Y-5.225
X5.092Y-4.475
X5.1621Y-7.475
X5.254Y-5.975
X5.28Y-6.725
X5.442Y-4.475
X5.467Y-5.225
X5.5621Y-7.475
X5.63Y-6.725
X5.654Y-5.975
X5.817Y-5.225
X5.842Y-4.475
X6.004Y-5.975
X6.03Y-6.725
X6.192Y-4.475
X6.217Y-5.225
X6.38Y-6.725
X6.404Y-5.975
X6.567Y-5.225
X6.592Y-4.475
X6.754Y-5.975
X6.78Y-6.725
X6.942Y-4.475
X6.967Y-5.225
X7.13Y-6.725
X7.154Y-5.975
X7.317Y-5.225
X7.342Y-4.475
X7.504Y-5.975
X7.53Y-6.725
X7.692Y-4.475
X7.717Y-5.225
X7.88Y-6.725
X7.904Y-5.975
X7.9741Y-7.4746
X8.067Y-5.225
X8.092Y-4.475
X8.254Y-5.975
X8.28Y-6.725
X8.3741Y-7.4746
X8.442Y-4.475
X8.467Y-5.225
X8.63Y-6.725
X8.654Y-5.975
X8.817Y-5.225
X8.842Y-4.475
X9.004Y-5.975
X9.03Y-6.725
X9.192Y-4.475
X9.217Y-5.225
X9.38Y-6.725
X9.404Y-5.975
X9.567Y-5.225
X9.592Y-4.475
X9.754Y-5.975
X9.78Y-6.725
X9.942Y-4.475
X9.967Y-5.225
X10.13Y-6.725
X10.154Y-5.975
X10.317Y-5.225
X10.342Y-4.475
X10.504Y-5.975
X10.53Y-6.725
X10.692Y-4.475
X10.692Y-7.475
X10.717Y-5.225
X10.88Y-6.725
X10.904Y-5.975
X11.067Y-5.225
X11.092Y-4.475
X11.092Y-7.475
X11.254Y-5.975
X11.28Y-6.725
X11.442Y-4.475
X11.442Y-7.475
X11.467Y-5.225
X11.63Y-6.725
X11.654Y-5.975
X11.817Y-5.225
X11.842Y-4.475
X11.842Y-7.475
X12.004Y-5.975
X12.03Y-6.725
X12.192Y-4.475
X12.192Y-7.475
X12.217Y-5.225
X12.404Y-5.975
X12.567Y-5.225
X12.592Y-4.475
X12.592Y-7.475
X12.661Y-6.725
X12.942Y-7.475
X12.967Y-5.225
X13.061Y-6.725
X13.2225Y-5.975
X13.317Y-4.475
X13.342Y-7.475
X13.504Y-5.225
X13.6225Y-5.975
X13.692Y-6.725
X13.692Y-7.475
X13.717Y-4.475
X13.904Y-5.225
X14.092Y-6.725
X14.092Y-7.475
X14.442Y-4.475
X14.442Y-5.225
X14.442Y-5.975
X14.442Y-6.725
X14.442Y-7.475
X14.842Y-4.475
X14.842Y-5.225
X14.842Y-5.975
X14.842Y-6.725
X14.842Y-7.475
T2
X3.3921Y-6.449
X4.3291Y-6.449
X6.2056Y-7.199
X10.1426Y-7.199
X12.954Y-5.6994
X13.0485Y-4.1994
X13.891Y-5.6994
X13.9855Y-4.1994
T3
X3.392Y-4.475
X3.3921Y-7.049
X3.4878Y-7.475
X3.58Y-5.225
X3.6724Y-5.975
X3.8606Y-6.7246
X4.142Y-4.475
X4.3291Y-7.049
X4.425Y-7.475
X4.517Y-5.225
X4.704Y-5.975
X4.892Y-4.475
X5.08Y-6.725
X5.267Y-5.225
X5.3621Y-7.475
X5.454Y-5.975
X5.642Y-4.475
X5.83Y-6.725
X6.017Y-5.225
X6.204Y-5.975
X6.2056Y-7.799
X6.392Y-4.475
X6.58Y-6.725
X6.767Y-5.225
X6.954Y-5.975
X7.142Y-4.475
X7.33Y-6.725
X7.517Y-5.225
X7.704Y-5.975
X7.892Y-4.475
X8.08Y-6.725
X8.1741Y-7.4746
X8.267Y-5.225
X8.454Y-5.975
X8.642Y-4.475
X8.83Y-6.725
X9.017Y-5.225
X9.204Y-5.975
X9.392Y-4.475
X9.58Y-6.725
X9.767Y-5.225
X9.954Y-5.975
X10.142Y-4.475
X10.1426Y-7.799
X10.33Y-6.725
X10.517Y-5.225
X10.704Y-5.975
X10.892Y-4.475
X10.892Y-7.475
X11.08Y-6.725
X11.267Y-5.225
X11.454Y-5.975
X11.642Y-4.475
X11.642Y-7.475
X11.83Y-6.725
X12.017Y-5.225
X12.204Y-5.975
X12.392Y-4.475
X12.392Y-7.475
X12.767Y-5.225
X12.861Y-6.725
X12.954Y-6.2994
X13.0485Y-4.7994
X13.142Y-7.475
X13.4225Y-5.975
X13.517Y-4.475
X13.704Y-5.225
X13.891Y-6.2994
X13.892Y-6.725
X13.892Y-7.475
X13.9855Y-4.7994
X14.642Y-4.475
X14.642Y-5.225
X14.642Y-5.975
X14.642Y-6.725
X14.642Y-7.475
T0
M30
