%TF.GenerationSoftware,KiCad,Pcbnew,(6.0.2)*%
%TF.CreationDate,2022-06-02T21:34:10-05:00*%
%TF.ProjectId,65Percent,36355065-7263-4656-9e74-2e6b69636164,rev?*%
%TF.SameCoordinates,Original*%
%TF.FileFunction,Soldermask,Top*%
%TF.FilePolarity,Negative*%
%FSLAX46Y46*%
G04 Gerber Fmt 4.6, Leading zero omitted, Abs format (unit mm)*
G04 Created by KiCad (PCBNEW (6.0.2)) date 2022-06-02 21:34:10*
%MOMM*%
%LPD*%
G01*
G04 APERTURE LIST*
G04 Aperture macros list*
%AMRoundRect*
0 Rectangle with rounded corners*
0 $1 Rounding radius*
0 $2 $3 $4 $5 $6 $7 $8 $9 X,Y pos of 4 corners*
0 Add a 4 corners polygon primitive as box body*
4,1,4,$2,$3,$4,$5,$6,$7,$8,$9,$2,$3,0*
0 Add four circle primitives for the rounded corners*
1,1,$1+$1,$2,$3*
1,1,$1+$1,$4,$5*
1,1,$1+$1,$6,$7*
1,1,$1+$1,$8,$9*
0 Add four rect primitives between the rounded corners*
20,1,$1+$1,$2,$3,$4,$5,0*
20,1,$1+$1,$4,$5,$6,$7,0*
20,1,$1+$1,$6,$7,$8,$9,0*
20,1,$1+$1,$8,$9,$2,$3,0*%
G04 Aperture macros list end*
%ADD10C,4.000000*%
%ADD11C,1.700000*%
%ADD12C,2.200000*%
%ADD13R,0.600000X1.200000*%
%ADD14C,5.200000*%
%ADD15C,3.050000*%
%ADD16RoundRect,0.250000X0.325000X0.450000X-0.325000X0.450000X-0.325000X-0.450000X0.325000X-0.450000X0*%
%ADD17R,1.600000X1.600000*%
%ADD18O,1.600000X1.600000*%
%ADD19R,1.700000X1.700000*%
%ADD20O,1.700000X1.700000*%
%ADD21RoundRect,0.250000X-0.337500X-0.475000X0.337500X-0.475000X0.337500X0.475000X-0.337500X0.475000X0*%
%ADD22O,1.000000X2.200000*%
%ADD23O,1.000000X1.800000*%
%ADD24C,1.400000*%
G04 APERTURE END LIST*
D10*
%TO.C,K22*%
X171881800Y-132715000D03*
D11*
X176961800Y-132715000D03*
X166801800Y-132715000D03*
D12*
X174421800Y-127635000D03*
X168071800Y-130175000D03*
%TD*%
D11*
%TO.C,K8*%
X129336800Y-113665000D03*
D10*
X124256800Y-113665000D03*
D11*
X119176800Y-113665000D03*
D12*
X126796800Y-108585000D03*
X120446800Y-111125000D03*
%TD*%
D10*
%TO.C,K37*%
X243332000Y-170815000D03*
D11*
X248412000Y-170815000D03*
X238252000Y-170815000D03*
D12*
X245872000Y-165735000D03*
X239522000Y-168275000D03*
%TD*%
D11*
%TO.C,K20*%
X172212000Y-170815000D03*
X162052000Y-170815000D03*
D10*
X167132000Y-170815000D03*
D12*
X169672000Y-165735000D03*
X163322000Y-168275000D03*
%TD*%
D10*
%TO.C,K53*%
X305231800Y-132715000D03*
D11*
X310311800Y-132715000D03*
X300151800Y-132715000D03*
D12*
X307771800Y-127635000D03*
X301421800Y-130175000D03*
%TD*%
D13*
%TO.C,JP1*%
X222358000Y-196596000D03*
X223158000Y-196596000D03*
%TD*%
D11*
%TO.C,K45*%
X276352000Y-170815000D03*
D10*
X281432000Y-170815000D03*
D11*
X286512000Y-170815000D03*
D12*
X283972000Y-165735000D03*
X277622000Y-168275000D03*
%TD*%
D11*
%TO.C,K27*%
X190601600Y-151765000D03*
X200761600Y-151765000D03*
D10*
X195681600Y-151765000D03*
D12*
X198221600Y-146685000D03*
X191871600Y-149225000D03*
%TD*%
D10*
%TO.C,K39*%
X248081800Y-132715000D03*
D11*
X253161800Y-132715000D03*
X243001800Y-132715000D03*
D12*
X250621800Y-127635000D03*
X244271800Y-130175000D03*
%TD*%
D10*
%TO.C,K25*%
X200456800Y-113665000D03*
D11*
X205536800Y-113665000D03*
X195376800Y-113665000D03*
D12*
X202996800Y-108585000D03*
X196646800Y-111125000D03*
%TD*%
D11*
%TO.C,K42*%
X281736800Y-113665000D03*
X271576800Y-113665000D03*
D10*
X276656800Y-113665000D03*
D12*
X279196800Y-108585000D03*
X272846800Y-111125000D03*
%TD*%
D14*
%TO.C,REF\u002A\u002A*%
X343408000Y-189738000D03*
%TD*%
D11*
%TO.C,K43*%
X262051800Y-132715000D03*
D10*
X267131800Y-132715000D03*
D11*
X272211800Y-132715000D03*
D12*
X269671800Y-127635000D03*
X263321800Y-130175000D03*
%TD*%
D11*
%TO.C,K38*%
X252526800Y-113665000D03*
D10*
X257606800Y-113665000D03*
D11*
X262686800Y-113665000D03*
D12*
X260146800Y-108585000D03*
X253796800Y-111125000D03*
%TD*%
D11*
%TO.C,K11*%
X123952000Y-170815000D03*
D10*
X129032000Y-170815000D03*
D11*
X134112000Y-170815000D03*
D12*
X131572000Y-165735000D03*
X125222000Y-168275000D03*
%TD*%
D10*
%TO.C,K60*%
X355231800Y-121905000D03*
D11*
X338251800Y-113665000D03*
D15*
X355231800Y-106665000D03*
D10*
X331431800Y-121905000D03*
X343331800Y-113665000D03*
D15*
X331431800Y-106665000D03*
D11*
X348411800Y-113665000D03*
D12*
X345871800Y-108585000D03*
X339521800Y-111125000D03*
%TD*%
D10*
%TO.C,K34*%
X238556800Y-113665000D03*
D11*
X233476800Y-113665000D03*
X243636800Y-113665000D03*
D12*
X241096800Y-108585000D03*
X234746800Y-111125000D03*
%TD*%
D11*
%TO.C,K59*%
X328726800Y-189865000D03*
X338886800Y-189865000D03*
D10*
X333806800Y-189865000D03*
D12*
X336346800Y-184785000D03*
X329996800Y-187325000D03*
%TD*%
D11*
%TO.C,K7*%
X107314300Y-189865000D03*
D10*
X112394300Y-189865000D03*
D11*
X117474300Y-189865000D03*
D12*
X114934300Y-184785000D03*
X108584300Y-187325000D03*
%TD*%
D16*
%TO.C,F1*%
X96529000Y-104902000D03*
X94479000Y-104902000D03*
%TD*%
D11*
%TO.C,K47*%
X300786800Y-113665000D03*
X290626800Y-113665000D03*
D10*
X295706800Y-113665000D03*
D12*
X298246800Y-108585000D03*
X291896800Y-111125000D03*
%TD*%
D10*
%TO.C,K54*%
X309981600Y-151765000D03*
D11*
X304901600Y-151765000D03*
X315061600Y-151765000D03*
D12*
X312521600Y-146685000D03*
X306171600Y-149225000D03*
%TD*%
D15*
%TO.C,K4*%
X109959300Y-163804600D03*
D10*
X98059300Y-170804600D03*
X86159300Y-179044600D03*
D11*
X92979300Y-170804600D03*
D15*
X86159300Y-163804600D03*
D11*
X103139300Y-170804600D03*
D10*
X109959300Y-179044600D03*
D12*
X100599300Y-165724600D03*
X94249300Y-168264600D03*
%TD*%
D10*
%TO.C,K57*%
X329031600Y-160005000D03*
D15*
X352831600Y-144765000D03*
D10*
X352831600Y-160005000D03*
X340931600Y-151765000D03*
D15*
X329031600Y-144765000D03*
D11*
X346011600Y-151765000D03*
X335851600Y-151765000D03*
D12*
X343471600Y-146685000D03*
X337121600Y-149225000D03*
%TD*%
D11*
%TO.C,K46*%
X281736800Y-189865000D03*
X271576800Y-189865000D03*
D10*
X276656800Y-189865000D03*
D12*
X279196800Y-184785000D03*
X272846800Y-187325000D03*
%TD*%
D11*
%TO.C,K65*%
X366826800Y-132715000D03*
D10*
X371906800Y-132715000D03*
D11*
X376986800Y-132715000D03*
D12*
X374446800Y-127635000D03*
X368096800Y-130175000D03*
%TD*%
D11*
%TO.C,K30*%
X214426800Y-113665000D03*
X224586800Y-113665000D03*
D10*
X219506800Y-113665000D03*
D12*
X222046800Y-108585000D03*
X215696800Y-111125000D03*
%TD*%
D11*
%TO.C,K44*%
X266801600Y-151765000D03*
D10*
X271881600Y-151765000D03*
D11*
X276961600Y-151765000D03*
D12*
X274421600Y-146685000D03*
X268071600Y-149225000D03*
%TD*%
D11*
%TO.C,K19*%
X162661600Y-151765000D03*
D10*
X157581600Y-151765000D03*
D11*
X152501600Y-151765000D03*
D12*
X160121600Y-146685000D03*
X153771600Y-149225000D03*
%TD*%
D11*
%TO.C,K61*%
X343001600Y-132715000D03*
X353161600Y-132715000D03*
D10*
X348081600Y-132715000D03*
D12*
X350621600Y-127635000D03*
X344271600Y-130175000D03*
%TD*%
D10*
%TO.C,K64*%
X371906800Y-113665000D03*
D11*
X376986800Y-113665000D03*
X366826800Y-113665000D03*
D12*
X374446800Y-108585000D03*
X368096800Y-111125000D03*
%TD*%
D14*
%TO.C,REF\u002A\u002A*%
X337058000Y-132588000D03*
%TD*%
D10*
%TO.C,K67*%
X371906800Y-170815000D03*
D11*
X376986800Y-170815000D03*
X366826800Y-170815000D03*
D12*
X374446800Y-165735000D03*
X368096800Y-168275000D03*
%TD*%
D11*
%TO.C,K50*%
X305562000Y-170815000D03*
D10*
X300482000Y-170815000D03*
D11*
X295402000Y-170815000D03*
D12*
X303022000Y-165735000D03*
X296672000Y-168275000D03*
%TD*%
D11*
%TO.C,K16*%
X131118050Y-189865000D03*
X141278050Y-189865000D03*
D10*
X136198050Y-189865000D03*
D12*
X138738050Y-184785000D03*
X132388050Y-187325000D03*
%TD*%
D14*
%TO.C,REF\u002A\u002A*%
X264668000Y-189738000D03*
%TD*%
D17*
%TO.C,D1*%
X94742000Y-123190000D03*
D18*
X87122000Y-123190000D03*
%TD*%
D10*
%TO.C,K3*%
X93278050Y-151765000D03*
D11*
X98358050Y-151765000D03*
X88198050Y-151765000D03*
D12*
X95818050Y-146685000D03*
X89468050Y-149225000D03*
%TD*%
D11*
%TO.C,K41*%
X267462000Y-170815000D03*
X257302000Y-170815000D03*
D10*
X262382000Y-170815000D03*
D12*
X264922000Y-165735000D03*
X258572000Y-168275000D03*
%TD*%
D11*
%TO.C,K55*%
X319836800Y-189865000D03*
X309676800Y-189865000D03*
D10*
X314756800Y-189865000D03*
D12*
X317296800Y-184785000D03*
X310946800Y-187325000D03*
%TD*%
D11*
%TO.C,K13*%
X138861800Y-132715000D03*
D10*
X133781800Y-132715000D03*
D11*
X128701800Y-132715000D03*
D12*
X136321800Y-127635000D03*
X129971800Y-130175000D03*
%TD*%
D11*
%TO.C,K15*%
X153162000Y-170815000D03*
X143002000Y-170815000D03*
D10*
X148082000Y-170815000D03*
D12*
X150622000Y-165735000D03*
X144272000Y-168275000D03*
%TD*%
D10*
%TO.C,K40*%
X252831600Y-151765000D03*
D11*
X257911600Y-151765000D03*
X247751600Y-151765000D03*
D12*
X255371600Y-146685000D03*
X249021600Y-149225000D03*
%TD*%
D10*
%TO.C,K18*%
X152831800Y-132715000D03*
D11*
X147751800Y-132715000D03*
X157911800Y-132715000D03*
D12*
X155371800Y-127635000D03*
X149021800Y-130175000D03*
%TD*%
D11*
%TO.C,K2*%
X85852000Y-132715000D03*
X96012000Y-132715000D03*
D10*
X90932000Y-132715000D03*
D12*
X93472000Y-127635000D03*
X87122000Y-130175000D03*
%TD*%
D11*
%TO.C,K35*%
X234111800Y-132715000D03*
X223951800Y-132715000D03*
D10*
X229031800Y-132715000D03*
D12*
X231571800Y-127635000D03*
X225221800Y-130175000D03*
%TD*%
D11*
%TO.C,K17*%
X157276800Y-113665000D03*
D10*
X162356800Y-113665000D03*
D11*
X167436800Y-113665000D03*
D12*
X164896800Y-108585000D03*
X158546800Y-111125000D03*
%TD*%
D11*
%TO.C,K52*%
X309676800Y-113665000D03*
X319836800Y-113665000D03*
D10*
X314756800Y-113665000D03*
D12*
X317296800Y-108585000D03*
X310946800Y-111125000D03*
%TD*%
D10*
%TO.C,K1*%
X86156800Y-113665000D03*
D11*
X91236800Y-113665000D03*
X81076800Y-113665000D03*
D12*
X88696800Y-108585000D03*
X82346800Y-111125000D03*
%TD*%
D11*
%TO.C,K23*%
X171551600Y-151765000D03*
D10*
X176631600Y-151765000D03*
D11*
X181711600Y-151765000D03*
D12*
X179171600Y-146685000D03*
X172821600Y-149225000D03*
%TD*%
D11*
%TO.C,K12*%
X138226800Y-113665000D03*
X148386800Y-113665000D03*
D10*
X143306800Y-113665000D03*
D12*
X145846800Y-108585000D03*
X139496800Y-111125000D03*
%TD*%
D19*
%TO.C,J1*%
X221234000Y-184404000D03*
D20*
X223774000Y-184404000D03*
X221234000Y-186944000D03*
X223774000Y-186944000D03*
X221234000Y-189484000D03*
X223774000Y-189484000D03*
%TD*%
D10*
%TO.C,K29*%
X257621800Y-198094600D03*
D11*
X202541800Y-189854600D03*
D15*
X157621800Y-182854600D03*
D11*
X212701800Y-189854600D03*
D10*
X157621800Y-198094600D03*
D15*
X257621800Y-182854600D03*
D10*
X207621800Y-189854600D03*
D12*
X210161800Y-184774600D03*
X203811800Y-187314600D03*
%TD*%
D14*
%TO.C,REF\u002A\u002A*%
X101600000Y-189738000D03*
%TD*%
D11*
%TO.C,K66*%
X366826800Y-151765000D03*
D10*
X371906800Y-151765000D03*
D11*
X376986800Y-151765000D03*
D12*
X374446800Y-146685000D03*
X368096800Y-149225000D03*
%TD*%
D10*
%TO.C,K56*%
X324281800Y-132715000D03*
D11*
X319201800Y-132715000D03*
X329361800Y-132715000D03*
D12*
X326821800Y-127635000D03*
X320471800Y-130175000D03*
%TD*%
D21*
%TO.C,C5*%
X188192500Y-187960000D03*
X190267500Y-187960000D03*
%TD*%
D10*
%TO.C,K24*%
X186182000Y-170815000D03*
D11*
X181102000Y-170815000D03*
X191262000Y-170815000D03*
D12*
X188722000Y-165735000D03*
X182372000Y-168275000D03*
%TD*%
D11*
%TO.C,K48*%
X291261800Y-132715000D03*
D10*
X286181800Y-132715000D03*
D11*
X281101800Y-132715000D03*
D12*
X288721800Y-127635000D03*
X282371800Y-130175000D03*
%TD*%
D10*
%TO.C,K49*%
X290931600Y-151765000D03*
D11*
X285851600Y-151765000D03*
X296011600Y-151765000D03*
D12*
X293471600Y-146685000D03*
X287121600Y-149225000D03*
%TD*%
D14*
%TO.C,REF\u002A\u002A*%
X205232000Y-151638000D03*
%TD*%
%TO.C,REF\u002A\u002A*%
X101600000Y-132588000D03*
%TD*%
D10*
%TO.C,K10*%
X119481600Y-151765000D03*
D11*
X114401600Y-151765000D03*
X124561600Y-151765000D03*
D12*
X122021600Y-146685000D03*
X115671600Y-149225000D03*
%TD*%
D11*
%TO.C,K58*%
X331749400Y-170815000D03*
D10*
X326669400Y-170815000D03*
D11*
X321589400Y-170815000D03*
D12*
X329209400Y-165735000D03*
X322859400Y-168275000D03*
%TD*%
D11*
%TO.C,K33*%
X229362000Y-170815000D03*
X219202000Y-170815000D03*
D10*
X224282000Y-170815000D03*
D12*
X226822000Y-165735000D03*
X220472000Y-168275000D03*
%TD*%
D11*
%TO.C,K21*%
X176326800Y-113665000D03*
D10*
X181406800Y-113665000D03*
D11*
X186486800Y-113665000D03*
D12*
X183946800Y-108585000D03*
X177596800Y-111125000D03*
%TD*%
D11*
%TO.C,K62*%
X347776800Y-170815000D03*
X357936800Y-170815000D03*
D10*
X352856800Y-170815000D03*
D12*
X355396800Y-165735000D03*
X349046800Y-168275000D03*
%TD*%
D17*
%TO.C,D2*%
X98298000Y-123190000D03*
D18*
X105918000Y-123190000D03*
%TD*%
D10*
%TO.C,K63*%
X352856800Y-189865000D03*
D11*
X347776800Y-189865000D03*
X357936800Y-189865000D03*
D12*
X355396800Y-184785000D03*
X349046800Y-187325000D03*
%TD*%
D10*
%TO.C,K36*%
X233781600Y-151765000D03*
D11*
X228701600Y-151765000D03*
X238861600Y-151765000D03*
D12*
X236321600Y-146685000D03*
X229971600Y-149225000D03*
%TD*%
D11*
%TO.C,K28*%
X210312000Y-170815000D03*
D10*
X205232000Y-170815000D03*
D11*
X200152000Y-170815000D03*
D12*
X207772000Y-165735000D03*
X201422000Y-168275000D03*
%TD*%
D10*
%TO.C,K32*%
X214731600Y-151765000D03*
D11*
X209651600Y-151765000D03*
X219811600Y-151765000D03*
D12*
X217271600Y-146685000D03*
X210921600Y-149225000D03*
%TD*%
D11*
%TO.C,K5*%
X83510550Y-189865000D03*
X93670550Y-189865000D03*
D10*
X88590550Y-189865000D03*
D12*
X91130550Y-184785000D03*
X84780550Y-187325000D03*
%TD*%
D11*
%TO.C,K31*%
X215061800Y-132715000D03*
X204901800Y-132715000D03*
D10*
X209981800Y-132715000D03*
D12*
X212521800Y-127635000D03*
X206171800Y-130175000D03*
%TD*%
D11*
%TO.C,K6*%
X110286800Y-113665000D03*
X100126800Y-113665000D03*
D10*
X105206800Y-113665000D03*
D12*
X107746800Y-108585000D03*
X101396800Y-111125000D03*
%TD*%
D11*
%TO.C,K14*%
X133451600Y-151765000D03*
D10*
X138531600Y-151765000D03*
D11*
X143611600Y-151765000D03*
D12*
X141071600Y-146685000D03*
X134721600Y-149225000D03*
%TD*%
D11*
%TO.C,K26*%
X196011800Y-132715000D03*
D10*
X190931800Y-132715000D03*
D11*
X185851800Y-132715000D03*
D12*
X193471800Y-127635000D03*
X187121800Y-130175000D03*
%TD*%
D10*
%TO.C,K68*%
X371906800Y-189865000D03*
D11*
X366826800Y-189865000D03*
X376986800Y-189865000D03*
D12*
X374446800Y-184785000D03*
X368096800Y-187325000D03*
%TD*%
D11*
%TO.C,K9*%
X109651800Y-132715000D03*
X119811800Y-132715000D03*
D10*
X114731800Y-132715000D03*
D12*
X117271800Y-127635000D03*
X110921800Y-130175000D03*
%TD*%
D10*
%TO.C,K51*%
X295706800Y-189865000D03*
D11*
X300786800Y-189865000D03*
X290626800Y-189865000D03*
D12*
X298246800Y-184785000D03*
X291896800Y-187325000D03*
%TD*%
D22*
%TO.C,J2*%
X90900000Y-104332000D03*
X102140000Y-104332000D03*
D23*
X102140000Y-108332000D03*
X90900000Y-108332000D03*
%TD*%
D24*
%TO.C,Y1*%
X145034000Y-196242000D03*
X145034000Y-191362000D03*
%TD*%
M02*
