%TF.GenerationSoftware,KiCad,Pcbnew,(6.0.2)*%
%TF.CreationDate,2022-06-02T21:34:10-05:00*%
%TF.ProjectId,65Percent,36355065-7263-4656-9e74-2e6b69636164,rev?*%
%TF.SameCoordinates,Original*%
%TF.FileFunction,Legend,Bot*%
%TF.FilePolarity,Positive*%
%FSLAX46Y46*%
G04 Gerber Fmt 4.6, Leading zero omitted, Abs format (unit mm)*
G04 Created by KiCad (PCBNEW (6.0.2)) date 2022-06-02 21:34:10*
%MOMM*%
%LPD*%
G01*
G04 APERTURE LIST*
%ADD10C,0.100000*%
%ADD11C,0.150000*%
%ADD12C,0.200000*%
%ADD13C,0.120000*%
G04 APERTURE END LIST*
D10*
X169452942Y-198473190D02*
X169738657Y-198473190D01*
X169595800Y-198473190D02*
X169595800Y-197973190D01*
X169643419Y-198044619D01*
X169691038Y-198092238D01*
X169738657Y-198116047D01*
D11*
%TO.C,D53*%
X296627428Y-196596904D02*
X296627428Y-195796904D01*
X296436952Y-195796904D01*
X296322666Y-195835000D01*
X296246476Y-195911190D01*
X296208380Y-195987380D01*
X296170285Y-196139761D01*
X296170285Y-196254047D01*
X296208380Y-196406428D01*
X296246476Y-196482619D01*
X296322666Y-196558809D01*
X296436952Y-196596904D01*
X296627428Y-196596904D01*
X295446476Y-195796904D02*
X295827428Y-195796904D01*
X295865523Y-196177857D01*
X295827428Y-196139761D01*
X295751238Y-196101666D01*
X295560761Y-196101666D01*
X295484571Y-196139761D01*
X295446476Y-196177857D01*
X295408380Y-196254047D01*
X295408380Y-196444523D01*
X295446476Y-196520714D01*
X295484571Y-196558809D01*
X295560761Y-196596904D01*
X295751238Y-196596904D01*
X295827428Y-196558809D01*
X295865523Y-196520714D01*
X295141714Y-195796904D02*
X294646476Y-195796904D01*
X294913142Y-196101666D01*
X294798857Y-196101666D01*
X294722666Y-196139761D01*
X294684571Y-196177857D01*
X294646476Y-196254047D01*
X294646476Y-196444523D01*
X294684571Y-196520714D01*
X294722666Y-196558809D01*
X294798857Y-196596904D01*
X295027428Y-196596904D01*
X295103619Y-196558809D01*
X295141714Y-196520714D01*
%TO.C,D42*%
X253701428Y-158496904D02*
X253701428Y-157696904D01*
X253510952Y-157696904D01*
X253396666Y-157735000D01*
X253320476Y-157811190D01*
X253282380Y-157887380D01*
X253244285Y-158039761D01*
X253244285Y-158154047D01*
X253282380Y-158306428D01*
X253320476Y-158382619D01*
X253396666Y-158458809D01*
X253510952Y-158496904D01*
X253701428Y-158496904D01*
X252558571Y-157963571D02*
X252558571Y-158496904D01*
X252749047Y-157658809D02*
X252939523Y-158230238D01*
X252444285Y-158230238D01*
X252177619Y-157773095D02*
X252139523Y-157735000D01*
X252063333Y-157696904D01*
X251872857Y-157696904D01*
X251796666Y-157735000D01*
X251758571Y-157773095D01*
X251720476Y-157849285D01*
X251720476Y-157925476D01*
X251758571Y-158039761D01*
X252215714Y-158496904D01*
X251720476Y-158496904D01*
%TO.C,D67*%
X372827428Y-139446904D02*
X372827428Y-138646904D01*
X372636952Y-138646904D01*
X372522666Y-138685000D01*
X372446476Y-138761190D01*
X372408380Y-138837380D01*
X372370285Y-138989761D01*
X372370285Y-139104047D01*
X372408380Y-139256428D01*
X372446476Y-139332619D01*
X372522666Y-139408809D01*
X372636952Y-139446904D01*
X372827428Y-139446904D01*
X371684571Y-138646904D02*
X371836952Y-138646904D01*
X371913142Y-138685000D01*
X371951238Y-138723095D01*
X372027428Y-138837380D01*
X372065523Y-138989761D01*
X372065523Y-139294523D01*
X372027428Y-139370714D01*
X371989333Y-139408809D01*
X371913142Y-139446904D01*
X371760761Y-139446904D01*
X371684571Y-139408809D01*
X371646476Y-139370714D01*
X371608380Y-139294523D01*
X371608380Y-139104047D01*
X371646476Y-139027857D01*
X371684571Y-138989761D01*
X371760761Y-138951666D01*
X371913142Y-138951666D01*
X371989333Y-138989761D01*
X372027428Y-139027857D01*
X372065523Y-139104047D01*
X371341714Y-138646904D02*
X370808380Y-138646904D01*
X371151238Y-139446904D01*
%TO.C,D10*%
X125177428Y-120396904D02*
X125177428Y-119596904D01*
X124986952Y-119596904D01*
X124872666Y-119635000D01*
X124796476Y-119711190D01*
X124758380Y-119787380D01*
X124720285Y-119939761D01*
X124720285Y-120054047D01*
X124758380Y-120206428D01*
X124796476Y-120282619D01*
X124872666Y-120358809D01*
X124986952Y-120396904D01*
X125177428Y-120396904D01*
X123958380Y-120396904D02*
X124415523Y-120396904D01*
X124186952Y-120396904D02*
X124186952Y-119596904D01*
X124263142Y-119711190D01*
X124339333Y-119787380D01*
X124415523Y-119825476D01*
X123463142Y-119596904D02*
X123386952Y-119596904D01*
X123310761Y-119635000D01*
X123272666Y-119673095D01*
X123234571Y-119749285D01*
X123196476Y-119901666D01*
X123196476Y-120092142D01*
X123234571Y-120244523D01*
X123272666Y-120320714D01*
X123310761Y-120358809D01*
X123386952Y-120396904D01*
X123463142Y-120396904D01*
X123539333Y-120358809D01*
X123577428Y-120320714D01*
X123615523Y-120244523D01*
X123653619Y-120092142D01*
X123653619Y-119901666D01*
X123615523Y-119749285D01*
X123577428Y-119673095D01*
X123539333Y-119635000D01*
X123463142Y-119596904D01*
%TO.C,R4*%
X103544666Y-128468380D02*
X103878000Y-127992190D01*
X104116095Y-128468380D02*
X104116095Y-127468380D01*
X103735142Y-127468380D01*
X103639904Y-127516000D01*
X103592285Y-127563619D01*
X103544666Y-127658857D01*
X103544666Y-127801714D01*
X103592285Y-127896952D01*
X103639904Y-127944571D01*
X103735142Y-127992190D01*
X104116095Y-127992190D01*
X102687523Y-127801714D02*
X102687523Y-128468380D01*
X102925619Y-127420761D02*
X103163714Y-128135047D01*
X102544666Y-128135047D01*
%TO.C,D3*%
X86696476Y-120396904D02*
X86696476Y-119596904D01*
X86506000Y-119596904D01*
X86391714Y-119635000D01*
X86315523Y-119711190D01*
X86277428Y-119787380D01*
X86239333Y-119939761D01*
X86239333Y-120054047D01*
X86277428Y-120206428D01*
X86315523Y-120282619D01*
X86391714Y-120358809D01*
X86506000Y-120396904D01*
X86696476Y-120396904D01*
X85972666Y-119596904D02*
X85477428Y-119596904D01*
X85744095Y-119901666D01*
X85629809Y-119901666D01*
X85553619Y-119939761D01*
X85515523Y-119977857D01*
X85477428Y-120054047D01*
X85477428Y-120244523D01*
X85515523Y-120320714D01*
X85553619Y-120358809D01*
X85629809Y-120396904D01*
X85858380Y-120396904D01*
X85934571Y-120358809D01*
X85972666Y-120320714D01*
%TO.C,D25*%
X177501428Y-158496904D02*
X177501428Y-157696904D01*
X177310952Y-157696904D01*
X177196666Y-157735000D01*
X177120476Y-157811190D01*
X177082380Y-157887380D01*
X177044285Y-158039761D01*
X177044285Y-158154047D01*
X177082380Y-158306428D01*
X177120476Y-158382619D01*
X177196666Y-158458809D01*
X177310952Y-158496904D01*
X177501428Y-158496904D01*
X176739523Y-157773095D02*
X176701428Y-157735000D01*
X176625238Y-157696904D01*
X176434761Y-157696904D01*
X176358571Y-157735000D01*
X176320476Y-157773095D01*
X176282380Y-157849285D01*
X176282380Y-157925476D01*
X176320476Y-158039761D01*
X176777619Y-158496904D01*
X176282380Y-158496904D01*
X175558571Y-157696904D02*
X175939523Y-157696904D01*
X175977619Y-158077857D01*
X175939523Y-158039761D01*
X175863333Y-158001666D01*
X175672857Y-158001666D01*
X175596666Y-158039761D01*
X175558571Y-158077857D01*
X175520476Y-158154047D01*
X175520476Y-158344523D01*
X175558571Y-158420714D01*
X175596666Y-158458809D01*
X175672857Y-158496904D01*
X175863333Y-158496904D01*
X175939523Y-158458809D01*
X175977619Y-158420714D01*
%TO.C,D55*%
X306279428Y-139446904D02*
X306279428Y-138646904D01*
X306088952Y-138646904D01*
X305974666Y-138685000D01*
X305898476Y-138761190D01*
X305860380Y-138837380D01*
X305822285Y-138989761D01*
X305822285Y-139104047D01*
X305860380Y-139256428D01*
X305898476Y-139332619D01*
X305974666Y-139408809D01*
X306088952Y-139446904D01*
X306279428Y-139446904D01*
X305098476Y-138646904D02*
X305479428Y-138646904D01*
X305517523Y-139027857D01*
X305479428Y-138989761D01*
X305403238Y-138951666D01*
X305212761Y-138951666D01*
X305136571Y-138989761D01*
X305098476Y-139027857D01*
X305060380Y-139104047D01*
X305060380Y-139294523D01*
X305098476Y-139370714D01*
X305136571Y-139408809D01*
X305212761Y-139446904D01*
X305403238Y-139446904D01*
X305479428Y-139408809D01*
X305517523Y-139370714D01*
X304336571Y-138646904D02*
X304717523Y-138646904D01*
X304755619Y-139027857D01*
X304717523Y-138989761D01*
X304641333Y-138951666D01*
X304450857Y-138951666D01*
X304374666Y-138989761D01*
X304336571Y-139027857D01*
X304298476Y-139104047D01*
X304298476Y-139294523D01*
X304336571Y-139370714D01*
X304374666Y-139408809D01*
X304450857Y-139446904D01*
X304641333Y-139446904D01*
X304717523Y-139408809D01*
X304755619Y-139370714D01*
%TO.C,D58*%
X325329428Y-139446904D02*
X325329428Y-138646904D01*
X325138952Y-138646904D01*
X325024666Y-138685000D01*
X324948476Y-138761190D01*
X324910380Y-138837380D01*
X324872285Y-138989761D01*
X324872285Y-139104047D01*
X324910380Y-139256428D01*
X324948476Y-139332619D01*
X325024666Y-139408809D01*
X325138952Y-139446904D01*
X325329428Y-139446904D01*
X324148476Y-138646904D02*
X324529428Y-138646904D01*
X324567523Y-139027857D01*
X324529428Y-138989761D01*
X324453238Y-138951666D01*
X324262761Y-138951666D01*
X324186571Y-138989761D01*
X324148476Y-139027857D01*
X324110380Y-139104047D01*
X324110380Y-139294523D01*
X324148476Y-139370714D01*
X324186571Y-139408809D01*
X324262761Y-139446904D01*
X324453238Y-139446904D01*
X324529428Y-139408809D01*
X324567523Y-139370714D01*
X323653238Y-138989761D02*
X323729428Y-138951666D01*
X323767523Y-138913571D01*
X323805619Y-138837380D01*
X323805619Y-138799285D01*
X323767523Y-138723095D01*
X323729428Y-138685000D01*
X323653238Y-138646904D01*
X323500857Y-138646904D01*
X323424666Y-138685000D01*
X323386571Y-138723095D01*
X323348476Y-138799285D01*
X323348476Y-138837380D01*
X323386571Y-138913571D01*
X323424666Y-138951666D01*
X323500857Y-138989761D01*
X323653238Y-138989761D01*
X323729428Y-139027857D01*
X323767523Y-139065952D01*
X323805619Y-139142142D01*
X323805619Y-139294523D01*
X323767523Y-139370714D01*
X323729428Y-139408809D01*
X323653238Y-139446904D01*
X323500857Y-139446904D01*
X323424666Y-139408809D01*
X323386571Y-139370714D01*
X323348476Y-139294523D01*
X323348476Y-139142142D01*
X323386571Y-139065952D01*
X323424666Y-139027857D01*
X323500857Y-138989761D01*
%TO.C,D7*%
X88982476Y-196596904D02*
X88982476Y-195796904D01*
X88792000Y-195796904D01*
X88677714Y-195835000D01*
X88601523Y-195911190D01*
X88563428Y-195987380D01*
X88525333Y-196139761D01*
X88525333Y-196254047D01*
X88563428Y-196406428D01*
X88601523Y-196482619D01*
X88677714Y-196558809D01*
X88792000Y-196596904D01*
X88982476Y-196596904D01*
X88258666Y-195796904D02*
X87725333Y-195796904D01*
X88068190Y-196596904D01*
%TO.C,R2*%
X81954666Y-125292380D02*
X82288000Y-124816190D01*
X82526095Y-125292380D02*
X82526095Y-124292380D01*
X82145142Y-124292380D01*
X82049904Y-124340000D01*
X82002285Y-124387619D01*
X81954666Y-124482857D01*
X81954666Y-124625714D01*
X82002285Y-124720952D01*
X82049904Y-124768571D01*
X82145142Y-124816190D01*
X82526095Y-124816190D01*
X81573714Y-124387619D02*
X81526095Y-124340000D01*
X81430857Y-124292380D01*
X81192761Y-124292380D01*
X81097523Y-124340000D01*
X81049904Y-124387619D01*
X81002285Y-124482857D01*
X81002285Y-124578095D01*
X81049904Y-124720952D01*
X81621333Y-125292380D01*
X81002285Y-125292380D01*
%TO.C,C1*%
X150280666Y-191775142D02*
X150328285Y-191822761D01*
X150471142Y-191870380D01*
X150566380Y-191870380D01*
X150709238Y-191822761D01*
X150804476Y-191727523D01*
X150852095Y-191632285D01*
X150899714Y-191441809D01*
X150899714Y-191298952D01*
X150852095Y-191108476D01*
X150804476Y-191013238D01*
X150709238Y-190918000D01*
X150566380Y-190870380D01*
X150471142Y-190870380D01*
X150328285Y-190918000D01*
X150280666Y-190965619D01*
X149328285Y-191870380D02*
X149899714Y-191870380D01*
X149614000Y-191870380D02*
X149614000Y-190870380D01*
X149709238Y-191013238D01*
X149804476Y-191108476D01*
X149899714Y-191156095D01*
%TO.C,D48*%
X277577428Y-196596904D02*
X277577428Y-195796904D01*
X277386952Y-195796904D01*
X277272666Y-195835000D01*
X277196476Y-195911190D01*
X277158380Y-195987380D01*
X277120285Y-196139761D01*
X277120285Y-196254047D01*
X277158380Y-196406428D01*
X277196476Y-196482619D01*
X277272666Y-196558809D01*
X277386952Y-196596904D01*
X277577428Y-196596904D01*
X276434571Y-196063571D02*
X276434571Y-196596904D01*
X276625047Y-195758809D02*
X276815523Y-196330238D01*
X276320285Y-196330238D01*
X275901238Y-196139761D02*
X275977428Y-196101666D01*
X276015523Y-196063571D01*
X276053619Y-195987380D01*
X276053619Y-195949285D01*
X276015523Y-195873095D01*
X275977428Y-195835000D01*
X275901238Y-195796904D01*
X275748857Y-195796904D01*
X275672666Y-195835000D01*
X275634571Y-195873095D01*
X275596476Y-195949285D01*
X275596476Y-195987380D01*
X275634571Y-196063571D01*
X275672666Y-196101666D01*
X275748857Y-196139761D01*
X275901238Y-196139761D01*
X275977428Y-196177857D01*
X276015523Y-196215952D01*
X276053619Y-196292142D01*
X276053619Y-196444523D01*
X276015523Y-196520714D01*
X275977428Y-196558809D01*
X275901238Y-196596904D01*
X275748857Y-196596904D01*
X275672666Y-196558809D01*
X275634571Y-196520714D01*
X275596476Y-196444523D01*
X275596476Y-196292142D01*
X275634571Y-196215952D01*
X275672666Y-196177857D01*
X275748857Y-196139761D01*
%TO.C,C3*%
X180018728Y-183796226D02*
X180086071Y-183796226D01*
X180220758Y-183728882D01*
X180288102Y-183661539D01*
X180355445Y-183526851D01*
X180355445Y-183392164D01*
X180321774Y-183291149D01*
X180220758Y-183122790D01*
X180119743Y-183021775D01*
X179951384Y-182920760D01*
X179850369Y-182887088D01*
X179715682Y-182887088D01*
X179580995Y-182954432D01*
X179513651Y-183021775D01*
X179446308Y-183156462D01*
X179446308Y-183223806D01*
X179143262Y-183392164D02*
X178705529Y-183829897D01*
X179210606Y-183863569D01*
X179109590Y-183964584D01*
X179075919Y-184065600D01*
X179075919Y-184132943D01*
X179109590Y-184233958D01*
X179277949Y-184402317D01*
X179378964Y-184435989D01*
X179446308Y-184435989D01*
X179547323Y-184402317D01*
X179749354Y-184200287D01*
X179783026Y-184099271D01*
X179783026Y-184031928D01*
%TO.C,D19*%
X163277428Y-120396904D02*
X163277428Y-119596904D01*
X163086952Y-119596904D01*
X162972666Y-119635000D01*
X162896476Y-119711190D01*
X162858380Y-119787380D01*
X162820285Y-119939761D01*
X162820285Y-120054047D01*
X162858380Y-120206428D01*
X162896476Y-120282619D01*
X162972666Y-120358809D01*
X163086952Y-120396904D01*
X163277428Y-120396904D01*
X162058380Y-120396904D02*
X162515523Y-120396904D01*
X162286952Y-120396904D02*
X162286952Y-119596904D01*
X162363142Y-119711190D01*
X162439333Y-119787380D01*
X162515523Y-119825476D01*
X161677428Y-120396904D02*
X161525047Y-120396904D01*
X161448857Y-120358809D01*
X161410761Y-120320714D01*
X161334571Y-120206428D01*
X161296476Y-120054047D01*
X161296476Y-119749285D01*
X161334571Y-119673095D01*
X161372666Y-119635000D01*
X161448857Y-119596904D01*
X161601238Y-119596904D01*
X161677428Y-119635000D01*
X161715523Y-119673095D01*
X161753619Y-119749285D01*
X161753619Y-119939761D01*
X161715523Y-120015952D01*
X161677428Y-120054047D01*
X161601238Y-120092142D01*
X161448857Y-120092142D01*
X161372666Y-120054047D01*
X161334571Y-120015952D01*
X161296476Y-119939761D01*
%TO.C,D8*%
X105746476Y-120396904D02*
X105746476Y-119596904D01*
X105556000Y-119596904D01*
X105441714Y-119635000D01*
X105365523Y-119711190D01*
X105327428Y-119787380D01*
X105289333Y-119939761D01*
X105289333Y-120054047D01*
X105327428Y-120206428D01*
X105365523Y-120282619D01*
X105441714Y-120358809D01*
X105556000Y-120396904D01*
X105746476Y-120396904D01*
X104832190Y-119939761D02*
X104908380Y-119901666D01*
X104946476Y-119863571D01*
X104984571Y-119787380D01*
X104984571Y-119749285D01*
X104946476Y-119673095D01*
X104908380Y-119635000D01*
X104832190Y-119596904D01*
X104679809Y-119596904D01*
X104603619Y-119635000D01*
X104565523Y-119673095D01*
X104527428Y-119749285D01*
X104527428Y-119787380D01*
X104565523Y-119863571D01*
X104603619Y-119901666D01*
X104679809Y-119939761D01*
X104832190Y-119939761D01*
X104908380Y-119977857D01*
X104946476Y-120015952D01*
X104984571Y-120092142D01*
X104984571Y-120244523D01*
X104946476Y-120320714D01*
X104908380Y-120358809D01*
X104832190Y-120396904D01*
X104679809Y-120396904D01*
X104603619Y-120358809D01*
X104565523Y-120320714D01*
X104527428Y-120244523D01*
X104527428Y-120092142D01*
X104565523Y-120015952D01*
X104603619Y-119977857D01*
X104679809Y-119939761D01*
%TO.C,D70*%
X372827428Y-196596904D02*
X372827428Y-195796904D01*
X372636952Y-195796904D01*
X372522666Y-195835000D01*
X372446476Y-195911190D01*
X372408380Y-195987380D01*
X372370285Y-196139761D01*
X372370285Y-196254047D01*
X372408380Y-196406428D01*
X372446476Y-196482619D01*
X372522666Y-196558809D01*
X372636952Y-196596904D01*
X372827428Y-196596904D01*
X372103619Y-195796904D02*
X371570285Y-195796904D01*
X371913142Y-196596904D01*
X371113142Y-195796904D02*
X371036952Y-195796904D01*
X370960761Y-195835000D01*
X370922666Y-195873095D01*
X370884571Y-195949285D01*
X370846476Y-196101666D01*
X370846476Y-196292142D01*
X370884571Y-196444523D01*
X370922666Y-196520714D01*
X370960761Y-196558809D01*
X371036952Y-196596904D01*
X371113142Y-196596904D01*
X371189333Y-196558809D01*
X371227428Y-196520714D01*
X371265523Y-196444523D01*
X371303619Y-196292142D01*
X371303619Y-196101666D01*
X371265523Y-195949285D01*
X371227428Y-195873095D01*
X371189333Y-195835000D01*
X371113142Y-195796904D01*
%TO.C,D4*%
X91522476Y-139446904D02*
X91522476Y-138646904D01*
X91332000Y-138646904D01*
X91217714Y-138685000D01*
X91141523Y-138761190D01*
X91103428Y-138837380D01*
X91065333Y-138989761D01*
X91065333Y-139104047D01*
X91103428Y-139256428D01*
X91141523Y-139332619D01*
X91217714Y-139408809D01*
X91332000Y-139446904D01*
X91522476Y-139446904D01*
X90379619Y-138913571D02*
X90379619Y-139446904D01*
X90570095Y-138608809D02*
X90760571Y-139180238D01*
X90265333Y-139180238D01*
%TO.C,D56*%
X310851428Y-158496904D02*
X310851428Y-157696904D01*
X310660952Y-157696904D01*
X310546666Y-157735000D01*
X310470476Y-157811190D01*
X310432380Y-157887380D01*
X310394285Y-158039761D01*
X310394285Y-158154047D01*
X310432380Y-158306428D01*
X310470476Y-158382619D01*
X310546666Y-158458809D01*
X310660952Y-158496904D01*
X310851428Y-158496904D01*
X309670476Y-157696904D02*
X310051428Y-157696904D01*
X310089523Y-158077857D01*
X310051428Y-158039761D01*
X309975238Y-158001666D01*
X309784761Y-158001666D01*
X309708571Y-158039761D01*
X309670476Y-158077857D01*
X309632380Y-158154047D01*
X309632380Y-158344523D01*
X309670476Y-158420714D01*
X309708571Y-158458809D01*
X309784761Y-158496904D01*
X309975238Y-158496904D01*
X310051428Y-158458809D01*
X310089523Y-158420714D01*
X308946666Y-157696904D02*
X309099047Y-157696904D01*
X309175238Y-157735000D01*
X309213333Y-157773095D01*
X309289523Y-157887380D01*
X309327619Y-158039761D01*
X309327619Y-158344523D01*
X309289523Y-158420714D01*
X309251428Y-158458809D01*
X309175238Y-158496904D01*
X309022857Y-158496904D01*
X308946666Y-158458809D01*
X308908571Y-158420714D01*
X308870476Y-158344523D01*
X308870476Y-158154047D01*
X308908571Y-158077857D01*
X308946666Y-158039761D01*
X309022857Y-158001666D01*
X309175238Y-158001666D01*
X309251428Y-158039761D01*
X309289523Y-158077857D01*
X309327619Y-158154047D01*
%TO.C,D59*%
X341839428Y-158496904D02*
X341839428Y-157696904D01*
X341648952Y-157696904D01*
X341534666Y-157735000D01*
X341458476Y-157811190D01*
X341420380Y-157887380D01*
X341382285Y-158039761D01*
X341382285Y-158154047D01*
X341420380Y-158306428D01*
X341458476Y-158382619D01*
X341534666Y-158458809D01*
X341648952Y-158496904D01*
X341839428Y-158496904D01*
X340658476Y-157696904D02*
X341039428Y-157696904D01*
X341077523Y-158077857D01*
X341039428Y-158039761D01*
X340963238Y-158001666D01*
X340772761Y-158001666D01*
X340696571Y-158039761D01*
X340658476Y-158077857D01*
X340620380Y-158154047D01*
X340620380Y-158344523D01*
X340658476Y-158420714D01*
X340696571Y-158458809D01*
X340772761Y-158496904D01*
X340963238Y-158496904D01*
X341039428Y-158458809D01*
X341077523Y-158420714D01*
X340239428Y-158496904D02*
X340087047Y-158496904D01*
X340010857Y-158458809D01*
X339972761Y-158420714D01*
X339896571Y-158306428D01*
X339858476Y-158154047D01*
X339858476Y-157849285D01*
X339896571Y-157773095D01*
X339934666Y-157735000D01*
X340010857Y-157696904D01*
X340163238Y-157696904D01*
X340239428Y-157735000D01*
X340277523Y-157773095D01*
X340315619Y-157849285D01*
X340315619Y-158039761D01*
X340277523Y-158115952D01*
X340239428Y-158154047D01*
X340163238Y-158192142D01*
X340010857Y-158192142D01*
X339934666Y-158154047D01*
X339896571Y-158115952D01*
X339858476Y-158039761D01*
%TO.C,R5*%
X93384666Y-118054380D02*
X93718000Y-117578190D01*
X93956095Y-118054380D02*
X93956095Y-117054380D01*
X93575142Y-117054380D01*
X93479904Y-117102000D01*
X93432285Y-117149619D01*
X93384666Y-117244857D01*
X93384666Y-117387714D01*
X93432285Y-117482952D01*
X93479904Y-117530571D01*
X93575142Y-117578190D01*
X93956095Y-117578190D01*
X92479904Y-117054380D02*
X92956095Y-117054380D01*
X93003714Y-117530571D01*
X92956095Y-117482952D01*
X92860857Y-117435333D01*
X92622761Y-117435333D01*
X92527523Y-117482952D01*
X92479904Y-117530571D01*
X92432285Y-117625809D01*
X92432285Y-117863904D01*
X92479904Y-117959142D01*
X92527523Y-118006761D01*
X92622761Y-118054380D01*
X92860857Y-118054380D01*
X92956095Y-118006761D01*
X93003714Y-117959142D01*
%TO.C,D41*%
X249129428Y-139446904D02*
X249129428Y-138646904D01*
X248938952Y-138646904D01*
X248824666Y-138685000D01*
X248748476Y-138761190D01*
X248710380Y-138837380D01*
X248672285Y-138989761D01*
X248672285Y-139104047D01*
X248710380Y-139256428D01*
X248748476Y-139332619D01*
X248824666Y-139408809D01*
X248938952Y-139446904D01*
X249129428Y-139446904D01*
X247986571Y-138913571D02*
X247986571Y-139446904D01*
X248177047Y-138608809D02*
X248367523Y-139180238D01*
X247872285Y-139180238D01*
X247148476Y-139446904D02*
X247605619Y-139446904D01*
X247377047Y-139446904D02*
X247377047Y-138646904D01*
X247453238Y-138761190D01*
X247529428Y-138837380D01*
X247605619Y-138875476D01*
%TO.C,C2*%
X150280666Y-196191142D02*
X150328285Y-196238761D01*
X150471142Y-196286380D01*
X150566380Y-196286380D01*
X150709238Y-196238761D01*
X150804476Y-196143523D01*
X150852095Y-196048285D01*
X150899714Y-195857809D01*
X150899714Y-195714952D01*
X150852095Y-195524476D01*
X150804476Y-195429238D01*
X150709238Y-195334000D01*
X150566380Y-195286380D01*
X150471142Y-195286380D01*
X150328285Y-195334000D01*
X150280666Y-195381619D01*
X149899714Y-195381619D02*
X149852095Y-195334000D01*
X149756857Y-195286380D01*
X149518761Y-195286380D01*
X149423523Y-195334000D01*
X149375904Y-195381619D01*
X149328285Y-195476857D01*
X149328285Y-195572095D01*
X149375904Y-195714952D01*
X149947333Y-196286380D01*
X149328285Y-196286380D01*
%TO.C,D37*%
X230079428Y-139446904D02*
X230079428Y-138646904D01*
X229888952Y-138646904D01*
X229774666Y-138685000D01*
X229698476Y-138761190D01*
X229660380Y-138837380D01*
X229622285Y-138989761D01*
X229622285Y-139104047D01*
X229660380Y-139256428D01*
X229698476Y-139332619D01*
X229774666Y-139408809D01*
X229888952Y-139446904D01*
X230079428Y-139446904D01*
X229355619Y-138646904D02*
X228860380Y-138646904D01*
X229127047Y-138951666D01*
X229012761Y-138951666D01*
X228936571Y-138989761D01*
X228898476Y-139027857D01*
X228860380Y-139104047D01*
X228860380Y-139294523D01*
X228898476Y-139370714D01*
X228936571Y-139408809D01*
X229012761Y-139446904D01*
X229241333Y-139446904D01*
X229317523Y-139408809D01*
X229355619Y-139370714D01*
X228593714Y-138646904D02*
X228060380Y-138646904D01*
X228403238Y-139446904D01*
%TO.C,D27*%
X201377428Y-120396904D02*
X201377428Y-119596904D01*
X201186952Y-119596904D01*
X201072666Y-119635000D01*
X200996476Y-119711190D01*
X200958380Y-119787380D01*
X200920285Y-119939761D01*
X200920285Y-120054047D01*
X200958380Y-120206428D01*
X200996476Y-120282619D01*
X201072666Y-120358809D01*
X201186952Y-120396904D01*
X201377428Y-120396904D01*
X200615523Y-119673095D02*
X200577428Y-119635000D01*
X200501238Y-119596904D01*
X200310761Y-119596904D01*
X200234571Y-119635000D01*
X200196476Y-119673095D01*
X200158380Y-119749285D01*
X200158380Y-119825476D01*
X200196476Y-119939761D01*
X200653619Y-120396904D01*
X200158380Y-120396904D01*
X199891714Y-119596904D02*
X199358380Y-119596904D01*
X199701238Y-120396904D01*
%TO.C,D33*%
X211029428Y-139446904D02*
X211029428Y-138646904D01*
X210838952Y-138646904D01*
X210724666Y-138685000D01*
X210648476Y-138761190D01*
X210610380Y-138837380D01*
X210572285Y-138989761D01*
X210572285Y-139104047D01*
X210610380Y-139256428D01*
X210648476Y-139332619D01*
X210724666Y-139408809D01*
X210838952Y-139446904D01*
X211029428Y-139446904D01*
X210305619Y-138646904D02*
X209810380Y-138646904D01*
X210077047Y-138951666D01*
X209962761Y-138951666D01*
X209886571Y-138989761D01*
X209848476Y-139027857D01*
X209810380Y-139104047D01*
X209810380Y-139294523D01*
X209848476Y-139370714D01*
X209886571Y-139408809D01*
X209962761Y-139446904D01*
X210191333Y-139446904D01*
X210267523Y-139408809D01*
X210305619Y-139370714D01*
X209543714Y-138646904D02*
X209048476Y-138646904D01*
X209315142Y-138951666D01*
X209200857Y-138951666D01*
X209124666Y-138989761D01*
X209086571Y-139027857D01*
X209048476Y-139104047D01*
X209048476Y-139294523D01*
X209086571Y-139370714D01*
X209124666Y-139408809D01*
X209200857Y-139446904D01*
X209429428Y-139446904D01*
X209505619Y-139408809D01*
X209543714Y-139370714D01*
%TO.C,D65*%
X353777428Y-196596904D02*
X353777428Y-195796904D01*
X353586952Y-195796904D01*
X353472666Y-195835000D01*
X353396476Y-195911190D01*
X353358380Y-195987380D01*
X353320285Y-196139761D01*
X353320285Y-196254047D01*
X353358380Y-196406428D01*
X353396476Y-196482619D01*
X353472666Y-196558809D01*
X353586952Y-196596904D01*
X353777428Y-196596904D01*
X352634571Y-195796904D02*
X352786952Y-195796904D01*
X352863142Y-195835000D01*
X352901238Y-195873095D01*
X352977428Y-195987380D01*
X353015523Y-196139761D01*
X353015523Y-196444523D01*
X352977428Y-196520714D01*
X352939333Y-196558809D01*
X352863142Y-196596904D01*
X352710761Y-196596904D01*
X352634571Y-196558809D01*
X352596476Y-196520714D01*
X352558380Y-196444523D01*
X352558380Y-196254047D01*
X352596476Y-196177857D01*
X352634571Y-196139761D01*
X352710761Y-196101666D01*
X352863142Y-196101666D01*
X352939333Y-196139761D01*
X352977428Y-196177857D01*
X353015523Y-196254047D01*
X351834571Y-195796904D02*
X352215523Y-195796904D01*
X352253619Y-196177857D01*
X352215523Y-196139761D01*
X352139333Y-196101666D01*
X351948857Y-196101666D01*
X351872666Y-196139761D01*
X351834571Y-196177857D01*
X351796476Y-196254047D01*
X351796476Y-196444523D01*
X351834571Y-196520714D01*
X351872666Y-196558809D01*
X351948857Y-196596904D01*
X352139333Y-196596904D01*
X352215523Y-196558809D01*
X352253619Y-196520714D01*
%TO.C,C6*%
X165520666Y-195273142D02*
X165568285Y-195320761D01*
X165711142Y-195368380D01*
X165806380Y-195368380D01*
X165949238Y-195320761D01*
X166044476Y-195225523D01*
X166092095Y-195130285D01*
X166139714Y-194939809D01*
X166139714Y-194796952D01*
X166092095Y-194606476D01*
X166044476Y-194511238D01*
X165949238Y-194416000D01*
X165806380Y-194368380D01*
X165711142Y-194368380D01*
X165568285Y-194416000D01*
X165520666Y-194463619D01*
X164663523Y-194368380D02*
X164854000Y-194368380D01*
X164949238Y-194416000D01*
X164996857Y-194463619D01*
X165092095Y-194606476D01*
X165139714Y-194796952D01*
X165139714Y-195177904D01*
X165092095Y-195273142D01*
X165044476Y-195320761D01*
X164949238Y-195368380D01*
X164758761Y-195368380D01*
X164663523Y-195320761D01*
X164615904Y-195273142D01*
X164568285Y-195177904D01*
X164568285Y-194939809D01*
X164615904Y-194844571D01*
X164663523Y-194796952D01*
X164758761Y-194749333D01*
X164949238Y-194749333D01*
X165044476Y-194796952D01*
X165092095Y-194844571D01*
X165139714Y-194939809D01*
%TO.C,D34*%
X215601428Y-158496904D02*
X215601428Y-157696904D01*
X215410952Y-157696904D01*
X215296666Y-157735000D01*
X215220476Y-157811190D01*
X215182380Y-157887380D01*
X215144285Y-158039761D01*
X215144285Y-158154047D01*
X215182380Y-158306428D01*
X215220476Y-158382619D01*
X215296666Y-158458809D01*
X215410952Y-158496904D01*
X215601428Y-158496904D01*
X214877619Y-157696904D02*
X214382380Y-157696904D01*
X214649047Y-158001666D01*
X214534761Y-158001666D01*
X214458571Y-158039761D01*
X214420476Y-158077857D01*
X214382380Y-158154047D01*
X214382380Y-158344523D01*
X214420476Y-158420714D01*
X214458571Y-158458809D01*
X214534761Y-158496904D01*
X214763333Y-158496904D01*
X214839523Y-158458809D01*
X214877619Y-158420714D01*
X213696666Y-157963571D02*
X213696666Y-158496904D01*
X213887142Y-157658809D02*
X214077619Y-158230238D01*
X213582380Y-158230238D01*
%TO.C,D24*%
X172675428Y-139446904D02*
X172675428Y-138646904D01*
X172484952Y-138646904D01*
X172370666Y-138685000D01*
X172294476Y-138761190D01*
X172256380Y-138837380D01*
X172218285Y-138989761D01*
X172218285Y-139104047D01*
X172256380Y-139256428D01*
X172294476Y-139332619D01*
X172370666Y-139408809D01*
X172484952Y-139446904D01*
X172675428Y-139446904D01*
X171913523Y-138723095D02*
X171875428Y-138685000D01*
X171799238Y-138646904D01*
X171608761Y-138646904D01*
X171532571Y-138685000D01*
X171494476Y-138723095D01*
X171456380Y-138799285D01*
X171456380Y-138875476D01*
X171494476Y-138989761D01*
X171951619Y-139446904D01*
X171456380Y-139446904D01*
X170770666Y-138913571D02*
X170770666Y-139446904D01*
X170961142Y-138608809D02*
X171151619Y-139180238D01*
X170656380Y-139180238D01*
%TO.C,D64*%
X353777428Y-177546904D02*
X353777428Y-176746904D01*
X353586952Y-176746904D01*
X353472666Y-176785000D01*
X353396476Y-176861190D01*
X353358380Y-176937380D01*
X353320285Y-177089761D01*
X353320285Y-177204047D01*
X353358380Y-177356428D01*
X353396476Y-177432619D01*
X353472666Y-177508809D01*
X353586952Y-177546904D01*
X353777428Y-177546904D01*
X352634571Y-176746904D02*
X352786952Y-176746904D01*
X352863142Y-176785000D01*
X352901238Y-176823095D01*
X352977428Y-176937380D01*
X353015523Y-177089761D01*
X353015523Y-177394523D01*
X352977428Y-177470714D01*
X352939333Y-177508809D01*
X352863142Y-177546904D01*
X352710761Y-177546904D01*
X352634571Y-177508809D01*
X352596476Y-177470714D01*
X352558380Y-177394523D01*
X352558380Y-177204047D01*
X352596476Y-177127857D01*
X352634571Y-177089761D01*
X352710761Y-177051666D01*
X352863142Y-177051666D01*
X352939333Y-177089761D01*
X352977428Y-177127857D01*
X353015523Y-177204047D01*
X351872666Y-177013571D02*
X351872666Y-177546904D01*
X352063142Y-176708809D02*
X352253619Y-177280238D01*
X351758380Y-177280238D01*
%TO.C,D18*%
X137115428Y-196596904D02*
X137115428Y-195796904D01*
X136924952Y-195796904D01*
X136810666Y-195835000D01*
X136734476Y-195911190D01*
X136696380Y-195987380D01*
X136658285Y-196139761D01*
X136658285Y-196254047D01*
X136696380Y-196406428D01*
X136734476Y-196482619D01*
X136810666Y-196558809D01*
X136924952Y-196596904D01*
X137115428Y-196596904D01*
X135896380Y-196596904D02*
X136353523Y-196596904D01*
X136124952Y-196596904D02*
X136124952Y-195796904D01*
X136201142Y-195911190D01*
X136277333Y-195987380D01*
X136353523Y-196025476D01*
X135439238Y-196139761D02*
X135515428Y-196101666D01*
X135553523Y-196063571D01*
X135591619Y-195987380D01*
X135591619Y-195949285D01*
X135553523Y-195873095D01*
X135515428Y-195835000D01*
X135439238Y-195796904D01*
X135286857Y-195796904D01*
X135210666Y-195835000D01*
X135172571Y-195873095D01*
X135134476Y-195949285D01*
X135134476Y-195987380D01*
X135172571Y-196063571D01*
X135210666Y-196101666D01*
X135286857Y-196139761D01*
X135439238Y-196139761D01*
X135515428Y-196177857D01*
X135553523Y-196215952D01*
X135591619Y-196292142D01*
X135591619Y-196444523D01*
X135553523Y-196520714D01*
X135515428Y-196558809D01*
X135439238Y-196596904D01*
X135286857Y-196596904D01*
X135210666Y-196558809D01*
X135172571Y-196520714D01*
X135134476Y-196444523D01*
X135134476Y-196292142D01*
X135172571Y-196215952D01*
X135210666Y-196177857D01*
X135286857Y-196139761D01*
%TO.C,D61*%
X334727428Y-196596904D02*
X334727428Y-195796904D01*
X334536952Y-195796904D01*
X334422666Y-195835000D01*
X334346476Y-195911190D01*
X334308380Y-195987380D01*
X334270285Y-196139761D01*
X334270285Y-196254047D01*
X334308380Y-196406428D01*
X334346476Y-196482619D01*
X334422666Y-196558809D01*
X334536952Y-196596904D01*
X334727428Y-196596904D01*
X333584571Y-195796904D02*
X333736952Y-195796904D01*
X333813142Y-195835000D01*
X333851238Y-195873095D01*
X333927428Y-195987380D01*
X333965523Y-196139761D01*
X333965523Y-196444523D01*
X333927428Y-196520714D01*
X333889333Y-196558809D01*
X333813142Y-196596904D01*
X333660761Y-196596904D01*
X333584571Y-196558809D01*
X333546476Y-196520714D01*
X333508380Y-196444523D01*
X333508380Y-196254047D01*
X333546476Y-196177857D01*
X333584571Y-196139761D01*
X333660761Y-196101666D01*
X333813142Y-196101666D01*
X333889333Y-196139761D01*
X333927428Y-196177857D01*
X333965523Y-196254047D01*
X332746476Y-196596904D02*
X333203619Y-196596904D01*
X332975047Y-196596904D02*
X332975047Y-195796904D01*
X333051238Y-195911190D01*
X333127428Y-195987380D01*
X333203619Y-196025476D01*
%TO.C,D63*%
X348951428Y-139446904D02*
X348951428Y-138646904D01*
X348760952Y-138646904D01*
X348646666Y-138685000D01*
X348570476Y-138761190D01*
X348532380Y-138837380D01*
X348494285Y-138989761D01*
X348494285Y-139104047D01*
X348532380Y-139256428D01*
X348570476Y-139332619D01*
X348646666Y-139408809D01*
X348760952Y-139446904D01*
X348951428Y-139446904D01*
X347808571Y-138646904D02*
X347960952Y-138646904D01*
X348037142Y-138685000D01*
X348075238Y-138723095D01*
X348151428Y-138837380D01*
X348189523Y-138989761D01*
X348189523Y-139294523D01*
X348151428Y-139370714D01*
X348113333Y-139408809D01*
X348037142Y-139446904D01*
X347884761Y-139446904D01*
X347808571Y-139408809D01*
X347770476Y-139370714D01*
X347732380Y-139294523D01*
X347732380Y-139104047D01*
X347770476Y-139027857D01*
X347808571Y-138989761D01*
X347884761Y-138951666D01*
X348037142Y-138951666D01*
X348113333Y-138989761D01*
X348151428Y-139027857D01*
X348189523Y-139104047D01*
X347465714Y-138646904D02*
X346970476Y-138646904D01*
X347237142Y-138951666D01*
X347122857Y-138951666D01*
X347046666Y-138989761D01*
X347008571Y-139027857D01*
X346970476Y-139104047D01*
X346970476Y-139294523D01*
X347008571Y-139370714D01*
X347046666Y-139408809D01*
X347122857Y-139446904D01*
X347351428Y-139446904D01*
X347427619Y-139408809D01*
X347465714Y-139370714D01*
%TO.C,D68*%
X372827428Y-158496904D02*
X372827428Y-157696904D01*
X372636952Y-157696904D01*
X372522666Y-157735000D01*
X372446476Y-157811190D01*
X372408380Y-157887380D01*
X372370285Y-158039761D01*
X372370285Y-158154047D01*
X372408380Y-158306428D01*
X372446476Y-158382619D01*
X372522666Y-158458809D01*
X372636952Y-158496904D01*
X372827428Y-158496904D01*
X371684571Y-157696904D02*
X371836952Y-157696904D01*
X371913142Y-157735000D01*
X371951238Y-157773095D01*
X372027428Y-157887380D01*
X372065523Y-158039761D01*
X372065523Y-158344523D01*
X372027428Y-158420714D01*
X371989333Y-158458809D01*
X371913142Y-158496904D01*
X371760761Y-158496904D01*
X371684571Y-158458809D01*
X371646476Y-158420714D01*
X371608380Y-158344523D01*
X371608380Y-158154047D01*
X371646476Y-158077857D01*
X371684571Y-158039761D01*
X371760761Y-158001666D01*
X371913142Y-158001666D01*
X371989333Y-158039761D01*
X372027428Y-158077857D01*
X372065523Y-158154047D01*
X371151238Y-158039761D02*
X371227428Y-158001666D01*
X371265523Y-157963571D01*
X371303619Y-157887380D01*
X371303619Y-157849285D01*
X371265523Y-157773095D01*
X371227428Y-157735000D01*
X371151238Y-157696904D01*
X370998857Y-157696904D01*
X370922666Y-157735000D01*
X370884571Y-157773095D01*
X370846476Y-157849285D01*
X370846476Y-157887380D01*
X370884571Y-157963571D01*
X370922666Y-158001666D01*
X370998857Y-158039761D01*
X371151238Y-158039761D01*
X371227428Y-158077857D01*
X371265523Y-158115952D01*
X371303619Y-158192142D01*
X371303619Y-158344523D01*
X371265523Y-158420714D01*
X371227428Y-158458809D01*
X371151238Y-158496904D01*
X370998857Y-158496904D01*
X370922666Y-158458809D01*
X370884571Y-158420714D01*
X370846476Y-158344523D01*
X370846476Y-158192142D01*
X370884571Y-158115952D01*
X370922666Y-158077857D01*
X370998857Y-158039761D01*
%TO.C,D38*%
X234651428Y-158496904D02*
X234651428Y-157696904D01*
X234460952Y-157696904D01*
X234346666Y-157735000D01*
X234270476Y-157811190D01*
X234232380Y-157887380D01*
X234194285Y-158039761D01*
X234194285Y-158154047D01*
X234232380Y-158306428D01*
X234270476Y-158382619D01*
X234346666Y-158458809D01*
X234460952Y-158496904D01*
X234651428Y-158496904D01*
X233927619Y-157696904D02*
X233432380Y-157696904D01*
X233699047Y-158001666D01*
X233584761Y-158001666D01*
X233508571Y-158039761D01*
X233470476Y-158077857D01*
X233432380Y-158154047D01*
X233432380Y-158344523D01*
X233470476Y-158420714D01*
X233508571Y-158458809D01*
X233584761Y-158496904D01*
X233813333Y-158496904D01*
X233889523Y-158458809D01*
X233927619Y-158420714D01*
X232975238Y-158039761D02*
X233051428Y-158001666D01*
X233089523Y-157963571D01*
X233127619Y-157887380D01*
X233127619Y-157849285D01*
X233089523Y-157773095D01*
X233051428Y-157735000D01*
X232975238Y-157696904D01*
X232822857Y-157696904D01*
X232746666Y-157735000D01*
X232708571Y-157773095D01*
X232670476Y-157849285D01*
X232670476Y-157887380D01*
X232708571Y-157963571D01*
X232746666Y-158001666D01*
X232822857Y-158039761D01*
X232975238Y-158039761D01*
X233051428Y-158077857D01*
X233089523Y-158115952D01*
X233127619Y-158192142D01*
X233127619Y-158344523D01*
X233089523Y-158420714D01*
X233051428Y-158458809D01*
X232975238Y-158496904D01*
X232822857Y-158496904D01*
X232746666Y-158458809D01*
X232708571Y-158420714D01*
X232670476Y-158344523D01*
X232670476Y-158192142D01*
X232708571Y-158115952D01*
X232746666Y-158077857D01*
X232822857Y-158039761D01*
%TO.C,D44*%
X277577428Y-120396904D02*
X277577428Y-119596904D01*
X277386952Y-119596904D01*
X277272666Y-119635000D01*
X277196476Y-119711190D01*
X277158380Y-119787380D01*
X277120285Y-119939761D01*
X277120285Y-120054047D01*
X277158380Y-120206428D01*
X277196476Y-120282619D01*
X277272666Y-120358809D01*
X277386952Y-120396904D01*
X277577428Y-120396904D01*
X276434571Y-119863571D02*
X276434571Y-120396904D01*
X276625047Y-119558809D02*
X276815523Y-120130238D01*
X276320285Y-120130238D01*
X275672666Y-119863571D02*
X275672666Y-120396904D01*
X275863142Y-119558809D02*
X276053619Y-120130238D01*
X275558380Y-120130238D01*
%TO.C,D12*%
X120351428Y-158496904D02*
X120351428Y-157696904D01*
X120160952Y-157696904D01*
X120046666Y-157735000D01*
X119970476Y-157811190D01*
X119932380Y-157887380D01*
X119894285Y-158039761D01*
X119894285Y-158154047D01*
X119932380Y-158306428D01*
X119970476Y-158382619D01*
X120046666Y-158458809D01*
X120160952Y-158496904D01*
X120351428Y-158496904D01*
X119132380Y-158496904D02*
X119589523Y-158496904D01*
X119360952Y-158496904D02*
X119360952Y-157696904D01*
X119437142Y-157811190D01*
X119513333Y-157887380D01*
X119589523Y-157925476D01*
X118827619Y-157773095D02*
X118789523Y-157735000D01*
X118713333Y-157696904D01*
X118522857Y-157696904D01*
X118446666Y-157735000D01*
X118408571Y-157773095D01*
X118370476Y-157849285D01*
X118370476Y-157925476D01*
X118408571Y-158039761D01*
X118865714Y-158496904D01*
X118370476Y-158496904D01*
%TO.C,D54*%
X315677428Y-120396904D02*
X315677428Y-119596904D01*
X315486952Y-119596904D01*
X315372666Y-119635000D01*
X315296476Y-119711190D01*
X315258380Y-119787380D01*
X315220285Y-119939761D01*
X315220285Y-120054047D01*
X315258380Y-120206428D01*
X315296476Y-120282619D01*
X315372666Y-120358809D01*
X315486952Y-120396904D01*
X315677428Y-120396904D01*
X314496476Y-119596904D02*
X314877428Y-119596904D01*
X314915523Y-119977857D01*
X314877428Y-119939761D01*
X314801238Y-119901666D01*
X314610761Y-119901666D01*
X314534571Y-119939761D01*
X314496476Y-119977857D01*
X314458380Y-120054047D01*
X314458380Y-120244523D01*
X314496476Y-120320714D01*
X314534571Y-120358809D01*
X314610761Y-120396904D01*
X314801238Y-120396904D01*
X314877428Y-120358809D01*
X314915523Y-120320714D01*
X313772666Y-119863571D02*
X313772666Y-120396904D01*
X313963142Y-119558809D02*
X314153619Y-120130238D01*
X313658380Y-120130238D01*
%TO.C,D6*%
X98634476Y-177546904D02*
X98634476Y-176746904D01*
X98444000Y-176746904D01*
X98329714Y-176785000D01*
X98253523Y-176861190D01*
X98215428Y-176937380D01*
X98177333Y-177089761D01*
X98177333Y-177204047D01*
X98215428Y-177356428D01*
X98253523Y-177432619D01*
X98329714Y-177508809D01*
X98444000Y-177546904D01*
X98634476Y-177546904D01*
X97491619Y-176746904D02*
X97644000Y-176746904D01*
X97720190Y-176785000D01*
X97758285Y-176823095D01*
X97834476Y-176937380D01*
X97872571Y-177089761D01*
X97872571Y-177394523D01*
X97834476Y-177470714D01*
X97796380Y-177508809D01*
X97720190Y-177546904D01*
X97567809Y-177546904D01*
X97491619Y-177508809D01*
X97453523Y-177470714D01*
X97415428Y-177394523D01*
X97415428Y-177204047D01*
X97453523Y-177127857D01*
X97491619Y-177089761D01*
X97567809Y-177051666D01*
X97720190Y-177051666D01*
X97796380Y-177089761D01*
X97834476Y-177127857D01*
X97872571Y-177204047D01*
%TO.C,R6*%
X98718666Y-118054380D02*
X99052000Y-117578190D01*
X99290095Y-118054380D02*
X99290095Y-117054380D01*
X98909142Y-117054380D01*
X98813904Y-117102000D01*
X98766285Y-117149619D01*
X98718666Y-117244857D01*
X98718666Y-117387714D01*
X98766285Y-117482952D01*
X98813904Y-117530571D01*
X98909142Y-117578190D01*
X99290095Y-117578190D01*
X97861523Y-117054380D02*
X98052000Y-117054380D01*
X98147238Y-117102000D01*
X98194857Y-117149619D01*
X98290095Y-117292476D01*
X98337714Y-117482952D01*
X98337714Y-117863904D01*
X98290095Y-117959142D01*
X98242476Y-118006761D01*
X98147238Y-118054380D01*
X97956761Y-118054380D01*
X97861523Y-118006761D01*
X97813904Y-117959142D01*
X97766285Y-117863904D01*
X97766285Y-117625809D01*
X97813904Y-117530571D01*
X97861523Y-117482952D01*
X97956761Y-117435333D01*
X98147238Y-117435333D01*
X98242476Y-117482952D01*
X98290095Y-117530571D01*
X98337714Y-117625809D01*
%TO.C,D29*%
X196551428Y-158496904D02*
X196551428Y-157696904D01*
X196360952Y-157696904D01*
X196246666Y-157735000D01*
X196170476Y-157811190D01*
X196132380Y-157887380D01*
X196094285Y-158039761D01*
X196094285Y-158154047D01*
X196132380Y-158306428D01*
X196170476Y-158382619D01*
X196246666Y-158458809D01*
X196360952Y-158496904D01*
X196551428Y-158496904D01*
X195789523Y-157773095D02*
X195751428Y-157735000D01*
X195675238Y-157696904D01*
X195484761Y-157696904D01*
X195408571Y-157735000D01*
X195370476Y-157773095D01*
X195332380Y-157849285D01*
X195332380Y-157925476D01*
X195370476Y-158039761D01*
X195827619Y-158496904D01*
X195332380Y-158496904D01*
X194951428Y-158496904D02*
X194799047Y-158496904D01*
X194722857Y-158458809D01*
X194684761Y-158420714D01*
X194608571Y-158306428D01*
X194570476Y-158154047D01*
X194570476Y-157849285D01*
X194608571Y-157773095D01*
X194646666Y-157735000D01*
X194722857Y-157696904D01*
X194875238Y-157696904D01*
X194951428Y-157735000D01*
X194989523Y-157773095D01*
X195027619Y-157849285D01*
X195027619Y-158039761D01*
X194989523Y-158115952D01*
X194951428Y-158154047D01*
X194875238Y-158192142D01*
X194722857Y-158192142D01*
X194646666Y-158154047D01*
X194608571Y-158115952D01*
X194570476Y-158039761D01*
%TO.C,D36*%
X239477428Y-120396904D02*
X239477428Y-119596904D01*
X239286952Y-119596904D01*
X239172666Y-119635000D01*
X239096476Y-119711190D01*
X239058380Y-119787380D01*
X239020285Y-119939761D01*
X239020285Y-120054047D01*
X239058380Y-120206428D01*
X239096476Y-120282619D01*
X239172666Y-120358809D01*
X239286952Y-120396904D01*
X239477428Y-120396904D01*
X238753619Y-119596904D02*
X238258380Y-119596904D01*
X238525047Y-119901666D01*
X238410761Y-119901666D01*
X238334571Y-119939761D01*
X238296476Y-119977857D01*
X238258380Y-120054047D01*
X238258380Y-120244523D01*
X238296476Y-120320714D01*
X238334571Y-120358809D01*
X238410761Y-120396904D01*
X238639333Y-120396904D01*
X238715523Y-120358809D01*
X238753619Y-120320714D01*
X237572666Y-119596904D02*
X237725047Y-119596904D01*
X237801238Y-119635000D01*
X237839333Y-119673095D01*
X237915523Y-119787380D01*
X237953619Y-119939761D01*
X237953619Y-120244523D01*
X237915523Y-120320714D01*
X237877428Y-120358809D01*
X237801238Y-120396904D01*
X237648857Y-120396904D01*
X237572666Y-120358809D01*
X237534571Y-120320714D01*
X237496476Y-120244523D01*
X237496476Y-120054047D01*
X237534571Y-119977857D01*
X237572666Y-119939761D01*
X237648857Y-119901666D01*
X237801238Y-119901666D01*
X237877428Y-119939761D01*
X237915523Y-119977857D01*
X237953619Y-120054047D01*
%TO.C,D39*%
X244303428Y-177546904D02*
X244303428Y-176746904D01*
X244112952Y-176746904D01*
X243998666Y-176785000D01*
X243922476Y-176861190D01*
X243884380Y-176937380D01*
X243846285Y-177089761D01*
X243846285Y-177204047D01*
X243884380Y-177356428D01*
X243922476Y-177432619D01*
X243998666Y-177508809D01*
X244112952Y-177546904D01*
X244303428Y-177546904D01*
X243579619Y-176746904D02*
X243084380Y-176746904D01*
X243351047Y-177051666D01*
X243236761Y-177051666D01*
X243160571Y-177089761D01*
X243122476Y-177127857D01*
X243084380Y-177204047D01*
X243084380Y-177394523D01*
X243122476Y-177470714D01*
X243160571Y-177508809D01*
X243236761Y-177546904D01*
X243465333Y-177546904D01*
X243541523Y-177508809D01*
X243579619Y-177470714D01*
X242703428Y-177546904D02*
X242551047Y-177546904D01*
X242474857Y-177508809D01*
X242436761Y-177470714D01*
X242360571Y-177356428D01*
X242322476Y-177204047D01*
X242322476Y-176899285D01*
X242360571Y-176823095D01*
X242398666Y-176785000D01*
X242474857Y-176746904D01*
X242627238Y-176746904D01*
X242703428Y-176785000D01*
X242741523Y-176823095D01*
X242779619Y-176899285D01*
X242779619Y-177089761D01*
X242741523Y-177165952D01*
X242703428Y-177204047D01*
X242627238Y-177242142D01*
X242474857Y-177242142D01*
X242398666Y-177204047D01*
X242360571Y-177165952D01*
X242322476Y-177089761D01*
%TO.C,D14*%
X144227428Y-120396904D02*
X144227428Y-119596904D01*
X144036952Y-119596904D01*
X143922666Y-119635000D01*
X143846476Y-119711190D01*
X143808380Y-119787380D01*
X143770285Y-119939761D01*
X143770285Y-120054047D01*
X143808380Y-120206428D01*
X143846476Y-120282619D01*
X143922666Y-120358809D01*
X144036952Y-120396904D01*
X144227428Y-120396904D01*
X143008380Y-120396904D02*
X143465523Y-120396904D01*
X143236952Y-120396904D02*
X143236952Y-119596904D01*
X143313142Y-119711190D01*
X143389333Y-119787380D01*
X143465523Y-119825476D01*
X142322666Y-119863571D02*
X142322666Y-120396904D01*
X142513142Y-119558809D02*
X142703619Y-120130238D01*
X142208380Y-120130238D01*
%TO.C,D50*%
X287229428Y-139446904D02*
X287229428Y-138646904D01*
X287038952Y-138646904D01*
X286924666Y-138685000D01*
X286848476Y-138761190D01*
X286810380Y-138837380D01*
X286772285Y-138989761D01*
X286772285Y-139104047D01*
X286810380Y-139256428D01*
X286848476Y-139332619D01*
X286924666Y-139408809D01*
X287038952Y-139446904D01*
X287229428Y-139446904D01*
X286048476Y-138646904D02*
X286429428Y-138646904D01*
X286467523Y-139027857D01*
X286429428Y-138989761D01*
X286353238Y-138951666D01*
X286162761Y-138951666D01*
X286086571Y-138989761D01*
X286048476Y-139027857D01*
X286010380Y-139104047D01*
X286010380Y-139294523D01*
X286048476Y-139370714D01*
X286086571Y-139408809D01*
X286162761Y-139446904D01*
X286353238Y-139446904D01*
X286429428Y-139408809D01*
X286467523Y-139370714D01*
X285515142Y-138646904D02*
X285438952Y-138646904D01*
X285362761Y-138685000D01*
X285324666Y-138723095D01*
X285286571Y-138799285D01*
X285248476Y-138951666D01*
X285248476Y-139142142D01*
X285286571Y-139294523D01*
X285324666Y-139370714D01*
X285362761Y-139408809D01*
X285438952Y-139446904D01*
X285515142Y-139446904D01*
X285591333Y-139408809D01*
X285629428Y-139370714D01*
X285667523Y-139294523D01*
X285705619Y-139142142D01*
X285705619Y-138951666D01*
X285667523Y-138799285D01*
X285629428Y-138723095D01*
X285591333Y-138685000D01*
X285515142Y-138646904D01*
%TO.C,D5*%
X93808476Y-158496904D02*
X93808476Y-157696904D01*
X93618000Y-157696904D01*
X93503714Y-157735000D01*
X93427523Y-157811190D01*
X93389428Y-157887380D01*
X93351333Y-158039761D01*
X93351333Y-158154047D01*
X93389428Y-158306428D01*
X93427523Y-158382619D01*
X93503714Y-158458809D01*
X93618000Y-158496904D01*
X93808476Y-158496904D01*
X92627523Y-157696904D02*
X93008476Y-157696904D01*
X93046571Y-158077857D01*
X93008476Y-158039761D01*
X92932285Y-158001666D01*
X92741809Y-158001666D01*
X92665619Y-158039761D01*
X92627523Y-158077857D01*
X92589428Y-158154047D01*
X92589428Y-158344523D01*
X92627523Y-158420714D01*
X92665619Y-158458809D01*
X92741809Y-158496904D01*
X92932285Y-158496904D01*
X93008476Y-158458809D01*
X93046571Y-158420714D01*
%TO.C,D40*%
X258527428Y-120396904D02*
X258527428Y-119596904D01*
X258336952Y-119596904D01*
X258222666Y-119635000D01*
X258146476Y-119711190D01*
X258108380Y-119787380D01*
X258070285Y-119939761D01*
X258070285Y-120054047D01*
X258108380Y-120206428D01*
X258146476Y-120282619D01*
X258222666Y-120358809D01*
X258336952Y-120396904D01*
X258527428Y-120396904D01*
X257384571Y-119863571D02*
X257384571Y-120396904D01*
X257575047Y-119558809D02*
X257765523Y-120130238D01*
X257270285Y-120130238D01*
X256813142Y-119596904D02*
X256736952Y-119596904D01*
X256660761Y-119635000D01*
X256622666Y-119673095D01*
X256584571Y-119749285D01*
X256546476Y-119901666D01*
X256546476Y-120092142D01*
X256584571Y-120244523D01*
X256622666Y-120320714D01*
X256660761Y-120358809D01*
X256736952Y-120396904D01*
X256813142Y-120396904D01*
X256889333Y-120358809D01*
X256927428Y-120320714D01*
X256965523Y-120244523D01*
X257003619Y-120092142D01*
X257003619Y-119901666D01*
X256965523Y-119749285D01*
X256927428Y-119673095D01*
X256889333Y-119635000D01*
X256813142Y-119596904D01*
%TO.C,D9*%
X112858476Y-196596904D02*
X112858476Y-195796904D01*
X112668000Y-195796904D01*
X112553714Y-195835000D01*
X112477523Y-195911190D01*
X112439428Y-195987380D01*
X112401333Y-196139761D01*
X112401333Y-196254047D01*
X112439428Y-196406428D01*
X112477523Y-196482619D01*
X112553714Y-196558809D01*
X112668000Y-196596904D01*
X112858476Y-196596904D01*
X112020380Y-196596904D02*
X111868000Y-196596904D01*
X111791809Y-196558809D01*
X111753714Y-196520714D01*
X111677523Y-196406428D01*
X111639428Y-196254047D01*
X111639428Y-195949285D01*
X111677523Y-195873095D01*
X111715619Y-195835000D01*
X111791809Y-195796904D01*
X111944190Y-195796904D01*
X112020380Y-195835000D01*
X112058476Y-195873095D01*
X112096571Y-195949285D01*
X112096571Y-196139761D01*
X112058476Y-196215952D01*
X112020380Y-196254047D01*
X111944190Y-196292142D01*
X111791809Y-196292142D01*
X111715619Y-196254047D01*
X111677523Y-196215952D01*
X111639428Y-196139761D01*
%TO.C,J2*%
X96186666Y-114889619D02*
X96186666Y-114175333D01*
X96139047Y-114032476D01*
X96043809Y-113937238D01*
X95900952Y-113889619D01*
X95805714Y-113889619D01*
X96615238Y-114794380D02*
X96662857Y-114842000D01*
X96758095Y-114889619D01*
X96996190Y-114889619D01*
X97091428Y-114842000D01*
X97139047Y-114794380D01*
X97186666Y-114699142D01*
X97186666Y-114603904D01*
X97139047Y-114461047D01*
X96567619Y-113889619D01*
X97186666Y-113889619D01*
%TO.C,D35*%
X225253428Y-177546904D02*
X225253428Y-176746904D01*
X225062952Y-176746904D01*
X224948666Y-176785000D01*
X224872476Y-176861190D01*
X224834380Y-176937380D01*
X224796285Y-177089761D01*
X224796285Y-177204047D01*
X224834380Y-177356428D01*
X224872476Y-177432619D01*
X224948666Y-177508809D01*
X225062952Y-177546904D01*
X225253428Y-177546904D01*
X224529619Y-176746904D02*
X224034380Y-176746904D01*
X224301047Y-177051666D01*
X224186761Y-177051666D01*
X224110571Y-177089761D01*
X224072476Y-177127857D01*
X224034380Y-177204047D01*
X224034380Y-177394523D01*
X224072476Y-177470714D01*
X224110571Y-177508809D01*
X224186761Y-177546904D01*
X224415333Y-177546904D01*
X224491523Y-177508809D01*
X224529619Y-177470714D01*
X223310571Y-176746904D02*
X223691523Y-176746904D01*
X223729619Y-177127857D01*
X223691523Y-177089761D01*
X223615333Y-177051666D01*
X223424857Y-177051666D01*
X223348666Y-177089761D01*
X223310571Y-177127857D01*
X223272476Y-177204047D01*
X223272476Y-177394523D01*
X223310571Y-177470714D01*
X223348666Y-177508809D01*
X223424857Y-177546904D01*
X223615333Y-177546904D01*
X223691523Y-177508809D01*
X223729619Y-177470714D01*
%TO.C,Y1*%
X145057809Y-194278190D02*
X144581619Y-194278190D01*
X145581619Y-194611523D02*
X145057809Y-194278190D01*
X145581619Y-193944857D01*
X144581619Y-193087714D02*
X144581619Y-193659142D01*
X144581619Y-193373428D02*
X145581619Y-193373428D01*
X145438761Y-193468666D01*
X145343523Y-193563904D01*
X145295904Y-193659142D01*
%TO.C,D57*%
X315677428Y-196596904D02*
X315677428Y-195796904D01*
X315486952Y-195796904D01*
X315372666Y-195835000D01*
X315296476Y-195911190D01*
X315258380Y-195987380D01*
X315220285Y-196139761D01*
X315220285Y-196254047D01*
X315258380Y-196406428D01*
X315296476Y-196482619D01*
X315372666Y-196558809D01*
X315486952Y-196596904D01*
X315677428Y-196596904D01*
X314496476Y-195796904D02*
X314877428Y-195796904D01*
X314915523Y-196177857D01*
X314877428Y-196139761D01*
X314801238Y-196101666D01*
X314610761Y-196101666D01*
X314534571Y-196139761D01*
X314496476Y-196177857D01*
X314458380Y-196254047D01*
X314458380Y-196444523D01*
X314496476Y-196520714D01*
X314534571Y-196558809D01*
X314610761Y-196596904D01*
X314801238Y-196596904D01*
X314877428Y-196558809D01*
X314915523Y-196520714D01*
X314191714Y-195796904D02*
X313658380Y-195796904D01*
X314001238Y-196596904D01*
%TO.C,D16*%
X139401428Y-158496904D02*
X139401428Y-157696904D01*
X139210952Y-157696904D01*
X139096666Y-157735000D01*
X139020476Y-157811190D01*
X138982380Y-157887380D01*
X138944285Y-158039761D01*
X138944285Y-158154047D01*
X138982380Y-158306428D01*
X139020476Y-158382619D01*
X139096666Y-158458809D01*
X139210952Y-158496904D01*
X139401428Y-158496904D01*
X138182380Y-158496904D02*
X138639523Y-158496904D01*
X138410952Y-158496904D02*
X138410952Y-157696904D01*
X138487142Y-157811190D01*
X138563333Y-157887380D01*
X138639523Y-157925476D01*
X137496666Y-157696904D02*
X137649047Y-157696904D01*
X137725238Y-157735000D01*
X137763333Y-157773095D01*
X137839523Y-157887380D01*
X137877619Y-158039761D01*
X137877619Y-158344523D01*
X137839523Y-158420714D01*
X137801428Y-158458809D01*
X137725238Y-158496904D01*
X137572857Y-158496904D01*
X137496666Y-158458809D01*
X137458571Y-158420714D01*
X137420476Y-158344523D01*
X137420476Y-158154047D01*
X137458571Y-158077857D01*
X137496666Y-158039761D01*
X137572857Y-158001666D01*
X137725238Y-158001666D01*
X137801428Y-158039761D01*
X137839523Y-158077857D01*
X137877619Y-158154047D01*
%TO.C,U1*%
X171347522Y-189066026D02*
X171919942Y-189638446D01*
X171953614Y-189739461D01*
X171953614Y-189806805D01*
X171919942Y-189907820D01*
X171785255Y-190042507D01*
X171684240Y-190076179D01*
X171616896Y-190076179D01*
X171515881Y-190042507D01*
X170943461Y-189470087D01*
X170943461Y-190884301D02*
X171347522Y-190480240D01*
X171145492Y-190682270D02*
X170438385Y-189975164D01*
X170606744Y-190008835D01*
X170741431Y-190008835D01*
X170842446Y-189975164D01*
%TO.C,D21*%
X158705428Y-158496904D02*
X158705428Y-157696904D01*
X158514952Y-157696904D01*
X158400666Y-157735000D01*
X158324476Y-157811190D01*
X158286380Y-157887380D01*
X158248285Y-158039761D01*
X158248285Y-158154047D01*
X158286380Y-158306428D01*
X158324476Y-158382619D01*
X158400666Y-158458809D01*
X158514952Y-158496904D01*
X158705428Y-158496904D01*
X157943523Y-157773095D02*
X157905428Y-157735000D01*
X157829238Y-157696904D01*
X157638761Y-157696904D01*
X157562571Y-157735000D01*
X157524476Y-157773095D01*
X157486380Y-157849285D01*
X157486380Y-157925476D01*
X157524476Y-158039761D01*
X157981619Y-158496904D01*
X157486380Y-158496904D01*
X156724476Y-158496904D02*
X157181619Y-158496904D01*
X156953047Y-158496904D02*
X156953047Y-157696904D01*
X157029238Y-157811190D01*
X157105428Y-157887380D01*
X157181619Y-157925476D01*
%TO.C,D51*%
X291801428Y-158496904D02*
X291801428Y-157696904D01*
X291610952Y-157696904D01*
X291496666Y-157735000D01*
X291420476Y-157811190D01*
X291382380Y-157887380D01*
X291344285Y-158039761D01*
X291344285Y-158154047D01*
X291382380Y-158306428D01*
X291420476Y-158382619D01*
X291496666Y-158458809D01*
X291610952Y-158496904D01*
X291801428Y-158496904D01*
X290620476Y-157696904D02*
X291001428Y-157696904D01*
X291039523Y-158077857D01*
X291001428Y-158039761D01*
X290925238Y-158001666D01*
X290734761Y-158001666D01*
X290658571Y-158039761D01*
X290620476Y-158077857D01*
X290582380Y-158154047D01*
X290582380Y-158344523D01*
X290620476Y-158420714D01*
X290658571Y-158458809D01*
X290734761Y-158496904D01*
X290925238Y-158496904D01*
X291001428Y-158458809D01*
X291039523Y-158420714D01*
X289820476Y-158496904D02*
X290277619Y-158496904D01*
X290049047Y-158496904D02*
X290049047Y-157696904D01*
X290125238Y-157811190D01*
X290201428Y-157887380D01*
X290277619Y-157925476D01*
%TO.C,R1*%
X227402380Y-185253333D02*
X226926190Y-184920000D01*
X227402380Y-184681904D02*
X226402380Y-184681904D01*
X226402380Y-185062857D01*
X226450000Y-185158095D01*
X226497619Y-185205714D01*
X226592857Y-185253333D01*
X226735714Y-185253333D01*
X226830952Y-185205714D01*
X226878571Y-185158095D01*
X226926190Y-185062857D01*
X226926190Y-184681904D01*
X227402380Y-186205714D02*
X227402380Y-185634285D01*
X227402380Y-185920000D02*
X226402380Y-185920000D01*
X226545238Y-185824761D01*
X226640476Y-185729523D01*
X226688095Y-185634285D01*
%TO.C,D49*%
X296627428Y-120396904D02*
X296627428Y-119596904D01*
X296436952Y-119596904D01*
X296322666Y-119635000D01*
X296246476Y-119711190D01*
X296208380Y-119787380D01*
X296170285Y-119939761D01*
X296170285Y-120054047D01*
X296208380Y-120206428D01*
X296246476Y-120282619D01*
X296322666Y-120358809D01*
X296436952Y-120396904D01*
X296627428Y-120396904D01*
X295484571Y-119863571D02*
X295484571Y-120396904D01*
X295675047Y-119558809D02*
X295865523Y-120130238D01*
X295370285Y-120130238D01*
X295027428Y-120396904D02*
X294875047Y-120396904D01*
X294798857Y-120358809D01*
X294760761Y-120320714D01*
X294684571Y-120206428D01*
X294646476Y-120054047D01*
X294646476Y-119749285D01*
X294684571Y-119673095D01*
X294722666Y-119635000D01*
X294798857Y-119596904D01*
X294951238Y-119596904D01*
X295027428Y-119635000D01*
X295065523Y-119673095D01*
X295103619Y-119749285D01*
X295103619Y-119939761D01*
X295065523Y-120015952D01*
X295027428Y-120054047D01*
X294951238Y-120092142D01*
X294798857Y-120092142D01*
X294722666Y-120054047D01*
X294684571Y-120015952D01*
X294646476Y-119939761D01*
%TO.C,D69*%
X372827428Y-177546904D02*
X372827428Y-176746904D01*
X372636952Y-176746904D01*
X372522666Y-176785000D01*
X372446476Y-176861190D01*
X372408380Y-176937380D01*
X372370285Y-177089761D01*
X372370285Y-177204047D01*
X372408380Y-177356428D01*
X372446476Y-177432619D01*
X372522666Y-177508809D01*
X372636952Y-177546904D01*
X372827428Y-177546904D01*
X371684571Y-176746904D02*
X371836952Y-176746904D01*
X371913142Y-176785000D01*
X371951238Y-176823095D01*
X372027428Y-176937380D01*
X372065523Y-177089761D01*
X372065523Y-177394523D01*
X372027428Y-177470714D01*
X371989333Y-177508809D01*
X371913142Y-177546904D01*
X371760761Y-177546904D01*
X371684571Y-177508809D01*
X371646476Y-177470714D01*
X371608380Y-177394523D01*
X371608380Y-177204047D01*
X371646476Y-177127857D01*
X371684571Y-177089761D01*
X371760761Y-177051666D01*
X371913142Y-177051666D01*
X371989333Y-177089761D01*
X372027428Y-177127857D01*
X372065523Y-177204047D01*
X371227428Y-177546904D02*
X371075047Y-177546904D01*
X370998857Y-177508809D01*
X370960761Y-177470714D01*
X370884571Y-177356428D01*
X370846476Y-177204047D01*
X370846476Y-176899285D01*
X370884571Y-176823095D01*
X370922666Y-176785000D01*
X370998857Y-176746904D01*
X371151238Y-176746904D01*
X371227428Y-176785000D01*
X371265523Y-176823095D01*
X371303619Y-176899285D01*
X371303619Y-177089761D01*
X371265523Y-177165952D01*
X371227428Y-177204047D01*
X371151238Y-177242142D01*
X370998857Y-177242142D01*
X370922666Y-177204047D01*
X370884571Y-177165952D01*
X370846476Y-177089761D01*
%TO.C,D13*%
X130003428Y-177546904D02*
X130003428Y-176746904D01*
X129812952Y-176746904D01*
X129698666Y-176785000D01*
X129622476Y-176861190D01*
X129584380Y-176937380D01*
X129546285Y-177089761D01*
X129546285Y-177204047D01*
X129584380Y-177356428D01*
X129622476Y-177432619D01*
X129698666Y-177508809D01*
X129812952Y-177546904D01*
X130003428Y-177546904D01*
X128784380Y-177546904D02*
X129241523Y-177546904D01*
X129012952Y-177546904D02*
X129012952Y-176746904D01*
X129089142Y-176861190D01*
X129165333Y-176937380D01*
X129241523Y-176975476D01*
X128517714Y-176746904D02*
X128022476Y-176746904D01*
X128289142Y-177051666D01*
X128174857Y-177051666D01*
X128098666Y-177089761D01*
X128060571Y-177127857D01*
X128022476Y-177204047D01*
X128022476Y-177394523D01*
X128060571Y-177470714D01*
X128098666Y-177508809D01*
X128174857Y-177546904D01*
X128403428Y-177546904D01*
X128479619Y-177508809D01*
X128517714Y-177470714D01*
%TO.C,SW1*%
X236247038Y-187769333D02*
X236199419Y-187626476D01*
X236199419Y-187388380D01*
X236247038Y-187293142D01*
X236294657Y-187245523D01*
X236389895Y-187197904D01*
X236485133Y-187197904D01*
X236580371Y-187245523D01*
X236627990Y-187293142D01*
X236675609Y-187388380D01*
X236723228Y-187578857D01*
X236770847Y-187674095D01*
X236818466Y-187721714D01*
X236913704Y-187769333D01*
X237008942Y-187769333D01*
X237104180Y-187721714D01*
X237151800Y-187674095D01*
X237199419Y-187578857D01*
X237199419Y-187340761D01*
X237151800Y-187197904D01*
X237199419Y-186864571D02*
X236199419Y-186626476D01*
X236913704Y-186436000D01*
X236199419Y-186245523D01*
X237199419Y-186007428D01*
X236199419Y-185102666D02*
X236199419Y-185674095D01*
X236199419Y-185388380D02*
X237199419Y-185388380D01*
X237056561Y-185483619D01*
X236961323Y-185578857D01*
X236913704Y-185674095D01*
%TO.C,D30*%
X206203428Y-177546904D02*
X206203428Y-176746904D01*
X206012952Y-176746904D01*
X205898666Y-176785000D01*
X205822476Y-176861190D01*
X205784380Y-176937380D01*
X205746285Y-177089761D01*
X205746285Y-177204047D01*
X205784380Y-177356428D01*
X205822476Y-177432619D01*
X205898666Y-177508809D01*
X206012952Y-177546904D01*
X206203428Y-177546904D01*
X205479619Y-176746904D02*
X204984380Y-176746904D01*
X205251047Y-177051666D01*
X205136761Y-177051666D01*
X205060571Y-177089761D01*
X205022476Y-177127857D01*
X204984380Y-177204047D01*
X204984380Y-177394523D01*
X205022476Y-177470714D01*
X205060571Y-177508809D01*
X205136761Y-177546904D01*
X205365333Y-177546904D01*
X205441523Y-177508809D01*
X205479619Y-177470714D01*
X204489142Y-176746904D02*
X204412952Y-176746904D01*
X204336761Y-176785000D01*
X204298666Y-176823095D01*
X204260571Y-176899285D01*
X204222476Y-177051666D01*
X204222476Y-177242142D01*
X204260571Y-177394523D01*
X204298666Y-177470714D01*
X204336761Y-177508809D01*
X204412952Y-177546904D01*
X204489142Y-177546904D01*
X204565333Y-177508809D01*
X204603428Y-177470714D01*
X204641523Y-177394523D01*
X204679619Y-177242142D01*
X204679619Y-177051666D01*
X204641523Y-176899285D01*
X204603428Y-176823095D01*
X204565333Y-176785000D01*
X204489142Y-176746904D01*
%TO.C,D11*%
X115779428Y-139446904D02*
X115779428Y-138646904D01*
X115588952Y-138646904D01*
X115474666Y-138685000D01*
X115398476Y-138761190D01*
X115360380Y-138837380D01*
X115322285Y-138989761D01*
X115322285Y-139104047D01*
X115360380Y-139256428D01*
X115398476Y-139332619D01*
X115474666Y-139408809D01*
X115588952Y-139446904D01*
X115779428Y-139446904D01*
X114560380Y-139446904D02*
X115017523Y-139446904D01*
X114788952Y-139446904D02*
X114788952Y-138646904D01*
X114865142Y-138761190D01*
X114941333Y-138837380D01*
X115017523Y-138875476D01*
X113798476Y-139446904D02*
X114255619Y-139446904D01*
X114027047Y-139446904D02*
X114027047Y-138646904D01*
X114103238Y-138761190D01*
X114179428Y-138837380D01*
X114255619Y-138875476D01*
%TO.C,D43*%
X263353428Y-177546904D02*
X263353428Y-176746904D01*
X263162952Y-176746904D01*
X263048666Y-176785000D01*
X262972476Y-176861190D01*
X262934380Y-176937380D01*
X262896285Y-177089761D01*
X262896285Y-177204047D01*
X262934380Y-177356428D01*
X262972476Y-177432619D01*
X263048666Y-177508809D01*
X263162952Y-177546904D01*
X263353428Y-177546904D01*
X262210571Y-177013571D02*
X262210571Y-177546904D01*
X262401047Y-176708809D02*
X262591523Y-177280238D01*
X262096285Y-177280238D01*
X261867714Y-176746904D02*
X261372476Y-176746904D01*
X261639142Y-177051666D01*
X261524857Y-177051666D01*
X261448666Y-177089761D01*
X261410571Y-177127857D01*
X261372476Y-177204047D01*
X261372476Y-177394523D01*
X261410571Y-177470714D01*
X261448666Y-177508809D01*
X261524857Y-177546904D01*
X261753428Y-177546904D01*
X261829619Y-177508809D01*
X261867714Y-177470714D01*
%TO.C,D47*%
X282403428Y-177546904D02*
X282403428Y-176746904D01*
X282212952Y-176746904D01*
X282098666Y-176785000D01*
X282022476Y-176861190D01*
X281984380Y-176937380D01*
X281946285Y-177089761D01*
X281946285Y-177204047D01*
X281984380Y-177356428D01*
X282022476Y-177432619D01*
X282098666Y-177508809D01*
X282212952Y-177546904D01*
X282403428Y-177546904D01*
X281260571Y-177013571D02*
X281260571Y-177546904D01*
X281451047Y-176708809D02*
X281641523Y-177280238D01*
X281146285Y-177280238D01*
X280917714Y-176746904D02*
X280384380Y-176746904D01*
X280727238Y-177546904D01*
%TO.C,D62*%
X344379428Y-120396904D02*
X344379428Y-119596904D01*
X344188952Y-119596904D01*
X344074666Y-119635000D01*
X343998476Y-119711190D01*
X343960380Y-119787380D01*
X343922285Y-119939761D01*
X343922285Y-120054047D01*
X343960380Y-120206428D01*
X343998476Y-120282619D01*
X344074666Y-120358809D01*
X344188952Y-120396904D01*
X344379428Y-120396904D01*
X343236571Y-119596904D02*
X343388952Y-119596904D01*
X343465142Y-119635000D01*
X343503238Y-119673095D01*
X343579428Y-119787380D01*
X343617523Y-119939761D01*
X343617523Y-120244523D01*
X343579428Y-120320714D01*
X343541333Y-120358809D01*
X343465142Y-120396904D01*
X343312761Y-120396904D01*
X343236571Y-120358809D01*
X343198476Y-120320714D01*
X343160380Y-120244523D01*
X343160380Y-120054047D01*
X343198476Y-119977857D01*
X343236571Y-119939761D01*
X343312761Y-119901666D01*
X343465142Y-119901666D01*
X343541333Y-119939761D01*
X343579428Y-119977857D01*
X343617523Y-120054047D01*
X342855619Y-119673095D02*
X342817523Y-119635000D01*
X342741333Y-119596904D01*
X342550857Y-119596904D01*
X342474666Y-119635000D01*
X342436571Y-119673095D01*
X342398476Y-119749285D01*
X342398476Y-119825476D01*
X342436571Y-119939761D01*
X342893714Y-120396904D01*
X342398476Y-120396904D01*
%TO.C,D60*%
X327615428Y-177546904D02*
X327615428Y-176746904D01*
X327424952Y-176746904D01*
X327310666Y-176785000D01*
X327234476Y-176861190D01*
X327196380Y-176937380D01*
X327158285Y-177089761D01*
X327158285Y-177204047D01*
X327196380Y-177356428D01*
X327234476Y-177432619D01*
X327310666Y-177508809D01*
X327424952Y-177546904D01*
X327615428Y-177546904D01*
X326472571Y-176746904D02*
X326624952Y-176746904D01*
X326701142Y-176785000D01*
X326739238Y-176823095D01*
X326815428Y-176937380D01*
X326853523Y-177089761D01*
X326853523Y-177394523D01*
X326815428Y-177470714D01*
X326777333Y-177508809D01*
X326701142Y-177546904D01*
X326548761Y-177546904D01*
X326472571Y-177508809D01*
X326434476Y-177470714D01*
X326396380Y-177394523D01*
X326396380Y-177204047D01*
X326434476Y-177127857D01*
X326472571Y-177089761D01*
X326548761Y-177051666D01*
X326701142Y-177051666D01*
X326777333Y-177089761D01*
X326815428Y-177127857D01*
X326853523Y-177204047D01*
X325901142Y-176746904D02*
X325824952Y-176746904D01*
X325748761Y-176785000D01*
X325710666Y-176823095D01*
X325672571Y-176899285D01*
X325634476Y-177051666D01*
X325634476Y-177242142D01*
X325672571Y-177394523D01*
X325710666Y-177470714D01*
X325748761Y-177508809D01*
X325824952Y-177546904D01*
X325901142Y-177546904D01*
X325977333Y-177508809D01*
X326015428Y-177470714D01*
X326053523Y-177394523D01*
X326091619Y-177242142D01*
X326091619Y-177051666D01*
X326053523Y-176899285D01*
X326015428Y-176823095D01*
X325977333Y-176785000D01*
X325901142Y-176746904D01*
%TO.C,D46*%
X272751428Y-158496904D02*
X272751428Y-157696904D01*
X272560952Y-157696904D01*
X272446666Y-157735000D01*
X272370476Y-157811190D01*
X272332380Y-157887380D01*
X272294285Y-158039761D01*
X272294285Y-158154047D01*
X272332380Y-158306428D01*
X272370476Y-158382619D01*
X272446666Y-158458809D01*
X272560952Y-158496904D01*
X272751428Y-158496904D01*
X271608571Y-157963571D02*
X271608571Y-158496904D01*
X271799047Y-157658809D02*
X271989523Y-158230238D01*
X271494285Y-158230238D01*
X270846666Y-157696904D02*
X270999047Y-157696904D01*
X271075238Y-157735000D01*
X271113333Y-157773095D01*
X271189523Y-157887380D01*
X271227619Y-158039761D01*
X271227619Y-158344523D01*
X271189523Y-158420714D01*
X271151428Y-158458809D01*
X271075238Y-158496904D01*
X270922857Y-158496904D01*
X270846666Y-158458809D01*
X270808571Y-158420714D01*
X270770476Y-158344523D01*
X270770476Y-158154047D01*
X270808571Y-158077857D01*
X270846666Y-158039761D01*
X270922857Y-158001666D01*
X271075238Y-158001666D01*
X271151428Y-158039761D01*
X271189523Y-158077857D01*
X271227619Y-158154047D01*
%TO.C,C4*%
X165996687Y-181239610D02*
X165996687Y-181172267D01*
X165929343Y-181037580D01*
X165862000Y-180970236D01*
X165727312Y-180902893D01*
X165592625Y-180902893D01*
X165491610Y-180936564D01*
X165323251Y-181037580D01*
X165222236Y-181138595D01*
X165121221Y-181306954D01*
X165087549Y-181407969D01*
X165087549Y-181542656D01*
X165154893Y-181677343D01*
X165222236Y-181744687D01*
X165356923Y-181812030D01*
X165424267Y-181812030D01*
X166198717Y-182249763D02*
X166670122Y-181778358D01*
X165760984Y-182350778D02*
X166097702Y-181677343D01*
X166535435Y-182115076D01*
%TO.C,D22*%
X168103428Y-177546904D02*
X168103428Y-176746904D01*
X167912952Y-176746904D01*
X167798666Y-176785000D01*
X167722476Y-176861190D01*
X167684380Y-176937380D01*
X167646285Y-177089761D01*
X167646285Y-177204047D01*
X167684380Y-177356428D01*
X167722476Y-177432619D01*
X167798666Y-177508809D01*
X167912952Y-177546904D01*
X168103428Y-177546904D01*
X167341523Y-176823095D02*
X167303428Y-176785000D01*
X167227238Y-176746904D01*
X167036761Y-176746904D01*
X166960571Y-176785000D01*
X166922476Y-176823095D01*
X166884380Y-176899285D01*
X166884380Y-176975476D01*
X166922476Y-177089761D01*
X167379619Y-177546904D01*
X166884380Y-177546904D01*
X166579619Y-176823095D02*
X166541523Y-176785000D01*
X166465333Y-176746904D01*
X166274857Y-176746904D01*
X166198666Y-176785000D01*
X166160571Y-176823095D01*
X166122476Y-176899285D01*
X166122476Y-176975476D01*
X166160571Y-177089761D01*
X166617714Y-177546904D01*
X166122476Y-177546904D01*
%TO.C,C7*%
X181675066Y-196855141D02*
X181722685Y-196902760D01*
X181865542Y-196950379D01*
X181960780Y-196950379D01*
X182103638Y-196902760D01*
X182198876Y-196807522D01*
X182246495Y-196712284D01*
X182294114Y-196521808D01*
X182294114Y-196378951D01*
X182246495Y-196188475D01*
X182198876Y-196093237D01*
X182103638Y-195997999D01*
X181960780Y-195950379D01*
X181865542Y-195950379D01*
X181722685Y-195997999D01*
X181675066Y-196045618D01*
X181341733Y-195950379D02*
X180675066Y-195950379D01*
X181103638Y-196950379D01*
%TO.C,D26*%
X187153428Y-177546904D02*
X187153428Y-176746904D01*
X186962952Y-176746904D01*
X186848666Y-176785000D01*
X186772476Y-176861190D01*
X186734380Y-176937380D01*
X186696285Y-177089761D01*
X186696285Y-177204047D01*
X186734380Y-177356428D01*
X186772476Y-177432619D01*
X186848666Y-177508809D01*
X186962952Y-177546904D01*
X187153428Y-177546904D01*
X186391523Y-176823095D02*
X186353428Y-176785000D01*
X186277238Y-176746904D01*
X186086761Y-176746904D01*
X186010571Y-176785000D01*
X185972476Y-176823095D01*
X185934380Y-176899285D01*
X185934380Y-176975476D01*
X185972476Y-177089761D01*
X186429619Y-177546904D01*
X185934380Y-177546904D01*
X185248666Y-176746904D02*
X185401047Y-176746904D01*
X185477238Y-176785000D01*
X185515333Y-176823095D01*
X185591523Y-176937380D01*
X185629619Y-177089761D01*
X185629619Y-177394523D01*
X185591523Y-177470714D01*
X185553428Y-177508809D01*
X185477238Y-177546904D01*
X185324857Y-177546904D01*
X185248666Y-177508809D01*
X185210571Y-177470714D01*
X185172476Y-177394523D01*
X185172476Y-177204047D01*
X185210571Y-177127857D01*
X185248666Y-177089761D01*
X185324857Y-177051666D01*
X185477238Y-177051666D01*
X185553428Y-177089761D01*
X185591523Y-177127857D01*
X185629619Y-177204047D01*
%TO.C,D28*%
X191979428Y-139446904D02*
X191979428Y-138646904D01*
X191788952Y-138646904D01*
X191674666Y-138685000D01*
X191598476Y-138761190D01*
X191560380Y-138837380D01*
X191522285Y-138989761D01*
X191522285Y-139104047D01*
X191560380Y-139256428D01*
X191598476Y-139332619D01*
X191674666Y-139408809D01*
X191788952Y-139446904D01*
X191979428Y-139446904D01*
X191217523Y-138723095D02*
X191179428Y-138685000D01*
X191103238Y-138646904D01*
X190912761Y-138646904D01*
X190836571Y-138685000D01*
X190798476Y-138723095D01*
X190760380Y-138799285D01*
X190760380Y-138875476D01*
X190798476Y-138989761D01*
X191255619Y-139446904D01*
X190760380Y-139446904D01*
X190303238Y-138989761D02*
X190379428Y-138951666D01*
X190417523Y-138913571D01*
X190455619Y-138837380D01*
X190455619Y-138799285D01*
X190417523Y-138723095D01*
X190379428Y-138685000D01*
X190303238Y-138646904D01*
X190150857Y-138646904D01*
X190074666Y-138685000D01*
X190036571Y-138723095D01*
X189998476Y-138799285D01*
X189998476Y-138837380D01*
X190036571Y-138913571D01*
X190074666Y-138951666D01*
X190150857Y-138989761D01*
X190303238Y-138989761D01*
X190379428Y-139027857D01*
X190417523Y-139065952D01*
X190455619Y-139142142D01*
X190455619Y-139294523D01*
X190417523Y-139370714D01*
X190379428Y-139408809D01*
X190303238Y-139446904D01*
X190150857Y-139446904D01*
X190074666Y-139408809D01*
X190036571Y-139370714D01*
X189998476Y-139294523D01*
X189998476Y-139142142D01*
X190036571Y-139065952D01*
X190074666Y-139027857D01*
X190150857Y-138989761D01*
%TO.C,D23*%
X182327428Y-120396904D02*
X182327428Y-119596904D01*
X182136952Y-119596904D01*
X182022666Y-119635000D01*
X181946476Y-119711190D01*
X181908380Y-119787380D01*
X181870285Y-119939761D01*
X181870285Y-120054047D01*
X181908380Y-120206428D01*
X181946476Y-120282619D01*
X182022666Y-120358809D01*
X182136952Y-120396904D01*
X182327428Y-120396904D01*
X181565523Y-119673095D02*
X181527428Y-119635000D01*
X181451238Y-119596904D01*
X181260761Y-119596904D01*
X181184571Y-119635000D01*
X181146476Y-119673095D01*
X181108380Y-119749285D01*
X181108380Y-119825476D01*
X181146476Y-119939761D01*
X181603619Y-120396904D01*
X181108380Y-120396904D01*
X180841714Y-119596904D02*
X180346476Y-119596904D01*
X180613142Y-119901666D01*
X180498857Y-119901666D01*
X180422666Y-119939761D01*
X180384571Y-119977857D01*
X180346476Y-120054047D01*
X180346476Y-120244523D01*
X180384571Y-120320714D01*
X180422666Y-120358809D01*
X180498857Y-120396904D01*
X180727428Y-120396904D01*
X180803619Y-120358809D01*
X180841714Y-120320714D01*
%TO.C,D31*%
X208489428Y-196596904D02*
X208489428Y-195796904D01*
X208298952Y-195796904D01*
X208184666Y-195835000D01*
X208108476Y-195911190D01*
X208070380Y-195987380D01*
X208032285Y-196139761D01*
X208032285Y-196254047D01*
X208070380Y-196406428D01*
X208108476Y-196482619D01*
X208184666Y-196558809D01*
X208298952Y-196596904D01*
X208489428Y-196596904D01*
X207765619Y-195796904D02*
X207270380Y-195796904D01*
X207537047Y-196101666D01*
X207422761Y-196101666D01*
X207346571Y-196139761D01*
X207308476Y-196177857D01*
X207270380Y-196254047D01*
X207270380Y-196444523D01*
X207308476Y-196520714D01*
X207346571Y-196558809D01*
X207422761Y-196596904D01*
X207651333Y-196596904D01*
X207727523Y-196558809D01*
X207765619Y-196520714D01*
X206508476Y-196596904D02*
X206965619Y-196596904D01*
X206737047Y-196596904D02*
X206737047Y-195796904D01*
X206813238Y-195911190D01*
X206889428Y-195987380D01*
X206965619Y-196025476D01*
%TO.C,D20*%
X153879428Y-139446904D02*
X153879428Y-138646904D01*
X153688952Y-138646904D01*
X153574666Y-138685000D01*
X153498476Y-138761190D01*
X153460380Y-138837380D01*
X153422285Y-138989761D01*
X153422285Y-139104047D01*
X153460380Y-139256428D01*
X153498476Y-139332619D01*
X153574666Y-139408809D01*
X153688952Y-139446904D01*
X153879428Y-139446904D01*
X153117523Y-138723095D02*
X153079428Y-138685000D01*
X153003238Y-138646904D01*
X152812761Y-138646904D01*
X152736571Y-138685000D01*
X152698476Y-138723095D01*
X152660380Y-138799285D01*
X152660380Y-138875476D01*
X152698476Y-138989761D01*
X153155619Y-139446904D01*
X152660380Y-139446904D01*
X152165142Y-138646904D02*
X152088952Y-138646904D01*
X152012761Y-138685000D01*
X151974666Y-138723095D01*
X151936571Y-138799285D01*
X151898476Y-138951666D01*
X151898476Y-139142142D01*
X151936571Y-139294523D01*
X151974666Y-139370714D01*
X152012761Y-139408809D01*
X152088952Y-139446904D01*
X152165142Y-139446904D01*
X152241333Y-139408809D01*
X152279428Y-139370714D01*
X152317523Y-139294523D01*
X152355619Y-139142142D01*
X152355619Y-138951666D01*
X152317523Y-138799285D01*
X152279428Y-138723095D01*
X152241333Y-138685000D01*
X152165142Y-138646904D01*
%TO.C,D15*%
X134829428Y-139446904D02*
X134829428Y-138646904D01*
X134638952Y-138646904D01*
X134524666Y-138685000D01*
X134448476Y-138761190D01*
X134410380Y-138837380D01*
X134372285Y-138989761D01*
X134372285Y-139104047D01*
X134410380Y-139256428D01*
X134448476Y-139332619D01*
X134524666Y-139408809D01*
X134638952Y-139446904D01*
X134829428Y-139446904D01*
X133610380Y-139446904D02*
X134067523Y-139446904D01*
X133838952Y-139446904D02*
X133838952Y-138646904D01*
X133915142Y-138761190D01*
X133991333Y-138837380D01*
X134067523Y-138875476D01*
X132886571Y-138646904D02*
X133267523Y-138646904D01*
X133305619Y-139027857D01*
X133267523Y-138989761D01*
X133191333Y-138951666D01*
X133000857Y-138951666D01*
X132924666Y-138989761D01*
X132886571Y-139027857D01*
X132848476Y-139104047D01*
X132848476Y-139294523D01*
X132886571Y-139370714D01*
X132924666Y-139408809D01*
X133000857Y-139446904D01*
X133191333Y-139446904D01*
X133267523Y-139408809D01*
X133305619Y-139370714D01*
%TO.C,D66*%
X372827428Y-120396904D02*
X372827428Y-119596904D01*
X372636952Y-119596904D01*
X372522666Y-119635000D01*
X372446476Y-119711190D01*
X372408380Y-119787380D01*
X372370285Y-119939761D01*
X372370285Y-120054047D01*
X372408380Y-120206428D01*
X372446476Y-120282619D01*
X372522666Y-120358809D01*
X372636952Y-120396904D01*
X372827428Y-120396904D01*
X371684571Y-119596904D02*
X371836952Y-119596904D01*
X371913142Y-119635000D01*
X371951238Y-119673095D01*
X372027428Y-119787380D01*
X372065523Y-119939761D01*
X372065523Y-120244523D01*
X372027428Y-120320714D01*
X371989333Y-120358809D01*
X371913142Y-120396904D01*
X371760761Y-120396904D01*
X371684571Y-120358809D01*
X371646476Y-120320714D01*
X371608380Y-120244523D01*
X371608380Y-120054047D01*
X371646476Y-119977857D01*
X371684571Y-119939761D01*
X371760761Y-119901666D01*
X371913142Y-119901666D01*
X371989333Y-119939761D01*
X372027428Y-119977857D01*
X372065523Y-120054047D01*
X370922666Y-119596904D02*
X371075047Y-119596904D01*
X371151238Y-119635000D01*
X371189333Y-119673095D01*
X371265523Y-119787380D01*
X371303619Y-119939761D01*
X371303619Y-120244523D01*
X371265523Y-120320714D01*
X371227428Y-120358809D01*
X371151238Y-120396904D01*
X370998857Y-120396904D01*
X370922666Y-120358809D01*
X370884571Y-120320714D01*
X370846476Y-120244523D01*
X370846476Y-120054047D01*
X370884571Y-119977857D01*
X370922666Y-119939761D01*
X370998857Y-119901666D01*
X371151238Y-119901666D01*
X371227428Y-119939761D01*
X371265523Y-119977857D01*
X371303619Y-120054047D01*
%TO.C,D52*%
X301453428Y-177546904D02*
X301453428Y-176746904D01*
X301262952Y-176746904D01*
X301148666Y-176785000D01*
X301072476Y-176861190D01*
X301034380Y-176937380D01*
X300996285Y-177089761D01*
X300996285Y-177204047D01*
X301034380Y-177356428D01*
X301072476Y-177432619D01*
X301148666Y-177508809D01*
X301262952Y-177546904D01*
X301453428Y-177546904D01*
X300272476Y-176746904D02*
X300653428Y-176746904D01*
X300691523Y-177127857D01*
X300653428Y-177089761D01*
X300577238Y-177051666D01*
X300386761Y-177051666D01*
X300310571Y-177089761D01*
X300272476Y-177127857D01*
X300234380Y-177204047D01*
X300234380Y-177394523D01*
X300272476Y-177470714D01*
X300310571Y-177508809D01*
X300386761Y-177546904D01*
X300577238Y-177546904D01*
X300653428Y-177508809D01*
X300691523Y-177470714D01*
X299929619Y-176823095D02*
X299891523Y-176785000D01*
X299815333Y-176746904D01*
X299624857Y-176746904D01*
X299548666Y-176785000D01*
X299510571Y-176823095D01*
X299472476Y-176899285D01*
X299472476Y-176975476D01*
X299510571Y-177089761D01*
X299967714Y-177546904D01*
X299472476Y-177546904D01*
%TO.C,D45*%
X268179428Y-139446904D02*
X268179428Y-138646904D01*
X267988952Y-138646904D01*
X267874666Y-138685000D01*
X267798476Y-138761190D01*
X267760380Y-138837380D01*
X267722285Y-138989761D01*
X267722285Y-139104047D01*
X267760380Y-139256428D01*
X267798476Y-139332619D01*
X267874666Y-139408809D01*
X267988952Y-139446904D01*
X268179428Y-139446904D01*
X267036571Y-138913571D02*
X267036571Y-139446904D01*
X267227047Y-138608809D02*
X267417523Y-139180238D01*
X266922285Y-139180238D01*
X266236571Y-138646904D02*
X266617523Y-138646904D01*
X266655619Y-139027857D01*
X266617523Y-138989761D01*
X266541333Y-138951666D01*
X266350857Y-138951666D01*
X266274666Y-138989761D01*
X266236571Y-139027857D01*
X266198476Y-139104047D01*
X266198476Y-139294523D01*
X266236571Y-139370714D01*
X266274666Y-139408809D01*
X266350857Y-139446904D01*
X266541333Y-139446904D01*
X266617523Y-139408809D01*
X266655619Y-139370714D01*
%TO.C,R3*%
X103544666Y-126436380D02*
X103878000Y-125960190D01*
X104116095Y-126436380D02*
X104116095Y-125436380D01*
X103735142Y-125436380D01*
X103639904Y-125484000D01*
X103592285Y-125531619D01*
X103544666Y-125626857D01*
X103544666Y-125769714D01*
X103592285Y-125864952D01*
X103639904Y-125912571D01*
X103735142Y-125960190D01*
X104116095Y-125960190D01*
X103211333Y-125436380D02*
X102592285Y-125436380D01*
X102925619Y-125817333D01*
X102782761Y-125817333D01*
X102687523Y-125864952D01*
X102639904Y-125912571D01*
X102592285Y-126007809D01*
X102592285Y-126245904D01*
X102639904Y-126341142D01*
X102687523Y-126388761D01*
X102782761Y-126436380D01*
X103068476Y-126436380D01*
X103163714Y-126388761D01*
X103211333Y-126341142D01*
%TO.C,D17*%
X149053428Y-177546904D02*
X149053428Y-176746904D01*
X148862952Y-176746904D01*
X148748666Y-176785000D01*
X148672476Y-176861190D01*
X148634380Y-176937380D01*
X148596285Y-177089761D01*
X148596285Y-177204047D01*
X148634380Y-177356428D01*
X148672476Y-177432619D01*
X148748666Y-177508809D01*
X148862952Y-177546904D01*
X149053428Y-177546904D01*
X147834380Y-177546904D02*
X148291523Y-177546904D01*
X148062952Y-177546904D02*
X148062952Y-176746904D01*
X148139142Y-176861190D01*
X148215333Y-176937380D01*
X148291523Y-176975476D01*
X147567714Y-176746904D02*
X147034380Y-176746904D01*
X147377238Y-177546904D01*
%TO.C,D32*%
X220427428Y-120396904D02*
X220427428Y-119596904D01*
X220236952Y-119596904D01*
X220122666Y-119635000D01*
X220046476Y-119711190D01*
X220008380Y-119787380D01*
X219970285Y-119939761D01*
X219970285Y-120054047D01*
X220008380Y-120206428D01*
X220046476Y-120282619D01*
X220122666Y-120358809D01*
X220236952Y-120396904D01*
X220427428Y-120396904D01*
X219703619Y-119596904D02*
X219208380Y-119596904D01*
X219475047Y-119901666D01*
X219360761Y-119901666D01*
X219284571Y-119939761D01*
X219246476Y-119977857D01*
X219208380Y-120054047D01*
X219208380Y-120244523D01*
X219246476Y-120320714D01*
X219284571Y-120358809D01*
X219360761Y-120396904D01*
X219589333Y-120396904D01*
X219665523Y-120358809D01*
X219703619Y-120320714D01*
X218903619Y-119673095D02*
X218865523Y-119635000D01*
X218789333Y-119596904D01*
X218598857Y-119596904D01*
X218522666Y-119635000D01*
X218484571Y-119673095D01*
X218446476Y-119749285D01*
X218446476Y-119825476D01*
X218484571Y-119939761D01*
X218941714Y-120396904D01*
X218446476Y-120396904D01*
%TO.C,*%
G36*
X377699301Y-120615173D02*
G01*
X377663993Y-120834665D01*
X377652784Y-120904345D01*
X377584566Y-121406508D01*
X377531185Y-121901945D01*
X377530344Y-121912295D01*
X377489011Y-122420663D01*
X377468666Y-122757010D01*
X377454411Y-122992670D01*
X377423753Y-123647974D01*
X377414389Y-123862952D01*
X377398751Y-124193176D01*
X377394450Y-124284011D01*
X377374485Y-124662098D01*
X377372291Y-124698810D01*
X377355727Y-124975911D01*
X377339407Y-125204144D01*
X377326758Y-125325493D01*
X377320715Y-125355467D01*
X377246943Y-125512488D01*
X377135007Y-125582432D01*
X377013307Y-125545376D01*
X376961322Y-125519405D01*
X376803902Y-125475305D01*
X376597267Y-125438832D01*
X376443981Y-125420176D01*
X376322755Y-125417092D01*
X376280766Y-125446393D01*
X376290568Y-125514885D01*
X376305092Y-125564454D01*
X376408732Y-125932557D01*
X376478059Y-126219561D01*
X376519423Y-126461595D01*
X376539171Y-126694791D01*
X376543651Y-126955281D01*
X376542585Y-127057104D01*
X376522462Y-127373971D01*
X376504711Y-127451133D01*
X376464500Y-127625926D01*
X376352362Y-127848253D01*
X376169716Y-128076236D01*
X375900225Y-128345163D01*
X375868787Y-128374913D01*
X375681832Y-128554792D01*
X375573916Y-128672355D01*
X375532165Y-128750011D01*
X375543703Y-128810168D01*
X375595655Y-128875235D01*
X375631236Y-128911725D01*
X375791011Y-129046101D01*
X375993525Y-129190044D01*
X376203233Y-129320904D01*
X376384587Y-129416030D01*
X376502039Y-129452772D01*
X376512718Y-129451953D01*
X376629989Y-129397488D01*
X376783415Y-129281328D01*
X376937256Y-129136661D01*
X377055770Y-128996674D01*
X377103217Y-128894552D01*
X377110581Y-128863963D01*
X377191483Y-128814881D01*
X377323607Y-128813351D01*
X377459061Y-128854993D01*
X377549950Y-128935423D01*
X377575103Y-128984114D01*
X377605111Y-129076294D01*
X377584853Y-129164867D01*
X377501609Y-129282016D01*
X377342661Y-129459922D01*
X377221256Y-129593454D01*
X377040226Y-129796320D01*
X376898306Y-129959569D01*
X376725466Y-130163429D01*
X376353104Y-129957372D01*
X376178320Y-129856759D01*
X375913410Y-129693612D01*
X375692106Y-129546019D01*
X375577111Y-129468088D01*
X375395438Y-129359009D01*
X375265633Y-129298270D01*
X375259984Y-129296442D01*
X375117082Y-129218337D01*
X374966976Y-129094997D01*
X374937062Y-129066178D01*
X374792742Y-128973537D01*
X374642347Y-128975290D01*
X374603849Y-128987857D01*
X374546706Y-129026335D01*
X374491186Y-129101750D01*
X374429595Y-129231289D01*
X374354238Y-129432140D01*
X374257421Y-129721492D01*
X374131448Y-130116532D01*
X374046873Y-130387948D01*
X373926350Y-130785626D01*
X373817166Y-131157970D01*
X373728720Y-131472747D01*
X373670411Y-131697721D01*
X373661014Y-131736772D01*
X373597438Y-131974426D01*
X373536908Y-132162091D01*
X373491388Y-132262054D01*
X373423408Y-132323710D01*
X373307878Y-132338493D01*
X373204101Y-132265878D01*
X373129825Y-132130679D01*
X373102795Y-131957710D01*
X373140757Y-131771784D01*
X373166934Y-131700422D01*
X373229016Y-131507528D01*
X373306492Y-131248837D01*
X373388456Y-130960095D01*
X373420328Y-130846531D01*
X373531597Y-130468502D01*
X373652821Y-130077395D01*
X373762909Y-129741834D01*
X373810814Y-129599690D01*
X373887615Y-129361231D01*
X373940560Y-129182309D01*
X373960288Y-129093660D01*
X373917707Y-129056541D01*
X373774390Y-129014781D01*
X373559404Y-128983416D01*
X373414526Y-128965650D01*
X372952340Y-128861658D01*
X372446906Y-128677322D01*
X371876788Y-128405275D01*
X371708985Y-128312697D01*
X371419595Y-128122232D01*
X371129685Y-127884360D01*
X370802419Y-127570457D01*
X370784572Y-127552421D01*
X370572465Y-127333693D01*
X370399412Y-127147438D01*
X370282818Y-127012883D01*
X370240086Y-126949253D01*
X370222855Y-126867522D01*
X370175206Y-126724821D01*
X370110327Y-126554175D01*
X369827178Y-126869105D01*
X369793679Y-126905703D01*
X369594425Y-127089102D01*
X369384726Y-127208222D01*
X369136213Y-127270835D01*
X368820519Y-127284716D01*
X368409276Y-127257637D01*
X368280796Y-127243975D01*
X367935327Y-127186550D01*
X367705611Y-127107274D01*
X367582851Y-127002112D01*
X367558252Y-126867026D01*
X367570467Y-126813406D01*
X367604666Y-126772251D01*
X367681386Y-126746237D01*
X367822068Y-126731558D01*
X368048151Y-126724407D01*
X368381076Y-126720981D01*
X368665791Y-126715078D01*
X368971100Y-126698325D01*
X369197995Y-126673110D01*
X369321577Y-126641536D01*
X369371981Y-126601430D01*
X369479513Y-126455734D01*
X369572061Y-126262468D01*
X369612719Y-126157051D01*
X369688161Y-125982326D01*
X369743822Y-125879335D01*
X369749761Y-125868362D01*
X369757813Y-125741836D01*
X369728136Y-125509578D01*
X369662333Y-125185260D01*
X369655654Y-125155741D01*
X369583819Y-124785453D01*
X369557500Y-124494080D01*
X370036425Y-124494080D01*
X370077946Y-124971717D01*
X370172186Y-125411862D01*
X370361605Y-125971278D01*
X370581740Y-126448553D01*
X370842335Y-126852835D01*
X371158648Y-127211969D01*
X371279613Y-127326743D01*
X371559151Y-127562884D01*
X371849023Y-127775481D01*
X372123799Y-127947912D01*
X372358047Y-128063559D01*
X372526337Y-128105802D01*
X372615227Y-128118999D01*
X372688485Y-128170948D01*
X372700815Y-128184541D01*
X372807937Y-128235330D01*
X372998830Y-128298456D01*
X373243095Y-128363372D01*
X373413528Y-128403860D01*
X373709662Y-128467923D01*
X373915595Y-128491151D01*
X374055091Y-128466040D01*
X374151914Y-128385086D01*
X374229829Y-128240782D01*
X374312601Y-128025625D01*
X374379143Y-127846276D01*
X374480295Y-127587388D01*
X374558026Y-127420063D01*
X374624177Y-127324752D01*
X374690590Y-127281902D01*
X374769109Y-127271963D01*
X374892321Y-127293801D01*
X374970150Y-127388712D01*
X374940260Y-127550681D01*
X374871836Y-127721744D01*
X374800483Y-127929353D01*
X374740654Y-128128809D01*
X374703505Y-128282785D01*
X374700191Y-128353954D01*
X374765168Y-128347763D01*
X374916438Y-128302595D01*
X375119616Y-128227998D01*
X375459976Y-128054023D01*
X375802612Y-127762432D01*
X376094493Y-127451133D01*
X376057265Y-126768240D01*
X376056216Y-126749496D01*
X376023694Y-126366517D01*
X375973895Y-126007957D01*
X375911987Y-125699771D01*
X375843140Y-125467913D01*
X375772522Y-125338339D01*
X375770667Y-125336787D01*
X375680945Y-125313040D01*
X375491435Y-125288371D01*
X375228714Y-125265605D01*
X374919359Y-125247572D01*
X374913306Y-125247296D01*
X374593598Y-125230924D01*
X374310519Y-125213179D01*
X374094587Y-125196182D01*
X373976323Y-125182052D01*
X373883363Y-125141700D01*
X373835185Y-125025489D01*
X373892944Y-124855921D01*
X376312133Y-124855921D01*
X376334297Y-124931282D01*
X376349053Y-124937799D01*
X376462910Y-124967269D01*
X376636021Y-124999472D01*
X376717650Y-125011956D01*
X376842173Y-125016010D01*
X376897607Y-124964854D01*
X376924338Y-124835521D01*
X376927040Y-124816892D01*
X376935222Y-124698810D01*
X376898601Y-124630093D01*
X376789827Y-124587914D01*
X376581551Y-124549451D01*
X376549637Y-124544267D01*
X376410918Y-124533699D01*
X376348417Y-124579599D01*
X376334356Y-124642165D01*
X376319644Y-124707632D01*
X376319090Y-124711468D01*
X376312133Y-124855921D01*
X373892944Y-124855921D01*
X373895044Y-124849755D01*
X373898137Y-124843696D01*
X373921619Y-124770448D01*
X374392493Y-124770448D01*
X375050692Y-124770448D01*
X375050692Y-124743624D01*
X375371399Y-124743624D01*
X375378388Y-124770448D01*
X375379536Y-124774856D01*
X375465705Y-124820571D01*
X375660035Y-124834590D01*
X375768926Y-124833502D01*
X375891994Y-124816532D01*
X375940305Y-124760490D01*
X375948672Y-124642165D01*
X375948427Y-124609137D01*
X375931366Y-124501468D01*
X375860616Y-124457894D01*
X375698968Y-124449741D01*
X375513288Y-124473394D01*
X375403407Y-124565073D01*
X375371399Y-124743624D01*
X375050692Y-124743624D01*
X375050692Y-124552690D01*
X375049713Y-124483381D01*
X375027654Y-124379537D01*
X374949012Y-124331303D01*
X374778091Y-124306432D01*
X374707370Y-124299570D01*
X374555888Y-124289303D01*
X374486712Y-124291748D01*
X374483394Y-124296599D01*
X374459432Y-124382840D01*
X374430213Y-124538006D01*
X374392493Y-124770448D01*
X373921619Y-124770448D01*
X373935359Y-124727589D01*
X373987200Y-124516312D01*
X374047219Y-124237847D01*
X374055903Y-124193176D01*
X376397662Y-124193176D01*
X376974934Y-124193176D01*
X376974934Y-123939516D01*
X376974706Y-123895092D01*
X376959518Y-123750965D01*
X376897012Y-123681986D01*
X376754601Y-123644522D01*
X376649216Y-123628498D01*
X376493022Y-123642209D01*
X376417391Y-123739361D01*
X376410433Y-123810263D01*
X376397662Y-123940395D01*
X376397662Y-124193176D01*
X374055903Y-124193176D01*
X374108977Y-123920177D01*
X374113444Y-123895949D01*
X374122895Y-123843747D01*
X374554849Y-123843747D01*
X374555717Y-123908425D01*
X374567312Y-123912215D01*
X374668262Y-123932084D01*
X374835493Y-123959435D01*
X374912030Y-123969193D01*
X374974597Y-123964608D01*
X375508969Y-123964608D01*
X375556785Y-124045352D01*
X375696709Y-124088263D01*
X375831206Y-124113785D01*
X375947656Y-124120940D01*
X376003292Y-124081819D01*
X376036527Y-123984716D01*
X376075704Y-123810263D01*
X376067667Y-123682161D01*
X375982398Y-123629444D01*
X375804353Y-123628250D01*
X375741418Y-123633262D01*
X375599457Y-123659128D01*
X375583357Y-123674798D01*
X375535902Y-123720986D01*
X375512302Y-123847732D01*
X375508969Y-123964608D01*
X374974597Y-123964608D01*
X375076970Y-123957106D01*
X375157633Y-123865868D01*
X375178975Y-123674798D01*
X375172505Y-123623589D01*
X375110118Y-123566724D01*
X374954480Y-123551761D01*
X374932487Y-123551686D01*
X374774618Y-123546521D01*
X374686493Y-123535726D01*
X374678900Y-123536915D01*
X374635978Y-123602311D01*
X374588115Y-123723149D01*
X374554849Y-123843747D01*
X374122895Y-123843747D01*
X374172984Y-123567089D01*
X374209552Y-123337567D01*
X374217128Y-123256109D01*
X376477959Y-123256109D01*
X376545386Y-123288629D01*
X376710888Y-123295196D01*
X376721073Y-123295183D01*
X376885440Y-123285141D01*
X376958678Y-123243399D01*
X376975810Y-123150878D01*
X376982661Y-123048000D01*
X377015362Y-122862241D01*
X377022303Y-122834714D01*
X377022920Y-122757010D01*
X376955493Y-122724490D01*
X376789991Y-122717923D01*
X376779806Y-122717935D01*
X376615439Y-122727978D01*
X376542201Y-122769720D01*
X376525069Y-122862241D01*
X376518218Y-122965119D01*
X376485517Y-123150878D01*
X376478576Y-123178404D01*
X376478158Y-123231054D01*
X376477959Y-123256109D01*
X374217128Y-123256109D01*
X374223998Y-123182238D01*
X374217171Y-123075955D01*
X374189919Y-122993574D01*
X374188211Y-122990524D01*
X374730967Y-122990524D01*
X374730984Y-123011167D01*
X374747180Y-123115080D01*
X374817822Y-123158302D01*
X374979688Y-123166913D01*
X374984059Y-123166906D01*
X375179327Y-123138573D01*
X375199337Y-123118807D01*
X375628840Y-123118807D01*
X375639467Y-123172441D01*
X375713679Y-123218595D01*
X375884530Y-123231054D01*
X376141096Y-123231054D01*
X376141096Y-122974489D01*
X376140633Y-122902880D01*
X376124819Y-122775490D01*
X376063055Y-122726156D01*
X375924082Y-122717923D01*
X375888355Y-122718870D01*
X375735937Y-122763852D01*
X375681734Y-122847977D01*
X375654297Y-122890560D01*
X375628840Y-123118807D01*
X375199337Y-123118807D01*
X375279203Y-123039913D01*
X375307258Y-122847977D01*
X375303046Y-122812975D01*
X375235758Y-122741635D01*
X375066727Y-122702809D01*
X375017839Y-122697723D01*
X374842978Y-122710470D01*
X374755554Y-122801044D01*
X374730967Y-122990524D01*
X374188211Y-122990524D01*
X374143093Y-122909950D01*
X374035888Y-122780727D01*
X373873838Y-122717923D01*
X373819808Y-122709786D01*
X373655618Y-122641174D01*
X373479227Y-122525499D01*
X373397606Y-122461602D01*
X373273799Y-122369336D01*
X373215721Y-122333075D01*
X373181096Y-122374320D01*
X373113405Y-122501647D01*
X373031809Y-122678124D01*
X372952937Y-122865779D01*
X372893419Y-123026641D01*
X372869884Y-123122739D01*
X372823488Y-123220408D01*
X372708577Y-123316758D01*
X372582191Y-123359337D01*
X372573621Y-123355726D01*
X372518506Y-123279240D01*
X372448732Y-123134605D01*
X372406791Y-123023964D01*
X372391293Y-122909191D01*
X372425688Y-122781609D01*
X372516146Y-122591535D01*
X372594447Y-122434044D01*
X372667451Y-122254317D01*
X372666427Y-122145537D01*
X372577870Y-122091941D01*
X372388279Y-122077769D01*
X372084151Y-122087257D01*
X371776337Y-122107130D01*
X371527439Y-122144386D01*
X371306504Y-122209562D01*
X371062050Y-122314086D01*
X371013497Y-122337295D01*
X370746547Y-122492495D01*
X370541932Y-122678753D01*
X370371287Y-122927797D01*
X370206245Y-123271358D01*
X370108989Y-123586469D01*
X370046985Y-124018987D01*
X370036425Y-124494080D01*
X369557500Y-124494080D01*
X369556807Y-124486412D01*
X369573569Y-124213244D01*
X369633054Y-123920575D01*
X369646835Y-123789894D01*
X369594045Y-123749099D01*
X369473398Y-123812868D01*
X369287586Y-123980729D01*
X369193622Y-124067911D01*
X368985249Y-124229261D01*
X368762332Y-124372379D01*
X368561520Y-124474755D01*
X368419463Y-124513883D01*
X368325904Y-124498613D01*
X368138512Y-124451345D01*
X367900153Y-124382978D01*
X367648033Y-124304688D01*
X367419360Y-124227650D01*
X367251340Y-124163038D01*
X367244481Y-124159912D01*
X367101194Y-124062572D01*
X366919933Y-123899007D01*
X366738209Y-123702857D01*
X366721523Y-123683084D01*
X366554312Y-123489182D01*
X366409239Y-123327782D01*
X366316078Y-123232089D01*
X366232116Y-123145422D01*
X366072547Y-122951206D01*
X365894328Y-122711154D01*
X365722805Y-122461237D01*
X365583324Y-122237422D01*
X365501228Y-122075679D01*
X365494867Y-122058912D01*
X365422480Y-121871484D01*
X365363481Y-121723731D01*
X365361516Y-121718942D01*
X365297790Y-121502005D01*
X365256344Y-121210234D01*
X365235556Y-120826208D01*
X365235310Y-120756941D01*
X365677454Y-120756941D01*
X365714861Y-121178529D01*
X365727135Y-121251782D01*
X365852991Y-121687485D01*
X366061589Y-122144888D01*
X366331788Y-122583342D01*
X366642449Y-122962198D01*
X366718556Y-123042104D01*
X366879509Y-123219193D01*
X366991202Y-123353914D01*
X367033015Y-123421992D01*
X367044213Y-123453436D01*
X367145909Y-123544391D01*
X367330461Y-123648987D01*
X367569531Y-123752448D01*
X367834783Y-123840001D01*
X368015284Y-123889698D01*
X368218575Y-123944602D01*
X368347916Y-123978226D01*
X368355174Y-123979796D01*
X368512861Y-123955592D01*
X368707145Y-123849866D01*
X368904185Y-123685680D01*
X369070139Y-123486094D01*
X369173250Y-123332997D01*
X369293179Y-123171310D01*
X369379268Y-123092124D01*
X369451912Y-123079067D01*
X369531507Y-123115769D01*
X369616422Y-123158275D01*
X369685438Y-123164485D01*
X369725697Y-123112994D01*
X369819321Y-122978741D01*
X369940695Y-122797235D01*
X370069867Y-122599158D01*
X370186883Y-122415194D01*
X370271789Y-122276025D01*
X370304633Y-122212334D01*
X370305698Y-122207661D01*
X370368111Y-122147076D01*
X370497057Y-122063457D01*
X370515740Y-122052555D01*
X370638757Y-121964132D01*
X370689076Y-121897012D01*
X370679316Y-121861742D01*
X370642076Y-121790289D01*
X370568313Y-121669798D01*
X370449013Y-121486084D01*
X370275159Y-121224963D01*
X370037736Y-120872253D01*
X370008847Y-120831442D01*
X369848675Y-120636727D01*
X369634857Y-120407296D01*
X369394813Y-120169578D01*
X369155960Y-119950003D01*
X368945718Y-119775000D01*
X368791506Y-119670999D01*
X368755727Y-119652343D01*
X368532893Y-119523777D01*
X368333999Y-119392609D01*
X368241584Y-119331090D01*
X368077137Y-119272529D01*
X367874711Y-119285030D01*
X367844466Y-119290030D01*
X367690184Y-119302919D01*
X367603806Y-119262319D01*
X367535699Y-119148200D01*
X367524880Y-119126964D01*
X367366692Y-118955507D01*
X367148037Y-118880397D01*
X366903487Y-118914416D01*
X366824983Y-118940469D01*
X366691706Y-118942831D01*
X366552839Y-118858675D01*
X366455293Y-118784602D01*
X366398023Y-118774326D01*
X366355380Y-118848347D01*
X366299177Y-119025166D01*
X366234780Y-119092014D01*
X366096430Y-119137413D01*
X366049809Y-119145159D01*
X365955988Y-119191879D01*
X365882366Y-119301600D01*
X365804348Y-119505302D01*
X365790079Y-119550051D01*
X365717528Y-119896611D01*
X365679165Y-120314272D01*
X365677454Y-120756941D01*
X365235310Y-120756941D01*
X365233802Y-120332507D01*
X365237676Y-120125764D01*
X365251971Y-119822661D01*
X365280140Y-119589731D01*
X365327621Y-119389354D01*
X365399852Y-119183911D01*
X365484318Y-118982842D01*
X365575343Y-118794145D01*
X365643411Y-118682964D01*
X365715835Y-118584512D01*
X365771851Y-118398038D01*
X365713041Y-118196602D01*
X365691266Y-118152804D01*
X365624857Y-117950423D01*
X365650191Y-117823434D01*
X365766222Y-117780016D01*
X365770548Y-117780055D01*
X365916814Y-117802053D01*
X366031293Y-117883560D01*
X366155370Y-118053679D01*
X366229224Y-118150115D01*
X366316322Y-118190056D01*
X366372003Y-118108690D01*
X366391601Y-117908877D01*
X366394176Y-117839307D01*
X366438175Y-117671447D01*
X366525389Y-117610981D01*
X366641102Y-117654200D01*
X366770596Y-117797393D01*
X366899154Y-118036849D01*
X366968609Y-118190713D01*
X367041211Y-118304005D01*
X367122864Y-118345990D01*
X367244371Y-118344080D01*
X367405869Y-118299296D01*
X367471670Y-118195953D01*
X367491880Y-118117840D01*
X367542615Y-118016494D01*
X367624951Y-118004700D01*
X367756243Y-118042349D01*
X367877624Y-118106704D01*
X367930995Y-118174178D01*
X367968869Y-118209182D01*
X368087711Y-118228024D01*
X368121883Y-118230386D01*
X368282984Y-118309148D01*
X368399360Y-118473961D01*
X368444126Y-118689982D01*
X368462140Y-118802678D01*
X368543025Y-118901510D01*
X368716727Y-119004013D01*
X368740493Y-119016470D01*
X368921242Y-119130727D01*
X369145714Y-119296186D01*
X369393004Y-119494534D01*
X369642209Y-119707456D01*
X369872424Y-119916638D01*
X370062744Y-120103767D01*
X370192266Y-120250529D01*
X370240086Y-120338609D01*
X370241021Y-120343127D01*
X370287438Y-120423698D01*
X370389902Y-120573065D01*
X370529099Y-120762872D01*
X370686951Y-120985688D01*
X370844354Y-121232506D01*
X370956396Y-121435095D01*
X371005609Y-121537267D01*
X371074724Y-121678409D01*
X371107245Y-121741329D01*
X371155722Y-121738135D01*
X371297484Y-121708789D01*
X371497751Y-121658945D01*
X371688812Y-121619462D01*
X372033068Y-121580353D01*
X372385867Y-121571004D01*
X372896042Y-121583046D01*
X372907997Y-121539748D01*
X373367148Y-121539748D01*
X373371277Y-121706385D01*
X373430719Y-121814999D01*
X373540841Y-121897012D01*
X373575439Y-121922779D01*
X373595692Y-121936002D01*
X373802566Y-122089512D01*
X373992359Y-122255534D01*
X374084837Y-122343859D01*
X374235292Y-122466567D01*
X374327247Y-122499306D01*
X374375141Y-122449387D01*
X374389822Y-122397216D01*
X375748387Y-122397216D01*
X375968420Y-122397216D01*
X375990031Y-122397139D01*
X376125732Y-122382011D01*
X376191571Y-122314410D01*
X376228210Y-122156686D01*
X376229950Y-122145896D01*
X376590086Y-122145896D01*
X376590440Y-122208027D01*
X376605606Y-122338008D01*
X376666934Y-122388633D01*
X376806563Y-122397216D01*
X376931247Y-122389172D01*
X377018840Y-122334887D01*
X377063129Y-122196774D01*
X377073163Y-122145494D01*
X377106794Y-121912295D01*
X377092154Y-121774322D01*
X377021123Y-121708476D01*
X376885585Y-121691660D01*
X376755332Y-121703643D01*
X376652632Y-121766280D01*
X376616777Y-121866723D01*
X376602998Y-121905323D01*
X376590086Y-122145896D01*
X376229950Y-122145896D01*
X376241742Y-122072786D01*
X376266313Y-121866723D01*
X376253211Y-121751990D01*
X376194125Y-121702374D01*
X376080740Y-121691660D01*
X376044798Y-121691822D01*
X375933015Y-121703476D01*
X375867721Y-121754663D01*
X375827906Y-121874611D01*
X375792561Y-122092544D01*
X375748387Y-122397216D01*
X374389822Y-122397216D01*
X374394729Y-122379777D01*
X374405269Y-122333075D01*
X374846992Y-122333075D01*
X375111208Y-122333075D01*
X375155223Y-122332913D01*
X375295142Y-122321199D01*
X375376336Y-122269925D01*
X375424548Y-122149965D01*
X375465520Y-121932191D01*
X375505495Y-121691660D01*
X375249808Y-121691660D01*
X375222256Y-121691685D01*
X375066558Y-121699914D01*
X374979240Y-121743905D01*
X374930891Y-121853983D01*
X374892099Y-122060474D01*
X374846992Y-122333075D01*
X374405269Y-122333075D01*
X374435510Y-122199086D01*
X374485336Y-121952120D01*
X374539331Y-121666318D01*
X374592618Y-121369120D01*
X374603189Y-121306812D01*
X375044879Y-121306812D01*
X375296333Y-121306812D01*
X375319558Y-121306745D01*
X375474048Y-121293601D01*
X375548960Y-121236797D01*
X375571130Y-121162494D01*
X375949547Y-121162494D01*
X375952797Y-121215457D01*
X376002573Y-121288569D01*
X376141096Y-121306812D01*
X376682908Y-121306812D01*
X376925133Y-121306812D01*
X377024259Y-121303324D01*
X377136782Y-121271333D01*
X377168234Y-121194564D01*
X377175684Y-121104625D01*
X377207786Y-120937999D01*
X377213469Y-120915791D01*
X377216457Y-120834665D01*
X377151749Y-120800605D01*
X376989152Y-120793681D01*
X376907212Y-120794297D01*
X376805833Y-120809716D01*
X376783321Y-120813140D01*
X376730197Y-120886175D01*
X376707375Y-121050246D01*
X376682908Y-121306812D01*
X376141096Y-121306812D01*
X376268384Y-121295010D01*
X376322793Y-121233147D01*
X376333520Y-121082317D01*
X376333590Y-121061134D01*
X376338740Y-120901271D01*
X376349555Y-120809716D01*
X376315706Y-120771936D01*
X376197585Y-120742123D01*
X376171548Y-120740103D01*
X376044755Y-120779255D01*
X375975626Y-120911254D01*
X375973102Y-120916074D01*
X375949547Y-121162494D01*
X375571130Y-121162494D01*
X375587876Y-121106370D01*
X375621067Y-120911254D01*
X375613477Y-120791178D01*
X375546789Y-120740168D01*
X375407255Y-120729539D01*
X375269972Y-120734601D01*
X375179464Y-120771277D01*
X375128906Y-120871274D01*
X375088280Y-121066282D01*
X375044879Y-121306812D01*
X374603189Y-121306812D01*
X374640319Y-121087966D01*
X374677558Y-120850297D01*
X374699457Y-120683553D01*
X374701140Y-120615173D01*
X374674914Y-120607715D01*
X374587217Y-120647442D01*
X374541405Y-120671008D01*
X374385622Y-120714957D01*
X374181932Y-120748211D01*
X373957387Y-120789323D01*
X373696763Y-120882888D01*
X373505999Y-121006985D01*
X373414305Y-121146458D01*
X373410430Y-121164893D01*
X373386666Y-121327521D01*
X373367992Y-121526851D01*
X373367148Y-121539748D01*
X372907997Y-121539748D01*
X372947458Y-121396823D01*
X372969330Y-121291027D01*
X372998027Y-121070430D01*
X373016430Y-120825751D01*
X373033986Y-120440903D01*
X373655217Y-120358963D01*
X376090517Y-120358963D01*
X376138134Y-120402219D01*
X376255295Y-120408832D01*
X376293466Y-120408332D01*
X376397099Y-120387388D01*
X376413324Y-120363373D01*
X376810951Y-120363373D01*
X376873987Y-120402741D01*
X377033198Y-120408832D01*
X377141626Y-120401881D01*
X377273104Y-120345077D01*
X377339554Y-120211021D01*
X377358907Y-119975878D01*
X377349588Y-119897379D01*
X377286834Y-119844146D01*
X377133275Y-119831559D01*
X376998790Y-119839169D01*
X376913947Y-119882949D01*
X376863468Y-119993241D01*
X376857894Y-120020904D01*
X376821735Y-120200373D01*
X376811994Y-120259088D01*
X376810951Y-120363373D01*
X376413324Y-120363373D01*
X376449727Y-120309492D01*
X376481088Y-120139119D01*
X376494747Y-120020904D01*
X376492886Y-119861953D01*
X376442742Y-119786520D01*
X376333520Y-119767418D01*
X376253282Y-119774363D01*
X376191351Y-119817967D01*
X376149925Y-119928536D01*
X376138484Y-119989247D01*
X376110786Y-120136231D01*
X376093822Y-120243937D01*
X376090517Y-120358963D01*
X373655217Y-120358963D01*
X373673526Y-120356548D01*
X373833693Y-120336002D01*
X374130637Y-120300726D01*
X374384620Y-120273971D01*
X374553596Y-120260336D01*
X374596859Y-120258134D01*
X374624339Y-120256496D01*
X375243116Y-120256496D01*
X375296216Y-120320990D01*
X375463826Y-120344691D01*
X375578347Y-120341478D01*
X375686669Y-120309009D01*
X375738875Y-120214135D01*
X375765932Y-120023984D01*
X375769277Y-119989247D01*
X375768382Y-119857746D01*
X375709070Y-119801562D01*
X375556476Y-119780099D01*
X375548529Y-119779442D01*
X375396041Y-119778454D01*
X375322983Y-119829886D01*
X375283875Y-119964506D01*
X375255171Y-120133757D01*
X375243116Y-120256496D01*
X374624339Y-120256496D01*
X374737430Y-120249755D01*
X374794126Y-120244223D01*
X374800108Y-120210090D01*
X374823751Y-120080404D01*
X374859222Y-119887831D01*
X374870237Y-119824439D01*
X374908182Y-119564970D01*
X374922759Y-119446711D01*
X375354614Y-119446711D01*
X375884530Y-119446711D01*
X375884530Y-119378064D01*
X376211420Y-119378064D01*
X376251637Y-119436155D01*
X376383059Y-119446711D01*
X376960153Y-119446711D01*
X377215912Y-119446711D01*
X377279696Y-119446281D01*
X377414013Y-119429089D01*
X377476548Y-119360750D01*
X377510233Y-119206181D01*
X377511282Y-119199656D01*
X377550457Y-118971093D01*
X377590590Y-118757191D01*
X377604381Y-118685163D01*
X377604553Y-118589466D01*
X377538288Y-118553939D01*
X377374663Y-118548731D01*
X377246559Y-118552900D01*
X377144833Y-118583088D01*
X377138338Y-118591583D01*
X377082419Y-118664724D01*
X377041807Y-118823193D01*
X377005486Y-119083878D01*
X376960153Y-119446711D01*
X376383059Y-119446711D01*
X376414129Y-119446510D01*
X376508174Y-119434122D01*
X376565914Y-119381567D01*
X376606139Y-119259999D01*
X376647643Y-119040573D01*
X376681348Y-118841812D01*
X376708111Y-118672645D01*
X376718369Y-118591583D01*
X376716454Y-118585994D01*
X376642324Y-118559505D01*
X376493874Y-118548731D01*
X376438154Y-118549106D01*
X376321779Y-118566180D01*
X376276826Y-118636388D01*
X376269379Y-118797279D01*
X376269312Y-118811981D01*
X376256824Y-119040294D01*
X376229290Y-119246269D01*
X376211420Y-119378064D01*
X375884530Y-119378064D01*
X375884530Y-118548731D01*
X375660035Y-118548731D01*
X375653302Y-118548736D01*
X375506167Y-118559971D01*
X375446445Y-118617329D01*
X375434834Y-118757191D01*
X375434787Y-118764452D01*
X375422196Y-118980148D01*
X375394371Y-119206181D01*
X375354614Y-119446711D01*
X374922759Y-119446711D01*
X374947027Y-119249838D01*
X374979884Y-118933520D01*
X375003164Y-118682606D01*
X375031557Y-118482987D01*
X375079804Y-118335017D01*
X375163392Y-118230980D01*
X375297808Y-118163159D01*
X375498538Y-118123841D01*
X375781068Y-118105309D01*
X376160887Y-118099847D01*
X376653479Y-118099741D01*
X376673801Y-118099743D01*
X377135761Y-118101529D01*
X377485182Y-118107298D01*
X377737190Y-118118014D01*
X377906910Y-118134644D01*
X378009468Y-118158153D01*
X378059988Y-118189506D01*
X378076538Y-118219066D01*
X378090602Y-118317519D01*
X378079320Y-118485511D01*
X378063736Y-118589466D01*
X378040960Y-118741395D01*
X377973793Y-119103521D01*
X377848264Y-119759811D01*
X377809452Y-119975878D01*
X377739473Y-120365448D01*
X377699301Y-120615173D01*
G37*
G36*
X362890520Y-118441840D02*
G01*
X363089513Y-118521741D01*
X363333518Y-118643797D01*
X363589207Y-118789869D01*
X363823254Y-118941820D01*
X364002333Y-119081512D01*
X364111347Y-119230161D01*
X364141761Y-119409539D01*
X364069682Y-119562165D01*
X364024661Y-119604063D01*
X363961506Y-119628263D01*
X363873888Y-119593318D01*
X363722134Y-119491120D01*
X363695573Y-119472547D01*
X363527974Y-119357217D01*
X363304056Y-119204962D01*
X363064685Y-119043599D01*
X362879505Y-118914922D01*
X362715579Y-118781713D01*
X362631168Y-118676041D01*
X362607258Y-118578574D01*
X362609971Y-118523916D01*
X362655638Y-118440690D01*
X362787696Y-118420448D01*
X362890520Y-118441840D01*
G37*
G36*
X361130455Y-117877754D02*
G01*
X361094444Y-117928122D01*
X360928427Y-118089592D01*
X360729948Y-118218260D01*
X360607020Y-118274505D01*
X360372428Y-118346470D01*
X360175263Y-118332813D01*
X359979674Y-118226267D01*
X359749814Y-118019564D01*
X359581785Y-117835094D01*
X359378704Y-117517907D01*
X359317193Y-117279122D01*
X359793104Y-117279122D01*
X359833580Y-117414790D01*
X359945453Y-117548772D01*
X359962364Y-117565264D01*
X360125377Y-117696984D01*
X360277537Y-117783384D01*
X360298532Y-117791311D01*
X360447983Y-117835776D01*
X360543375Y-117816839D01*
X360641359Y-117725485D01*
X360652735Y-117712509D01*
X360714011Y-117586466D01*
X360688674Y-117420813D01*
X360641078Y-117257446D01*
X360591329Y-117059219D01*
X360528860Y-116899106D01*
X360393418Y-116739930D01*
X360224769Y-116646706D01*
X360054272Y-116635089D01*
X359913289Y-116720736D01*
X359894471Y-116749618D01*
X359839346Y-116899910D01*
X359802022Y-117095467D01*
X359793104Y-117279122D01*
X359317193Y-117279122D01*
X359298663Y-117207187D01*
X359339745Y-116891734D01*
X359500033Y-116560347D01*
X359691275Y-116310039D01*
X359894114Y-116158978D01*
X360114940Y-116111357D01*
X360229846Y-116125211D01*
X360463588Y-116211738D01*
X360678434Y-116351068D01*
X360819855Y-116512195D01*
X360848865Y-116563523D01*
X360898178Y-116605204D01*
X360949585Y-116540193D01*
X360983077Y-116433746D01*
X361018767Y-116238149D01*
X361046869Y-116000770D01*
X361084605Y-115689202D01*
X361136835Y-115484740D01*
X361209932Y-115374837D01*
X361310651Y-115342643D01*
X361333485Y-115343082D01*
X361441511Y-115360048D01*
X361506925Y-115417263D01*
X361535811Y-115536409D01*
X361534250Y-115739166D01*
X361508326Y-116047216D01*
X361469025Y-116405185D01*
X361396605Y-116911441D01*
X361313901Y-117335965D01*
X361245179Y-117586466D01*
X361224117Y-117663242D01*
X361130455Y-117877754D01*
G37*
G36*
X358761667Y-117071581D02*
G01*
X358643302Y-117318088D01*
X358449385Y-117523950D01*
X358239536Y-117660691D01*
X358003727Y-117712677D01*
X357792495Y-117639712D01*
X357609546Y-117442156D01*
X357572521Y-117385593D01*
X357485252Y-117272832D01*
X357420651Y-117249261D01*
X357347812Y-117297837D01*
X357328802Y-117313783D01*
X357141477Y-117388505D01*
X356936435Y-117365739D01*
X356766769Y-117249868D01*
X356729959Y-117201766D01*
X356655307Y-117045035D01*
X356663113Y-116925817D01*
X356713632Y-116896936D01*
X357861302Y-116896936D01*
X357899726Y-117100303D01*
X357900289Y-117101759D01*
X357981336Y-117192297D01*
X358099942Y-117167248D01*
X358243821Y-117029153D01*
X358284061Y-116964929D01*
X358345756Y-116779206D01*
X358370801Y-116563945D01*
X358359725Y-116357417D01*
X358313056Y-116197893D01*
X358231322Y-116123644D01*
X358135035Y-116143395D01*
X358024338Y-116258435D01*
X357934533Y-116443824D01*
X357876546Y-116667383D01*
X357861302Y-116896936D01*
X356713632Y-116896936D01*
X356754353Y-116873656D01*
X356813811Y-116868510D01*
X356930742Y-116851355D01*
X356935278Y-116850314D01*
X357060475Y-116826683D01*
X357067341Y-116825007D01*
X357146812Y-116749343D01*
X357238545Y-116592675D01*
X357323053Y-116393672D01*
X357380848Y-116191001D01*
X357381602Y-116187282D01*
X357448646Y-116021666D01*
X357550154Y-115913545D01*
X357652874Y-115846999D01*
X357797929Y-115725231D01*
X357887539Y-115660522D01*
X358084826Y-115580810D01*
X358298118Y-115540652D01*
X358465916Y-115555660D01*
X358517737Y-115582075D01*
X358658827Y-115744582D01*
X358756931Y-116018389D01*
X358808593Y-116395032D01*
X358810611Y-116563945D01*
X358812927Y-116757884D01*
X358761667Y-117071581D01*
G37*
G36*
X355976250Y-114980240D02*
G01*
X356185510Y-115093436D01*
X356340071Y-115239599D01*
X356414476Y-115369460D01*
X356465669Y-115561959D01*
X356480751Y-115832366D01*
X356460848Y-116096242D01*
X356371464Y-116340156D01*
X356192429Y-116531349D01*
X355904480Y-116698784D01*
X355817726Y-116735933D01*
X355516360Y-116795833D01*
X355250082Y-116733415D01*
X355022535Y-116549298D01*
X354965136Y-116478994D01*
X354867457Y-116323293D01*
X354862200Y-116209821D01*
X354944239Y-116109797D01*
X354987409Y-116079769D01*
X355072782Y-116077208D01*
X355188903Y-116166085D01*
X355210040Y-116185099D01*
X355413164Y-116290630D01*
X355622833Y-116269989D01*
X355828338Y-116123883D01*
X355967875Y-115928669D01*
X355991948Y-115741186D01*
X355891187Y-115562029D01*
X355663949Y-115383800D01*
X355569223Y-115301929D01*
X355494679Y-115158096D01*
X355499546Y-115020780D01*
X355590486Y-114931040D01*
X355760654Y-114919920D01*
X355976250Y-114980240D01*
G37*
G36*
X352360570Y-112677514D02*
G01*
X352521588Y-112769354D01*
X352746099Y-112951623D01*
X353043696Y-113228150D01*
X353257114Y-113428601D01*
X353482890Y-113623745D01*
X353635191Y-113731336D01*
X353708396Y-113746987D01*
X353729343Y-113711632D01*
X353769998Y-113569809D01*
X353798832Y-113374890D01*
X353806784Y-113291507D01*
X353838441Y-113034493D01*
X353877371Y-112870736D01*
X353932577Y-112772353D01*
X354013065Y-112711457D01*
X354105340Y-112682350D01*
X354249093Y-112700312D01*
X354352129Y-112777534D01*
X354371137Y-112892158D01*
X354352447Y-112978926D01*
X354317804Y-113179004D01*
X354273109Y-113461310D01*
X354222016Y-113801441D01*
X354168177Y-114174993D01*
X354115245Y-114557561D01*
X354066874Y-114924741D01*
X354059889Y-114979223D01*
X354026534Y-115234041D01*
X353998094Y-115443307D01*
X353980098Y-115566155D01*
X353967437Y-115644512D01*
X353953512Y-115737963D01*
X353928708Y-115786003D01*
X353844509Y-115885144D01*
X353766480Y-115943598D01*
X353670889Y-115965480D01*
X353595634Y-115917243D01*
X353495461Y-115769257D01*
X353421702Y-115563536D01*
X353379776Y-115334944D01*
X353375100Y-115118347D01*
X353413095Y-114948611D01*
X353499177Y-114860600D01*
X353586696Y-114800837D01*
X353627460Y-114642473D01*
X353625018Y-114552414D01*
X353594346Y-114447497D01*
X353503380Y-114419836D01*
X353321031Y-114449896D01*
X353295919Y-114455418D01*
X352880374Y-114546722D01*
X352570248Y-114613344D01*
X352346539Y-114657429D01*
X352190243Y-114681120D01*
X352082355Y-114686561D01*
X352003872Y-114675896D01*
X351935790Y-114651268D01*
X351859106Y-114614822D01*
X351773059Y-114566777D01*
X351661064Y-114458489D01*
X351651399Y-114359677D01*
X351751323Y-114292075D01*
X351793215Y-114280921D01*
X351952788Y-114241057D01*
X352185477Y-114184576D01*
X352456879Y-114119875D01*
X352609573Y-114082917D01*
X352836230Y-114024239D01*
X352992165Y-113978719D01*
X353050187Y-113953962D01*
X353033695Y-113931543D01*
X352943068Y-113836361D01*
X352791065Y-113686313D01*
X352597942Y-113501656D01*
X352467381Y-113376970D01*
X352301749Y-113207099D01*
X352207275Y-113083272D01*
X352167256Y-112981404D01*
X352164987Y-112877411D01*
X352190648Y-112749806D01*
X352253454Y-112672274D01*
X352360570Y-112677514D01*
G37*
G36*
X365173765Y-111699060D02*
G01*
X365281974Y-111772448D01*
X365334877Y-111834850D01*
X365461550Y-111927776D01*
X365516924Y-111971293D01*
X365630448Y-112142469D01*
X365733592Y-112395949D01*
X365818506Y-112700580D01*
X365877341Y-113025208D01*
X365902248Y-113338680D01*
X365885376Y-113609842D01*
X365823299Y-113870255D01*
X365643529Y-114263309D01*
X365380538Y-114573225D01*
X365044631Y-114785587D01*
X364910446Y-114841691D01*
X364783002Y-114879797D01*
X364687924Y-114870888D01*
X364575389Y-114818451D01*
X364441539Y-114728552D01*
X364295780Y-114579518D01*
X364193702Y-114418577D01*
X364146849Y-114271596D01*
X364166765Y-114164440D01*
X364264993Y-114122974D01*
X364369720Y-114153844D01*
X364499429Y-114251256D01*
X364643006Y-114359149D01*
X364799566Y-114356299D01*
X364983511Y-114235143D01*
X365164891Y-114059119D01*
X365333181Y-113820594D01*
X365417029Y-113552553D01*
X365436504Y-113209559D01*
X365434731Y-113143089D01*
X365390725Y-112763733D01*
X365294887Y-112462471D01*
X365153971Y-112254717D01*
X364974734Y-112155888D01*
X364781577Y-112086432D01*
X364691485Y-111971387D01*
X364721730Y-111817983D01*
X364726854Y-111809183D01*
X364841216Y-111721897D01*
X365008516Y-111683699D01*
X365173765Y-111699060D01*
G37*
G36*
X363562930Y-113044158D02*
G01*
X363513574Y-113339864D01*
X363406717Y-113556666D01*
X363231836Y-113722090D01*
X363127729Y-113787819D01*
X362911199Y-113858827D01*
X362712747Y-113811226D01*
X362507199Y-113642240D01*
X362382952Y-113483180D01*
X362232257Y-113139277D01*
X362185198Y-112748129D01*
X362193372Y-112693048D01*
X362661900Y-112693048D01*
X362664050Y-112927867D01*
X362688104Y-113131188D01*
X362734333Y-113255610D01*
X362782764Y-113307525D01*
X362881725Y-113346501D01*
X362983871Y-113266987D01*
X362985480Y-113265035D01*
X363082134Y-113054135D01*
X363096726Y-112781718D01*
X363027129Y-112486171D01*
X362972111Y-112352014D01*
X362897823Y-112229732D01*
X362826152Y-112212913D01*
X362739842Y-112289759D01*
X362722228Y-112318531D01*
X362681382Y-112474135D01*
X362661900Y-112693048D01*
X362193372Y-112693048D01*
X362246634Y-112334127D01*
X362309056Y-112155085D01*
X362452873Y-111899958D01*
X362626077Y-111722476D01*
X362810774Y-111629780D01*
X362989072Y-111629009D01*
X363143077Y-111727303D01*
X363254897Y-111931802D01*
X363260426Y-111948262D01*
X363348387Y-112151407D01*
X363450424Y-112319629D01*
X363480524Y-112363778D01*
X363548362Y-112556180D01*
X363565109Y-112781718D01*
X363569379Y-112839224D01*
X363562930Y-113044158D01*
G37*
G36*
X359281711Y-110496740D02*
G01*
X359336045Y-110624250D01*
X359347271Y-110675288D01*
X359403519Y-110821365D01*
X359491186Y-111008180D01*
X359545291Y-111119899D01*
X359634711Y-111326967D01*
X359688353Y-111482066D01*
X359714208Y-111566691D01*
X359745951Y-111581868D01*
X359799139Y-111507553D01*
X359891108Y-111330813D01*
X359977707Y-111168878D01*
X360151230Y-110913978D01*
X360320647Y-110769240D01*
X360497116Y-110723479D01*
X360542955Y-110727259D01*
X360724152Y-110813516D01*
X360875798Y-110991796D01*
X360970865Y-111233029D01*
X360980193Y-111273345D01*
X361020464Y-111366996D01*
X361103073Y-111396002D01*
X361269942Y-111381120D01*
X361528865Y-111346391D01*
X361483842Y-112077233D01*
X361479963Y-112137676D01*
X361440506Y-112588583D01*
X361387813Y-112979165D01*
X361325194Y-113292432D01*
X361255959Y-113511396D01*
X361183419Y-113619066D01*
X361137284Y-113644627D01*
X361029941Y-113660507D01*
X360947324Y-113588869D01*
X360885013Y-113419569D01*
X360838590Y-113142465D01*
X360803634Y-112747415D01*
X360784438Y-112518293D01*
X360739067Y-112160351D01*
X360680901Y-111844560D01*
X360614971Y-111592399D01*
X360546306Y-111425349D01*
X360479935Y-111364893D01*
X360453350Y-111374340D01*
X360378367Y-111476241D01*
X360300887Y-111668994D01*
X360230225Y-111926354D01*
X360175697Y-112222073D01*
X360147402Y-112394635D01*
X360080186Y-112667757D01*
X360002057Y-112842650D01*
X359918674Y-112904287D01*
X359869940Y-112884067D01*
X359764731Y-112770455D01*
X359646105Y-112582594D01*
X359531756Y-112350083D01*
X359439379Y-112102519D01*
X359398773Y-111971627D01*
X359305125Y-111682359D01*
X359236406Y-111495401D01*
X359186358Y-111394873D01*
X359148725Y-111364893D01*
X359145590Y-111365232D01*
X359092807Y-111430754D01*
X359029031Y-111586863D01*
X358965776Y-111800443D01*
X358914558Y-112038378D01*
X358894252Y-112140292D01*
X358807352Y-112407218D01*
X358693023Y-112582034D01*
X358561707Y-112646739D01*
X358538083Y-112630462D01*
X358457935Y-112534807D01*
X358350876Y-112381778D01*
X358176758Y-112115835D01*
X358323350Y-111959794D01*
X358369382Y-111900843D01*
X358472562Y-111708858D01*
X358550216Y-111488111D01*
X358574842Y-111391185D01*
X358647012Y-111106486D01*
X358715468Y-110835726D01*
X358779345Y-110629492D01*
X358857105Y-110505223D01*
X358968202Y-110439843D01*
X358976338Y-110437088D01*
X359147441Y-110427150D01*
X359281711Y-110496740D01*
G37*
G36*
X357640649Y-111000699D02*
G01*
X357602925Y-111206866D01*
X357487487Y-111550117D01*
X357324691Y-111829122D01*
X357130446Y-112012335D01*
X356920066Y-112103842D01*
X356635153Y-112120759D01*
X356368503Y-112016773D01*
X356236891Y-111918843D01*
X356061435Y-111709598D01*
X356002732Y-111477140D01*
X356017632Y-111376271D01*
X356095809Y-111303115D01*
X356224196Y-111330481D01*
X356383808Y-111459261D01*
X356409500Y-111485391D01*
X356570716Y-111585873D01*
X356737757Y-111567787D01*
X356929586Y-111430121D01*
X356976193Y-111382445D01*
X357067175Y-111251610D01*
X357091805Y-111149511D01*
X357039131Y-111108327D01*
X356968614Y-111077363D01*
X356840225Y-110966699D01*
X356695555Y-110806953D01*
X356563975Y-110631215D01*
X356474852Y-110472575D01*
X356440155Y-110380206D01*
X356391514Y-110084154D01*
X356400238Y-110051534D01*
X356841819Y-110051534D01*
X356860722Y-110139539D01*
X356938051Y-110312901D01*
X356975257Y-110383783D01*
X357060622Y-110499489D01*
X357127927Y-110535897D01*
X357155237Y-110476484D01*
X357136437Y-110360457D01*
X357075966Y-110202487D01*
X356997176Y-110072146D01*
X356924468Y-110017923D01*
X356880045Y-110020711D01*
X356841819Y-110051534D01*
X356400238Y-110051534D01*
X356457029Y-109839194D01*
X356635556Y-109651173D01*
X356703098Y-109607734D01*
X356898562Y-109520308D01*
X357064688Y-109530468D01*
X357242232Y-109637283D01*
X357245468Y-109639862D01*
X357384725Y-109813838D01*
X357505286Y-110075971D01*
X357595737Y-110387199D01*
X357609334Y-110476484D01*
X357644663Y-110708462D01*
X357640649Y-111000699D01*
G37*
G36*
X368636392Y-122338208D02*
G01*
X368738878Y-122445128D01*
X368754300Y-122624874D01*
X368752512Y-122640206D01*
X368731296Y-122738852D01*
X368676791Y-122794776D01*
X368557417Y-122824915D01*
X368341596Y-122846206D01*
X368161591Y-122868231D01*
X367967171Y-122910447D01*
X367853795Y-122958593D01*
X367832710Y-122974275D01*
X367691096Y-123052409D01*
X367507335Y-123130210D01*
X367376175Y-123174691D01*
X367224389Y-123201464D01*
X367143970Y-123159944D01*
X367108038Y-123044352D01*
X367106837Y-122990260D01*
X367178894Y-122817959D01*
X367347270Y-122648394D01*
X367588796Y-122497128D01*
X367880305Y-122379724D01*
X368198632Y-122311743D01*
X368436947Y-122298537D01*
X368636392Y-122338208D01*
G37*
G36*
X366425525Y-121307088D02*
G01*
X366549252Y-121337214D01*
X366584025Y-121431309D01*
X366594284Y-121504979D01*
X366648167Y-121595448D01*
X366681881Y-121645144D01*
X366709001Y-121781025D01*
X366705961Y-121932508D01*
X366669547Y-122033748D01*
X366613861Y-122063766D01*
X366448914Y-122069355D01*
X366235423Y-122013955D01*
X366149837Y-121971130D01*
X366086440Y-121878211D01*
X366070894Y-121706076D01*
X366071144Y-121680059D01*
X366107451Y-121462425D01*
X366214254Y-121343147D01*
X366404429Y-121306812D01*
X366425525Y-121307088D01*
G37*
G36*
X368380435Y-120826294D02*
G01*
X368425641Y-120942697D01*
X368424091Y-121137328D01*
X368370953Y-121343893D01*
X368274424Y-121509566D01*
X368257661Y-121527308D01*
X368120139Y-121608349D01*
X367986883Y-121564299D01*
X367852400Y-121393651D01*
X367812647Y-121324076D01*
X367769579Y-121214102D01*
X367788270Y-121112718D01*
X367871298Y-120960906D01*
X367921852Y-120885981D01*
X368076115Y-120753613D01*
X368236426Y-120731747D01*
X368380435Y-120826294D01*
G37*
G36*
X101935364Y-192931733D02*
G01*
X101873001Y-193062081D01*
X101838597Y-193157585D01*
X101841878Y-193232663D01*
X101892571Y-193301731D01*
X102000402Y-193379208D01*
X102175096Y-193479509D01*
X102426381Y-193617053D01*
X102517202Y-193667264D01*
X102740638Y-193789728D01*
X102905126Y-193865647D01*
X103032728Y-193891318D01*
X103145506Y-193863040D01*
X103265522Y-193777108D01*
X103414838Y-193629821D01*
X103615516Y-193417475D01*
X103684460Y-193344544D01*
X103852319Y-193163956D01*
X103987633Y-193014027D01*
X104077985Y-192908684D01*
X104110956Y-192861853D01*
X104113055Y-192854834D01*
X104165060Y-192797507D01*
X104264925Y-192718187D01*
X104290820Y-192699858D01*
X104384370Y-192643224D01*
X104446143Y-192643516D01*
X104516410Y-192697409D01*
X104568978Y-192752307D01*
X104604152Y-192833845D01*
X104579358Y-192927572D01*
X104488402Y-193050373D01*
X104325093Y-193219136D01*
X104214823Y-193328380D01*
X104024525Y-193520011D01*
X103814643Y-193733986D01*
X103613914Y-193941131D01*
X103452305Y-194102648D01*
X103292858Y-194247797D01*
X103169085Y-194344662D01*
X103096698Y-194379913D01*
X103093401Y-194379842D01*
X102991623Y-194354202D01*
X102838457Y-194293062D01*
X102666965Y-194211994D01*
X102510203Y-194126567D01*
X102401232Y-194052353D01*
X102388131Y-194041700D01*
X102283579Y-193969361D01*
X102149747Y-193888455D01*
X102139547Y-193882700D01*
X101970541Y-193786967D01*
X101808621Y-193694737D01*
X101643535Y-193600309D01*
X101546453Y-193726052D01*
X101473486Y-193847415D01*
X101416012Y-194000685D01*
X101412667Y-194014722D01*
X101362313Y-194167899D01*
X101292680Y-194327616D01*
X101213273Y-194490701D01*
X101109584Y-194719988D01*
X101022911Y-194929300D01*
X100968086Y-195084072D01*
X100965553Y-195092353D01*
X100944626Y-195149325D01*
X100907291Y-195237491D01*
X100849572Y-195365302D01*
X100767491Y-195541207D01*
X100657073Y-195773656D01*
X100514343Y-196071099D01*
X100335323Y-196441985D01*
X100116037Y-196894765D01*
X100006640Y-197109851D01*
X99865819Y-197365271D01*
X99723585Y-197604635D01*
X99594825Y-197803023D01*
X99494424Y-197935509D01*
X99433150Y-197996492D01*
X99344752Y-198035882D01*
X99270219Y-197984295D01*
X99196196Y-197837334D01*
X99192859Y-197828960D01*
X99156137Y-197723540D01*
X99156153Y-197645487D01*
X99202117Y-197559913D01*
X99303244Y-197431929D01*
X99378859Y-197337124D01*
X99454655Y-197234671D01*
X99484004Y-197183933D01*
X99485380Y-197178493D01*
X99520094Y-197109031D01*
X99592060Y-196981929D01*
X99688531Y-196819873D01*
X99706736Y-196789762D01*
X99805933Y-196620471D01*
X99882561Y-196481263D01*
X99921303Y-196399782D01*
X99929507Y-196378614D01*
X99975561Y-196271960D01*
X100052400Y-196100538D01*
X100151687Y-195882835D01*
X100265087Y-195637339D01*
X100487997Y-195155856D01*
X100699835Y-194694003D01*
X100876071Y-194304703D01*
X101014683Y-193992471D01*
X101113646Y-193761819D01*
X101170935Y-193617262D01*
X101197590Y-193530460D01*
X101200661Y-193435761D01*
X101151384Y-193356544D01*
X101036319Y-193274602D01*
X100842024Y-193171731D01*
X100773084Y-193135856D01*
X100615339Y-193045204D01*
X100498940Y-192967204D01*
X100427941Y-192918982D01*
X100342428Y-192903745D01*
X100222307Y-192942934D01*
X99935166Y-193048364D01*
X99658856Y-193112858D01*
X99338696Y-193149005D01*
X99143705Y-193168546D01*
X98884869Y-193205783D01*
X98663155Y-193248892D01*
X98448983Y-193292144D01*
X98179900Y-193319769D01*
X97977560Y-193304290D01*
X97854060Y-193245754D01*
X97799068Y-193169669D01*
X97714249Y-193019765D01*
X97617330Y-192827515D01*
X97521318Y-192619994D01*
X97439220Y-192424277D01*
X97384045Y-192267438D01*
X97358956Y-192173814D01*
X97314397Y-191987316D01*
X97271752Y-191789616D01*
X97242377Y-191657250D01*
X97190956Y-191461181D01*
X97142707Y-191311794D01*
X97108314Y-191215618D01*
X97048513Y-191030109D01*
X96990785Y-190833973D01*
X96955217Y-190709512D01*
X96883013Y-190469152D01*
X96815106Y-190255557D01*
X96779875Y-190143619D01*
X96726734Y-189952873D01*
X96692928Y-189802884D01*
X96676551Y-189737419D01*
X96621302Y-189575286D01*
X96540230Y-189369468D01*
X96444380Y-189149022D01*
X96375923Y-188998926D01*
X96260404Y-188744054D01*
X96174594Y-188550797D01*
X96110086Y-188399068D01*
X96058477Y-188268781D01*
X96011363Y-188139851D01*
X95960340Y-187992190D01*
X95899743Y-187822669D01*
X95829659Y-187642974D01*
X95774039Y-187517255D01*
X95699124Y-187369250D01*
X95516812Y-187573090D01*
X95389478Y-187715956D01*
X95229802Y-187895798D01*
X95072805Y-188073174D01*
X95069866Y-188076500D01*
X94916096Y-188250321D01*
X94763708Y-188422187D01*
X94645280Y-188555356D01*
X94479450Y-188741293D01*
X93850737Y-188703238D01*
X93748119Y-188696611D01*
X93447519Y-188669599D01*
X93233122Y-188634302D01*
X93093783Y-188587352D01*
X93018353Y-188525385D01*
X92995687Y-188445033D01*
X93013817Y-188385152D01*
X93114245Y-188312078D01*
X93292124Y-188269990D01*
X93535508Y-188261136D01*
X93832448Y-188287760D01*
X93886575Y-188295033D01*
X94081792Y-188315202D01*
X94237070Y-188322191D01*
X94322754Y-188314389D01*
X94351377Y-188295904D01*
X94449232Y-188203046D01*
X94597401Y-188041363D01*
X94789212Y-187818505D01*
X95017996Y-187542124D01*
X95277081Y-187219869D01*
X95471147Y-186975413D01*
X95365101Y-186831977D01*
X95352670Y-186814957D01*
X95286165Y-186715209D01*
X95259054Y-186658596D01*
X95259005Y-186656848D01*
X95233943Y-186576635D01*
X95171716Y-186436410D01*
X95085127Y-186262008D01*
X94986976Y-186079261D01*
X94890067Y-185914004D01*
X94842376Y-185836505D01*
X94724131Y-185629870D01*
X94635531Y-185441991D01*
X94553590Y-185225854D01*
X94506378Y-185093117D01*
X94425856Y-184881223D01*
X94349080Y-184705223D01*
X94259170Y-184524924D01*
X94221896Y-184453166D01*
X94115514Y-184246644D01*
X94015421Y-184050424D01*
X94014849Y-184049297D01*
X93921947Y-183880704D01*
X93798066Y-183674557D01*
X93669859Y-183475221D01*
X93643907Y-183436215D01*
X93544448Y-183280256D01*
X93474677Y-183160378D01*
X93448361Y-183099908D01*
X93435209Y-183066477D01*
X93373228Y-182970420D01*
X93277563Y-182845210D01*
X93219033Y-182769533D01*
X93083952Y-182574832D01*
X92967590Y-182384072D01*
X92916338Y-182296522D01*
X92781146Y-182090123D01*
X92644639Y-181906250D01*
X92570011Y-181810315D01*
X92466765Y-181663970D01*
X92401706Y-181554171D01*
X92381962Y-181516990D01*
X92305041Y-181391179D01*
X92193970Y-181222125D01*
X92065555Y-181035748D01*
X91973957Y-180902683D01*
X91857837Y-180708747D01*
X91805569Y-180565254D01*
X92234812Y-180565254D01*
X92281069Y-180729661D01*
X92417272Y-180928742D01*
X92486799Y-181018158D01*
X92563494Y-181132033D01*
X92593311Y-181199424D01*
X92595020Y-181208217D01*
X92636729Y-181287015D01*
X92722885Y-181415604D01*
X92838287Y-181570932D01*
X92859383Y-181598374D01*
X92979205Y-181764269D01*
X93072790Y-181910008D01*
X93121399Y-182006748D01*
X93145913Y-182065649D01*
X93220865Y-182203835D01*
X93318140Y-182356082D01*
X93332869Y-182377598D01*
X93441851Y-182544988D01*
X93571046Y-182753276D01*
X93695574Y-182962487D01*
X93711944Y-182990624D01*
X93841613Y-183209091D01*
X93974330Y-183426537D01*
X94083758Y-183599724D01*
X94161640Y-183722529D01*
X94227714Y-183834360D01*
X94253113Y-183888418D01*
X94254958Y-183895096D01*
X94292172Y-183966745D01*
X94367423Y-184094848D01*
X94467740Y-184257122D01*
X94603256Y-184488134D01*
X94795647Y-184897400D01*
X94960575Y-185369374D01*
X95019341Y-185516623D01*
X95117458Y-185710146D01*
X95231099Y-185900715D01*
X95236971Y-185909707D01*
X95346207Y-186077112D01*
X95439812Y-186220775D01*
X95498085Y-186310461D01*
X95539445Y-186379610D01*
X95605275Y-186508428D01*
X95628307Y-186560545D01*
X95742866Y-186806673D01*
X95847528Y-187002922D01*
X95962354Y-187187438D01*
X96015911Y-187271139D01*
X96106065Y-187424239D01*
X96164428Y-187539517D01*
X96206056Y-187638811D01*
X96260011Y-187765854D01*
X96326859Y-187927670D01*
X96434991Y-188214574D01*
X96519363Y-188470012D01*
X96590787Y-188668695D01*
X96702246Y-188918112D01*
X96825181Y-189149022D01*
X96910951Y-189312056D01*
X96989985Y-189493194D01*
X97047510Y-189656011D01*
X97069747Y-189765760D01*
X97072085Y-189810876D01*
X97087898Y-189901763D01*
X97123143Y-190031603D01*
X97183047Y-190218834D01*
X97272842Y-190481893D01*
X97331780Y-190659569D01*
X97403170Y-190885748D01*
X97471264Y-191110606D01*
X97472736Y-191115597D01*
X97537739Y-191335261D01*
X97601668Y-191550061D01*
X97650884Y-191714171D01*
X97664761Y-191761656D01*
X97715888Y-191959213D01*
X97753643Y-192136878D01*
X97774160Y-192221879D01*
X97838526Y-192406270D01*
X97921635Y-192589552D01*
X97931002Y-192607504D01*
X98007486Y-192744356D01*
X98073683Y-192816015D01*
X98161885Y-192844662D01*
X98304384Y-192852482D01*
X98319267Y-192852758D01*
X98500488Y-192845635D01*
X98738301Y-192823648D01*
X99006563Y-192790621D01*
X99279131Y-192750380D01*
X99529860Y-192706753D01*
X99541638Y-192704244D01*
X100992915Y-192704244D01*
X100993501Y-192718882D01*
X101043284Y-192783997D01*
X101141906Y-192875909D01*
X101191471Y-192915463D01*
X101304860Y-192991641D01*
X101379526Y-193021893D01*
X101438629Y-192983127D01*
X101510759Y-192886497D01*
X101571158Y-192769756D01*
X101596480Y-192670698D01*
X101570818Y-192653834D01*
X101473542Y-192643392D01*
X101334288Y-192645037D01*
X101185882Y-192656943D01*
X101061149Y-192677287D01*
X100992915Y-192704244D01*
X99541638Y-192704244D01*
X99732608Y-192663563D01*
X99861232Y-192624639D01*
X100026122Y-192562762D01*
X100265693Y-192485003D01*
X100548170Y-192401003D01*
X100845514Y-192318789D01*
X101129687Y-192246391D01*
X101372652Y-192191838D01*
X101609257Y-192143562D01*
X101770724Y-192104667D01*
X101874392Y-192064649D01*
X101940659Y-192012390D01*
X101989923Y-191936771D01*
X102042585Y-191826674D01*
X102078915Y-191749879D01*
X102164247Y-191575475D01*
X102235214Y-191437537D01*
X102251618Y-191407039D01*
X102335015Y-191250356D01*
X102421813Y-191085458D01*
X102451506Y-191030779D01*
X102524608Y-190911911D01*
X102577272Y-190847317D01*
X102654022Y-190812839D01*
X102773452Y-190832560D01*
X102862664Y-190933705D01*
X102885181Y-191001491D01*
X102879664Y-191082333D01*
X102832584Y-191191591D01*
X102735844Y-191356237D01*
X102734019Y-191359195D01*
X102642321Y-191515507D01*
X102577011Y-191641154D01*
X102552123Y-191709178D01*
X102583124Y-191744079D01*
X102679488Y-191762952D01*
X102806100Y-191758989D01*
X102926642Y-191733807D01*
X103004796Y-191689022D01*
X103048655Y-191649108D01*
X103137821Y-191613577D01*
X103188979Y-191594159D01*
X103297310Y-191521106D01*
X103426495Y-191412388D01*
X103526559Y-191326382D01*
X103642089Y-191243314D01*
X103714740Y-191211200D01*
X103744083Y-191204104D01*
X103848292Y-191151646D01*
X103987164Y-191064685D01*
X104131717Y-190963073D01*
X104252971Y-190866659D01*
X104321945Y-190795296D01*
X104333951Y-190751290D01*
X104348238Y-190620337D01*
X104358149Y-190430245D01*
X104362046Y-190205160D01*
X104361768Y-190149682D01*
X104333637Y-189675137D01*
X104258515Y-189137468D01*
X104135070Y-188528810D01*
X103961973Y-187841299D01*
X103956063Y-187818887D01*
X103922568Y-187682852D01*
X103874334Y-187478782D01*
X103816899Y-187230318D01*
X103755799Y-186961101D01*
X103743167Y-186905295D01*
X103677106Y-186623795D01*
X103611078Y-186357271D01*
X103552125Y-186133513D01*
X103507289Y-185980309D01*
X103469953Y-185862968D01*
X103397604Y-185625262D01*
X103332948Y-185401893D01*
X103293064Y-185268899D01*
X103222742Y-185062955D01*
X103157167Y-184898923D01*
X103117400Y-184809541D01*
X103034547Y-184616126D01*
X102954021Y-184421101D01*
X102903602Y-184299291D01*
X102840311Y-184155348D01*
X102797594Y-184069022D01*
X102776063Y-184030579D01*
X102722542Y-183918131D01*
X102714941Y-183899110D01*
X102577783Y-183561843D01*
X102466123Y-183302885D01*
X102371907Y-183106630D01*
X102287077Y-182957470D01*
X102203577Y-182839797D01*
X102113349Y-182738004D01*
X102001424Y-182617085D01*
X101932486Y-182512632D01*
X101903911Y-182399154D01*
X101898262Y-182235946D01*
X101894719Y-182122242D01*
X101877802Y-181965564D01*
X101851636Y-181867845D01*
X101824884Y-181815562D01*
X101773791Y-181705062D01*
X101760471Y-181676578D01*
X101700580Y-181565945D01*
X101619589Y-181428428D01*
X101591784Y-181382126D01*
X101497408Y-181215390D01*
X101423706Y-181072345D01*
X101423283Y-181071448D01*
X101347830Y-180942528D01*
X101268779Y-180849373D01*
X101254849Y-180836616D01*
X101172827Y-180735467D01*
X101089306Y-180601892D01*
X101002460Y-180445840D01*
X100897878Y-180272288D01*
X100766579Y-180071332D01*
X100764393Y-180068059D01*
X100677101Y-179930361D01*
X100607100Y-179808992D01*
X100604036Y-179803167D01*
X100537656Y-179676724D01*
X100461638Y-179531651D01*
X100453485Y-179516105D01*
X100383828Y-179385348D01*
X100331788Y-179290804D01*
X100293853Y-179218109D01*
X100236726Y-179094672D01*
X100230074Y-179080040D01*
X100156596Y-178953154D01*
X100059663Y-178818038D01*
X100019678Y-178767966D01*
X99909010Y-178628276D01*
X99768504Y-178450046D01*
X99619026Y-178259715D01*
X99562105Y-178188494D01*
X99384767Y-177979766D01*
X99192887Y-177769228D01*
X99002195Y-177572748D01*
X98828419Y-177406190D01*
X98687290Y-177285422D01*
X98594537Y-177226310D01*
X98574393Y-177222143D01*
X98458125Y-177224387D01*
X98280568Y-177245762D01*
X98068957Y-177281819D01*
X97850524Y-177328109D01*
X97652503Y-177380185D01*
X97610486Y-177395310D01*
X97457201Y-177469633D01*
X97267114Y-177579827D01*
X97071808Y-177708058D01*
X97022163Y-177742164D01*
X96795184Y-177885776D01*
X96561058Y-178018207D01*
X96363309Y-178114489D01*
X96191159Y-178191362D01*
X96046323Y-178263351D01*
X95963212Y-178313545D01*
X95959324Y-178316584D01*
X95871124Y-178369621D01*
X95723025Y-178445755D01*
X95544868Y-178529574D01*
X95352164Y-178624415D01*
X95174151Y-178725862D01*
X95050613Y-178811367D01*
X95024245Y-178832671D01*
X94909302Y-178908198D01*
X94824775Y-178938725D01*
X94730985Y-178964532D01*
X94562287Y-179046762D01*
X94333032Y-179180205D01*
X94053072Y-179359488D01*
X93911984Y-179446548D01*
X93778281Y-179515760D01*
X93696214Y-179542289D01*
X93621889Y-179566132D01*
X93524968Y-179641599D01*
X93445787Y-179710618D01*
X93328559Y-179774058D01*
X93295803Y-179787067D01*
X93174235Y-179855597D01*
X93038747Y-179951381D01*
X92983795Y-179992425D01*
X92865560Y-180066659D01*
X92787261Y-180096512D01*
X92740441Y-180109291D01*
X92624065Y-180164185D01*
X92480143Y-180247496D01*
X92416795Y-180289970D01*
X92279666Y-180422899D01*
X92234812Y-180565254D01*
X91805569Y-180565254D01*
X91799629Y-180548946D01*
X91804661Y-180410059D01*
X91878258Y-180278864D01*
X92025747Y-180142141D01*
X92252454Y-179986667D01*
X92563706Y-179799222D01*
X92651425Y-179746899D01*
X92838501Y-179631690D01*
X93020836Y-179515840D01*
X93101626Y-179464450D01*
X93286439Y-179351781D01*
X93487821Y-179233781D01*
X93685265Y-179121963D01*
X93858261Y-179027839D01*
X93986303Y-178962922D01*
X94048882Y-178938725D01*
X94071251Y-178931457D01*
X94160472Y-178881293D01*
X94283289Y-178799151D01*
X94326979Y-178769356D01*
X94516888Y-178656312D01*
X94705786Y-178562686D01*
X94754410Y-178540931D01*
X94953153Y-178439436D01*
X95133311Y-178331922D01*
X95190519Y-178295412D01*
X95341167Y-178210833D01*
X95460242Y-178158664D01*
X95485149Y-178149961D01*
X95621014Y-178087697D01*
X95768480Y-178004114D01*
X95793229Y-177988790D01*
X95962244Y-177893952D01*
X96120559Y-177817787D01*
X96120632Y-177817756D01*
X96254631Y-177752472D01*
X96432834Y-177653888D01*
X96628660Y-177538151D01*
X96815527Y-177421409D01*
X96966853Y-177319811D01*
X97056054Y-177249504D01*
X97104973Y-177211256D01*
X97194891Y-177178329D01*
X97221398Y-177175581D01*
X97279318Y-177140606D01*
X97312943Y-177118984D01*
X97425690Y-177070453D01*
X97597743Y-177005866D01*
X97808600Y-176933252D01*
X98030507Y-176862138D01*
X98256062Y-176804539D01*
X98435544Y-176790666D01*
X98591688Y-176826671D01*
X98747234Y-176918704D01*
X98924917Y-177072917D01*
X99147477Y-177295462D01*
X99405211Y-177561146D01*
X99678545Y-177847835D01*
X99889885Y-178075946D01*
X100035764Y-178241723D01*
X100112717Y-178341410D01*
X100136724Y-178378965D01*
X100226578Y-178516854D01*
X100340579Y-178689666D01*
X100455803Y-178862745D01*
X100549325Y-179001433D01*
X100604024Y-179090342D01*
X100695523Y-179250901D01*
X100807857Y-179455459D01*
X100927882Y-179680443D01*
X101019013Y-179849221D01*
X101183775Y-180139388D01*
X101354084Y-180424870D01*
X101504845Y-180662937D01*
X101581486Y-180780053D01*
X101719494Y-180997541D01*
X101840133Y-181195434D01*
X101923791Y-181341947D01*
X101939714Y-181371809D01*
X102055230Y-181581509D01*
X102153059Y-181742062D01*
X102255806Y-181890843D01*
X102336716Y-182002333D01*
X102444420Y-181878464D01*
X102449166Y-181872965D01*
X102522041Y-181776505D01*
X102552123Y-181713471D01*
X102552546Y-181710408D01*
X102587697Y-181645595D01*
X102668236Y-181528058D01*
X102778460Y-181380871D01*
X102792860Y-181362256D01*
X102900182Y-181218625D01*
X102976037Y-181108574D01*
X103004796Y-181054633D01*
X103034135Y-180998860D01*
X103107350Y-180909793D01*
X103113502Y-180903301D01*
X103198462Y-180839496D01*
X103315008Y-180808670D01*
X103497152Y-180801361D01*
X103858484Y-180814851D01*
X104175925Y-180853902D01*
X104411093Y-180916898D01*
X104558510Y-181002331D01*
X104612702Y-181108690D01*
X104611209Y-181121119D01*
X104558921Y-181164511D01*
X104427196Y-181196702D01*
X104209079Y-181218896D01*
X103897612Y-181232295D01*
X103720509Y-181238294D01*
X103522312Y-181248789D01*
X103379137Y-181260920D01*
X103313765Y-181273096D01*
X103311836Y-181274441D01*
X103261634Y-181333040D01*
X103176882Y-181451289D01*
X103074810Y-181605236D01*
X102968805Y-181765825D01*
X102821510Y-181978778D01*
X102690440Y-182158470D01*
X102604834Y-182277322D01*
X102530450Y-182396160D01*
X102501826Y-182464527D01*
X102519373Y-182552906D01*
X102572106Y-182716985D01*
X102652298Y-182933266D01*
X102752134Y-183181628D01*
X102863798Y-183441950D01*
X102979471Y-183694111D01*
X103050260Y-183843793D01*
X103130720Y-184017494D01*
X103185655Y-184140592D01*
X103205984Y-184193082D01*
X103217404Y-184228970D01*
X103260275Y-184335234D01*
X103324053Y-184482482D01*
X103376966Y-184604482D01*
X103472101Y-184833188D01*
X103558232Y-185049814D01*
X103617514Y-185196577D01*
X103677525Y-185329919D01*
X103716797Y-185399379D01*
X103718646Y-185401618D01*
X103747387Y-185485480D01*
X103759252Y-185614756D01*
X103759677Y-185633017D01*
X103785595Y-185800254D01*
X103839335Y-185969350D01*
X103848894Y-185991907D01*
X103963677Y-186306774D01*
X104067333Y-186681775D01*
X104165513Y-187137141D01*
X104185391Y-187239335D01*
X104227466Y-187450545D01*
X104266468Y-187634542D01*
X104308247Y-187816194D01*
X104358657Y-188020368D01*
X104423550Y-188271932D01*
X104508777Y-188595755D01*
X104533937Y-188692214D01*
X104649473Y-189187797D01*
X104726486Y-189637259D01*
X104770274Y-190077881D01*
X104774579Y-190205160D01*
X104786138Y-190546949D01*
X104787292Y-190750544D01*
X104785110Y-190928672D01*
X104775448Y-191038917D01*
X104754608Y-191099451D01*
X104718891Y-191128442D01*
X104664598Y-191144064D01*
X104606777Y-191163112D01*
X104464321Y-191229089D01*
X104308116Y-191317919D01*
X104215371Y-191374167D01*
X104099608Y-191437886D01*
X104038246Y-191462686D01*
X104031054Y-191464290D01*
X103956487Y-191501615D01*
X103826948Y-191578314D01*
X103665422Y-191680932D01*
X103534652Y-191765071D01*
X103205935Y-191963648D01*
X102912920Y-192121944D01*
X102669966Y-192232534D01*
X102491431Y-192287993D01*
X102416537Y-192306355D01*
X102296903Y-192367475D01*
X102187980Y-192477494D01*
X102076008Y-192652056D01*
X102066584Y-192670698D01*
X101947226Y-192906808D01*
X101935364Y-192931733D01*
G37*
G36*
X89892321Y-174313708D02*
G01*
X90006744Y-174366283D01*
X90062951Y-174492893D01*
X90064333Y-174699747D01*
X90031760Y-175027506D01*
X89995233Y-175403355D01*
X89968066Y-175697072D01*
X89949484Y-175919057D01*
X89938715Y-176079705D01*
X89934987Y-176189416D01*
X89937525Y-176258586D01*
X89945558Y-176297613D01*
X89952333Y-176311875D01*
X89986840Y-176334733D01*
X90055813Y-176322579D01*
X90176744Y-176270217D01*
X90367128Y-176172455D01*
X90405617Y-176151642D01*
X90645798Y-176008025D01*
X90902772Y-175836470D01*
X91127108Y-175669680D01*
X91133155Y-175664841D01*
X91386294Y-175478367D01*
X91587246Y-175367544D01*
X91745159Y-175328524D01*
X91869179Y-175357458D01*
X91885725Y-175368868D01*
X91915091Y-175411232D01*
X91934834Y-175489703D01*
X91946807Y-175620396D01*
X91952862Y-175819428D01*
X91954852Y-176102913D01*
X91952398Y-176390826D01*
X91944233Y-176700726D01*
X91931426Y-177001200D01*
X91915079Y-177274014D01*
X91896290Y-177500935D01*
X91876162Y-177663732D01*
X91855794Y-177744171D01*
X91831562Y-177769644D01*
X91741510Y-177768776D01*
X91602504Y-177682407D01*
X91561317Y-177648115D01*
X91525608Y-177604719D01*
X91501231Y-177542385D01*
X91485776Y-177444784D01*
X91476832Y-177295583D01*
X91471986Y-177078453D01*
X91468828Y-176777062D01*
X91466908Y-176596502D01*
X91463134Y-176348167D01*
X91458718Y-176149957D01*
X91454062Y-176018694D01*
X91449568Y-175971201D01*
X91440475Y-175975571D01*
X91367267Y-176019526D01*
X91237871Y-176100667D01*
X91072341Y-176206486D01*
X91070305Y-176207797D01*
X90830082Y-176356420D01*
X90581735Y-176499735D01*
X90343898Y-176628059D01*
X90135204Y-176731709D01*
X89974287Y-176801001D01*
X89879782Y-176826250D01*
X89860732Y-176823025D01*
X89770384Y-176766816D01*
X89672968Y-176662785D01*
X89642699Y-176620543D01*
X89594021Y-176530856D01*
X89566078Y-176423782D01*
X89553356Y-176271614D01*
X89550341Y-176046646D01*
X89550552Y-175999807D01*
X89557772Y-175713552D01*
X89573201Y-175398983D01*
X89594020Y-175116151D01*
X89604016Y-175003062D01*
X89620556Y-174795366D01*
X89631233Y-174631678D01*
X89634096Y-174540053D01*
X89641508Y-174465657D01*
X89715128Y-174353167D01*
X89852123Y-174311398D01*
X89892321Y-174313708D01*
G37*
G36*
X88862748Y-174853463D02*
G01*
X88787135Y-175243956D01*
X88679028Y-175577471D01*
X88544027Y-175839881D01*
X88387731Y-176017056D01*
X88255014Y-176088774D01*
X88026025Y-176122091D01*
X87912427Y-176117270D01*
X87807221Y-176088619D01*
X87705884Y-176018307D01*
X87574156Y-175888631D01*
X87520566Y-175831179D01*
X87339965Y-175598311D01*
X87223907Y-175358113D01*
X87161321Y-175081164D01*
X87141132Y-174738044D01*
X87140872Y-174672555D01*
X87143002Y-174581600D01*
X87514055Y-174581600D01*
X87518575Y-174686531D01*
X87554807Y-174943470D01*
X87619277Y-175205547D01*
X87702325Y-175437520D01*
X87794294Y-175604145D01*
X87864988Y-175689207D01*
X87962548Y-175757597D01*
X88058350Y-175737817D01*
X88177861Y-175631695D01*
X88265653Y-175495253D01*
X88348532Y-175287628D01*
X88414609Y-175045202D01*
X88454835Y-174801384D01*
X88460158Y-174589588D01*
X88451169Y-174515907D01*
X88415355Y-174412289D01*
X88336107Y-174317274D01*
X88192321Y-174200177D01*
X88139293Y-174161217D01*
X87941186Y-174043666D01*
X87788919Y-174009655D01*
X87674374Y-174059070D01*
X87589432Y-174191798D01*
X87582191Y-174210075D01*
X87533554Y-174393832D01*
X87514055Y-174581600D01*
X87143002Y-174581600D01*
X87145930Y-174456534D01*
X87165665Y-174296786D01*
X87206542Y-174157879D01*
X87275028Y-174004383D01*
X87309520Y-173937581D01*
X87445059Y-173746061D01*
X87601589Y-173639946D01*
X87794809Y-173607240D01*
X87941691Y-173633315D01*
X88126714Y-173718293D01*
X88270718Y-173837132D01*
X88295315Y-173861493D01*
X88408320Y-173939502D01*
X88554530Y-174013958D01*
X88602702Y-174036208D01*
X88759859Y-174147813D01*
X88852557Y-174302070D01*
X88887066Y-174514641D01*
X88882512Y-174589588D01*
X88869656Y-174801190D01*
X88862748Y-174853463D01*
G37*
G36*
X99602896Y-192164686D02*
G01*
X99509766Y-192238275D01*
X99484004Y-192338547D01*
X99482013Y-192371434D01*
X99427278Y-192491967D01*
X99317745Y-192553684D01*
X99180572Y-192548573D01*
X99042918Y-192468626D01*
X99036089Y-192462319D01*
X98921436Y-192380769D01*
X98852907Y-192388450D01*
X98830143Y-192485392D01*
X98823077Y-192564313D01*
X98796612Y-192636283D01*
X98788346Y-192643763D01*
X98691984Y-192666131D01*
X98586114Y-192606943D01*
X98578062Y-192600022D01*
X98478128Y-192560289D01*
X98338307Y-192544072D01*
X98204462Y-192522608D01*
X98133241Y-192463484D01*
X98145283Y-192386152D01*
X98248146Y-192310215D01*
X98347389Y-192233926D01*
X98374811Y-192116547D01*
X98654103Y-192116547D01*
X98664427Y-192131599D01*
X98707369Y-192166844D01*
X98712388Y-192165536D01*
X98729549Y-192116547D01*
X98727502Y-192102761D01*
X98676283Y-192066250D01*
X98658091Y-192070199D01*
X98654103Y-192116547D01*
X98374811Y-192116547D01*
X98377470Y-192105167D01*
X98391330Y-191976509D01*
X98464066Y-191831643D01*
X98586346Y-191765153D01*
X98743676Y-191782767D01*
X98921564Y-191890210D01*
X99013778Y-191962036D01*
X99112434Y-192010574D01*
X99156387Y-191978652D01*
X99149684Y-191865836D01*
X99147013Y-191755076D01*
X99197944Y-191678551D01*
X99288283Y-191679526D01*
X99395590Y-191767019D01*
X99410050Y-191784169D01*
X99516871Y-191861208D01*
X99664389Y-191872147D01*
X99753463Y-191868544D01*
X99820128Y-191891512D01*
X99836083Y-191961127D01*
X99794439Y-192056358D01*
X99695907Y-192116547D01*
X99660044Y-192138454D01*
X99602896Y-192164686D01*
G37*
G36*
X97922552Y-190679190D02*
G01*
X98002662Y-190866408D01*
X98026227Y-190939900D01*
X98055055Y-191017039D01*
X98092741Y-191065726D01*
X98154046Y-191086536D01*
X98253736Y-191080043D01*
X98406572Y-191046821D01*
X98627318Y-190987443D01*
X98930737Y-190902484D01*
X99104245Y-190857159D01*
X99314057Y-190810943D01*
X99478449Y-190784625D01*
X99572024Y-190782940D01*
X99648293Y-190825209D01*
X99683923Y-190927059D01*
X99647377Y-191065038D01*
X99539962Y-191221263D01*
X99524889Y-191238026D01*
X99434191Y-191327001D01*
X99372395Y-191348691D01*
X99311336Y-191314593D01*
X99267488Y-191259299D01*
X99256126Y-191171932D01*
X99259297Y-191163088D01*
X99251631Y-191120193D01*
X99170395Y-191131074D01*
X99142031Y-191138952D01*
X99013132Y-191173255D01*
X98828185Y-191221360D01*
X98617132Y-191275452D01*
X98177785Y-191387240D01*
X98207167Y-191547442D01*
X98207758Y-191550713D01*
X98218167Y-191677751D01*
X98203447Y-191761204D01*
X98137326Y-191811331D01*
X98048009Y-191792356D01*
X97976591Y-191701596D01*
X97965112Y-191671684D01*
X97920531Y-191542848D01*
X97860466Y-191358974D01*
X97794586Y-191149396D01*
X97731869Y-190934702D01*
X97698976Y-190785875D01*
X97696038Y-190693057D01*
X97720242Y-190636841D01*
X97755369Y-190602919D01*
X97839884Y-190591167D01*
X97922552Y-190679190D01*
G37*
G36*
X103743539Y-189862735D02*
G01*
X103676475Y-189889888D01*
X103616256Y-189978923D01*
X103565825Y-190103917D01*
X103467545Y-190211907D01*
X103355863Y-190255557D01*
X103257890Y-190226168D01*
X103141963Y-190154963D01*
X103105921Y-190127847D01*
X102995814Y-190065397D01*
X102934903Y-190065734D01*
X102936556Y-190130455D01*
X102942694Y-190181670D01*
X102904548Y-190280289D01*
X102827416Y-190318305D01*
X102720227Y-190293467D01*
X102629448Y-190208301D01*
X102626441Y-190204481D01*
X102554246Y-190182798D01*
X102432902Y-190188796D01*
X102361459Y-190194928D01*
X102251515Y-190166743D01*
X102217281Y-190096342D01*
X102261936Y-190003812D01*
X102388658Y-189909238D01*
X102464814Y-189844141D01*
X102489014Y-189752586D01*
X102753311Y-189752586D01*
X102754773Y-189764609D01*
X102803608Y-189802884D01*
X102815630Y-189801422D01*
X102853905Y-189752586D01*
X102852444Y-189740564D01*
X102803608Y-189702289D01*
X102791586Y-189703751D01*
X102753311Y-189752586D01*
X102489014Y-189752586D01*
X102501826Y-189704112D01*
X102523150Y-189571708D01*
X102606546Y-189453991D01*
X102733890Y-189407460D01*
X102884599Y-189437975D01*
X103038092Y-189551398D01*
X103138131Y-189643596D01*
X103235399Y-189697655D01*
X103290697Y-189682867D01*
X103290736Y-189596844D01*
X103282426Y-189559136D01*
X103287401Y-189425250D01*
X103346316Y-189360247D01*
X103437455Y-189374488D01*
X103539102Y-189478336D01*
X103566937Y-189517728D01*
X103649317Y-189580647D01*
X103766639Y-189574924D01*
X103771448Y-189573885D01*
X103886124Y-189568837D01*
X103940960Y-189623479D01*
X103942261Y-189716183D01*
X103914807Y-189752586D01*
X103870939Y-189810753D01*
X103743539Y-189862735D01*
G37*
G36*
X102081132Y-188235731D02*
G01*
X102137620Y-188312762D01*
X102191461Y-188470012D01*
X102218564Y-188564604D01*
X102255310Y-188683792D01*
X102275513Y-188736804D01*
X102276860Y-188737385D01*
X102338830Y-188731321D01*
X102477827Y-188708074D01*
X102674765Y-188671045D01*
X102910559Y-188623635D01*
X103180292Y-188569705D01*
X103446808Y-188523366D01*
X103637896Y-188501639D01*
X103765800Y-188503953D01*
X103842765Y-188529739D01*
X103881035Y-188578425D01*
X103880625Y-188661845D01*
X103826037Y-188788052D01*
X103734903Y-188913792D01*
X103630723Y-189007657D01*
X103536996Y-189038239D01*
X103466377Y-189008174D01*
X103436315Y-188910111D01*
X103437632Y-188859177D01*
X103426576Y-188815850D01*
X103381277Y-188804653D01*
X103280593Y-188822908D01*
X103103384Y-188867936D01*
X103007654Y-188891384D01*
X102783563Y-188939640D01*
X102584851Y-188974990D01*
X102473518Y-188992915D01*
X102385646Y-189020604D01*
X102358647Y-189068253D01*
X102369721Y-189154932D01*
X102381443Y-189271242D01*
X102369335Y-189374809D01*
X102341153Y-189420950D01*
X102260720Y-189453099D01*
X102175554Y-189414137D01*
X102119436Y-189312487D01*
X102118492Y-189308457D01*
X102088425Y-189187295D01*
X102042186Y-189008204D01*
X101989382Y-188808414D01*
X101970782Y-188736981D01*
X101919962Y-188496321D01*
X101911268Y-188335841D01*
X101945216Y-188246318D01*
X102022321Y-188218527D01*
X102081132Y-188235731D01*
G37*
G36*
X99358089Y-184639971D02*
G01*
X99456205Y-184680908D01*
X99474573Y-184754208D01*
X99411208Y-184864101D01*
X99264123Y-185014819D01*
X99031331Y-185210592D01*
X98861597Y-185333040D01*
X98478288Y-185525439D01*
X98050539Y-185631152D01*
X97928697Y-185648806D01*
X97503137Y-185716878D01*
X97162331Y-185783333D01*
X96893707Y-185850556D01*
X96821653Y-185869210D01*
X96603858Y-185909118D01*
X96404603Y-185926618D01*
X96350213Y-185926935D01*
X96223231Y-185915800D01*
X96148793Y-185873055D01*
X96090381Y-185781879D01*
X96044799Y-185681071D01*
X96050945Y-185618535D01*
X96118622Y-185560311D01*
X96229090Y-185514230D01*
X96380265Y-185531845D01*
X96455510Y-185544785D01*
X96641283Y-185546579D01*
X96856848Y-185525317D01*
X97059928Y-185486011D01*
X97208245Y-185433675D01*
X97300695Y-185404968D01*
X97460619Y-185376037D01*
X97651084Y-185354063D01*
X97909114Y-185310005D01*
X98268969Y-185189933D01*
X98622622Y-185013093D01*
X98935008Y-184794761D01*
X99042659Y-184711880D01*
X99176816Y-184643369D01*
X99302849Y-184632264D01*
X99358089Y-184639971D01*
G37*
G36*
X95418681Y-183597363D02*
G01*
X95560474Y-183729099D01*
X95695413Y-183957167D01*
X95773797Y-184139776D01*
X95816683Y-184306863D01*
X95800612Y-184424942D01*
X95726553Y-184511272D01*
X95673698Y-184540408D01*
X95517320Y-184551735D01*
X95336304Y-184481409D01*
X95146933Y-184334400D01*
X95053401Y-184227194D01*
X94962349Y-184036528D01*
X94966367Y-183851760D01*
X95066633Y-183682462D01*
X95125885Y-183627846D01*
X95272872Y-183563198D01*
X95418681Y-183597363D01*
G37*
G36*
X98875364Y-182559858D02*
G01*
X99004369Y-182697529D01*
X99031244Y-182738254D01*
X99113918Y-182902588D01*
X99120403Y-183028241D01*
X99052887Y-183134934D01*
X99015396Y-183164178D01*
X98881269Y-183208178D01*
X98737066Y-183200495D01*
X98630592Y-183140500D01*
X98621866Y-183129032D01*
X98568767Y-183004517D01*
X98541082Y-182843657D01*
X98542887Y-182689661D01*
X98578258Y-182585741D01*
X98619741Y-182545753D01*
X98742071Y-182507932D01*
X98875364Y-182559858D01*
G37*
G36*
X94873189Y-181864257D02*
G01*
X94809831Y-181977071D01*
X94736749Y-182056169D01*
X94674830Y-182070734D01*
X94532619Y-181995565D01*
X94401277Y-181941862D01*
X94337381Y-181939342D01*
X94337103Y-181939628D01*
X94325815Y-182005292D01*
X94338827Y-182121055D01*
X94369353Y-182273688D01*
X94172916Y-182242454D01*
X94139765Y-182237991D01*
X93997324Y-182235562D01*
X93901034Y-182259153D01*
X93858554Y-182280424D01*
X93737569Y-182307856D01*
X93678743Y-182279113D01*
X93649174Y-182196368D01*
X93663640Y-182101944D01*
X93724286Y-182039224D01*
X93759669Y-182013399D01*
X93779884Y-181934178D01*
X93767842Y-181783059D01*
X93766083Y-181755359D01*
X94051925Y-181755359D01*
X94052502Y-181766741D01*
X94074105Y-181805656D01*
X94082173Y-181803341D01*
X94127371Y-181755359D01*
X94135230Y-181735876D01*
X94105190Y-181705062D01*
X94090591Y-181706995D01*
X94051925Y-181755359D01*
X93766083Y-181755359D01*
X93760218Y-181663032D01*
X93797745Y-181499494D01*
X93897419Y-181412767D01*
X94053785Y-181406166D01*
X94261390Y-181483005D01*
X94365654Y-181521726D01*
X94460673Y-181519221D01*
X94497390Y-181468933D01*
X94456602Y-181380903D01*
X94426525Y-181326521D01*
X94421947Y-181227880D01*
X94433038Y-181206585D01*
X94513831Y-181157193D01*
X94617437Y-181168266D01*
X94698810Y-181238135D01*
X94724401Y-181276967D01*
X94777784Y-181297428D01*
X94873956Y-181256601D01*
X94989885Y-181215557D01*
X95098163Y-181227558D01*
X95151312Y-181290354D01*
X95134455Y-181382701D01*
X95032717Y-181483350D01*
X94938563Y-181578545D01*
X94906975Y-181728199D01*
X94906583Y-181735876D01*
X94905936Y-181748547D01*
X94873189Y-181864257D01*
G37*
G36*
X94624659Y-180234214D02*
G01*
X94677045Y-180275189D01*
X94704753Y-180308245D01*
X94732605Y-180399130D01*
X94706025Y-180526519D01*
X94622241Y-180712540D01*
X94587374Y-180774363D01*
X94529901Y-180821691D01*
X94452573Y-180798790D01*
X94393550Y-180753005D01*
X94353707Y-180674565D01*
X94330385Y-180655196D01*
X94234584Y-180691257D01*
X94064499Y-180794782D01*
X93912623Y-180892305D01*
X93735499Y-180999665D01*
X93599252Y-181075450D01*
X93564803Y-181093004D01*
X93458028Y-181149071D01*
X93406929Y-181178665D01*
X93405467Y-181182146D01*
X93422821Y-181243622D01*
X93472961Y-181351921D01*
X93501928Y-181412060D01*
X93526612Y-181511632D01*
X93494269Y-181584607D01*
X93452381Y-181621540D01*
X93377941Y-181640284D01*
X93326559Y-181592180D01*
X93238704Y-181479913D01*
X93128074Y-181324293D01*
X93008313Y-181146114D01*
X92893065Y-180966169D01*
X92795976Y-180805252D01*
X92730689Y-180684156D01*
X92710850Y-180623676D01*
X92740761Y-180591097D01*
X92833375Y-180557671D01*
X92879237Y-180558695D01*
X92970354Y-180613029D01*
X93076516Y-180748531D01*
X93127456Y-180818273D01*
X93214190Y-180906912D01*
X93275190Y-180931317D01*
X93275761Y-180931093D01*
X93342332Y-180895539D01*
X93474871Y-180818191D01*
X93654430Y-180710293D01*
X93862062Y-180583086D01*
X93938302Y-180536069D01*
X94179647Y-180390195D01*
X94354710Y-180292454D01*
X94477736Y-180237464D01*
X94562971Y-180219845D01*
X94624659Y-180234214D01*
G37*
G36*
X98954289Y-179618658D02*
G01*
X98859124Y-179720443D01*
X98775072Y-179767084D01*
X98695100Y-179769740D01*
X98581013Y-179719547D01*
X98490840Y-179681544D01*
X98391208Y-179667556D01*
X98348282Y-179699500D01*
X98380654Y-179772463D01*
X98411393Y-179826447D01*
X98404898Y-179917090D01*
X98340053Y-179979941D01*
X98244187Y-179995232D01*
X98144631Y-179943193D01*
X98077785Y-179921488D01*
X97948608Y-179966264D01*
X97945486Y-179967876D01*
X97821240Y-180011852D01*
X97738832Y-179986726D01*
X97691441Y-179936189D01*
X97686081Y-179856209D01*
X97770923Y-179759509D01*
X97835895Y-179673629D01*
X97840451Y-179535515D01*
X97838047Y-179522864D01*
X97834837Y-179415536D01*
X98136731Y-179415536D01*
X98142750Y-179475227D01*
X98157879Y-179483096D01*
X98176282Y-179441695D01*
X98172652Y-179415068D01*
X98142750Y-179408164D01*
X98136731Y-179415536D01*
X97834837Y-179415536D01*
X97832525Y-179338260D01*
X97880650Y-179193351D01*
X97973847Y-179115160D01*
X98012808Y-179110200D01*
X98143358Y-179129782D01*
X98299702Y-179184001D01*
X98393344Y-179221172D01*
X98517636Y-179244573D01*
X98566339Y-179205036D01*
X98537483Y-179103230D01*
X98526202Y-179079004D01*
X98512148Y-178965532D01*
X98565778Y-178900795D01*
X98664138Y-178897382D01*
X98784276Y-178967883D01*
X98788926Y-178972045D01*
X98878204Y-179020109D01*
X98980780Y-178989158D01*
X99067947Y-178955742D01*
X99174230Y-178963212D01*
X99224997Y-179025988D01*
X99206947Y-179119702D01*
X99106777Y-179219984D01*
X99105620Y-179220744D01*
X99008838Y-179322212D01*
X98986580Y-179441695D01*
X98981034Y-179471469D01*
X98954289Y-179618658D01*
G37*
G36*
X98753682Y-177959194D02*
G01*
X98813464Y-178037200D01*
X98815432Y-178191509D01*
X98778621Y-178355888D01*
X98695614Y-178491449D01*
X98572499Y-178536349D01*
X98513429Y-178520014D01*
X98478064Y-178434139D01*
X98473958Y-178382702D01*
X98446942Y-178365139D01*
X98375755Y-178392612D01*
X98239153Y-178468143D01*
X98144532Y-178521820D01*
X97935092Y-178639529D01*
X97736700Y-178749890D01*
X97473157Y-178895423D01*
X97547730Y-179039631D01*
X97548214Y-179040569D01*
X97591347Y-179165783D01*
X97591181Y-179264939D01*
X97564359Y-179304404D01*
X97483945Y-179330996D01*
X97441051Y-179300078D01*
X97354112Y-179197831D01*
X97244180Y-179045420D01*
X97124950Y-178864579D01*
X97010117Y-178677041D01*
X96913378Y-178504541D01*
X96848428Y-178368813D01*
X96828963Y-178291592D01*
X96860721Y-178219476D01*
X96936354Y-178195319D01*
X97035042Y-178249682D01*
X97140516Y-178378050D01*
X97180110Y-178438738D01*
X97260416Y-178549886D01*
X97313373Y-178606937D01*
X97326713Y-178608794D01*
X97413981Y-178583061D01*
X97556267Y-178519386D01*
X97730362Y-178427746D01*
X97750094Y-178416671D01*
X97967993Y-178294509D01*
X98187692Y-178171522D01*
X98364443Y-178072763D01*
X98447638Y-178028656D01*
X98632826Y-177956631D01*
X98753682Y-177959194D01*
G37*
D12*
%TO.C,D53*%
X298581000Y-193110000D02*
X298581000Y-195510000D01*
X292856000Y-193110000D02*
X292856000Y-195510000D01*
X298856000Y-195510000D02*
X298856000Y-193110000D01*
X298456000Y-193110000D02*
X298456000Y-195510000D01*
X298731000Y-195510000D02*
X298731000Y-193110000D01*
X292856000Y-195510000D02*
X298856000Y-195510000D01*
X298856000Y-193110000D02*
X292856000Y-193110000D01*
%TO.C,D42*%
X255930000Y-155010000D02*
X249930000Y-155010000D01*
X255930000Y-157410000D02*
X255930000Y-155010000D01*
X255805000Y-157410000D02*
X255805000Y-155010000D01*
X255530000Y-155010000D02*
X255530000Y-157410000D01*
X249930000Y-157410000D02*
X255930000Y-157410000D01*
X255655000Y-155010000D02*
X255655000Y-157410000D01*
X249930000Y-155010000D02*
X249930000Y-157410000D01*
%TO.C,D67*%
X374931000Y-138360000D02*
X374931000Y-135960000D01*
X369056000Y-138360000D02*
X375056000Y-138360000D01*
X374781000Y-135960000D02*
X374781000Y-138360000D01*
X374656000Y-135960000D02*
X374656000Y-138360000D01*
X375056000Y-135960000D02*
X369056000Y-135960000D01*
X369056000Y-135960000D02*
X369056000Y-138360000D01*
X375056000Y-138360000D02*
X375056000Y-135960000D01*
%TO.C,D10*%
X121406000Y-116910000D02*
X121406000Y-119310000D01*
X121406000Y-119310000D02*
X127406000Y-119310000D01*
X127406000Y-116910000D02*
X121406000Y-116910000D01*
X127131000Y-116910000D02*
X127131000Y-119310000D01*
X127281000Y-119310000D02*
X127281000Y-116910000D01*
X127006000Y-116910000D02*
X127006000Y-119310000D01*
X127406000Y-119310000D02*
X127406000Y-116910000D01*
D13*
%TO.C,R4*%
X100557064Y-127281000D02*
X100102936Y-127281000D01*
X100557064Y-128751000D02*
X100102936Y-128751000D01*
D12*
%TO.C,D3*%
X83306000Y-119310000D02*
X89306000Y-119310000D01*
X83306000Y-116910000D02*
X83306000Y-119310000D01*
X89181000Y-119310000D02*
X89181000Y-116910000D01*
X89031000Y-116910000D02*
X89031000Y-119310000D01*
X88906000Y-116910000D02*
X88906000Y-119310000D01*
X89306000Y-119310000D02*
X89306000Y-116910000D01*
X89306000Y-116910000D02*
X83306000Y-116910000D01*
%TO.C,D25*%
X173730000Y-155010000D02*
X173730000Y-157410000D01*
X179730000Y-157410000D02*
X179730000Y-155010000D01*
X179605000Y-157410000D02*
X179605000Y-155010000D01*
X179455000Y-155010000D02*
X179455000Y-157410000D01*
X173730000Y-157410000D02*
X179730000Y-157410000D01*
X179730000Y-155010000D02*
X173730000Y-155010000D01*
X179330000Y-155010000D02*
X179330000Y-157410000D01*
%TO.C,D55*%
X302508000Y-135960000D02*
X302508000Y-138360000D01*
X308383000Y-138360000D02*
X308383000Y-135960000D01*
X308508000Y-138360000D02*
X308508000Y-135960000D01*
X308508000Y-135960000D02*
X302508000Y-135960000D01*
X308108000Y-135960000D02*
X308108000Y-138360000D01*
X308233000Y-135960000D02*
X308233000Y-138360000D01*
X302508000Y-138360000D02*
X308508000Y-138360000D01*
%TO.C,D58*%
X327283000Y-135960000D02*
X327283000Y-138360000D01*
X327558000Y-138360000D02*
X327558000Y-135960000D01*
X327433000Y-138360000D02*
X327433000Y-135960000D01*
X321558000Y-138360000D02*
X327558000Y-138360000D01*
X327158000Y-135960000D02*
X327158000Y-138360000D01*
X327558000Y-135960000D02*
X321558000Y-135960000D01*
X321558000Y-135960000D02*
X321558000Y-138360000D01*
%TO.C,D7*%
X91592000Y-195510000D02*
X91592000Y-193110000D01*
X85592000Y-193110000D02*
X85592000Y-195510000D01*
X91192000Y-193110000D02*
X91192000Y-195510000D01*
X91467000Y-195510000D02*
X91467000Y-193110000D01*
X91592000Y-193110000D02*
X85592000Y-193110000D01*
X85592000Y-195510000D02*
X91592000Y-195510000D01*
X91317000Y-193110000D02*
X91317000Y-195510000D01*
D13*
%TO.C,R2*%
X81560936Y-123925000D02*
X82015064Y-123925000D01*
X81560936Y-122455000D02*
X82015064Y-122455000D01*
%TO.C,C1*%
X149852748Y-189003000D02*
X150375252Y-189003000D01*
X149852748Y-190473000D02*
X150375252Y-190473000D01*
D12*
%TO.C,D48*%
X279806000Y-193110000D02*
X273806000Y-193110000D01*
X279406000Y-193110000D02*
X279406000Y-195510000D01*
X273806000Y-193110000D02*
X273806000Y-195510000D01*
X279806000Y-195510000D02*
X279806000Y-193110000D01*
X273806000Y-195510000D02*
X279806000Y-195510000D01*
X279681000Y-195510000D02*
X279681000Y-193110000D01*
X279531000Y-193110000D02*
X279531000Y-195510000D01*
D13*
%TO.C,C3*%
X177755943Y-182138610D02*
X178125410Y-181769143D01*
X178795390Y-183178057D02*
X179164857Y-182808590D01*
D12*
%TO.C,D19*%
X165381000Y-119310000D02*
X165381000Y-116910000D01*
X159506000Y-116910000D02*
X159506000Y-119310000D01*
X165506000Y-119310000D02*
X165506000Y-116910000D01*
X165106000Y-116910000D02*
X165106000Y-119310000D01*
X165506000Y-116910000D02*
X159506000Y-116910000D01*
X165231000Y-116910000D02*
X165231000Y-119310000D01*
X159506000Y-119310000D02*
X165506000Y-119310000D01*
%TO.C,D8*%
X102356000Y-119310000D02*
X108356000Y-119310000D01*
X108356000Y-116910000D02*
X102356000Y-116910000D01*
X108231000Y-119310000D02*
X108231000Y-116910000D01*
X108356000Y-119310000D02*
X108356000Y-116910000D01*
X102356000Y-116910000D02*
X102356000Y-119310000D01*
X108081000Y-116910000D02*
X108081000Y-119310000D01*
X107956000Y-116910000D02*
X107956000Y-119310000D01*
%TO.C,D70*%
X374781000Y-193110000D02*
X374781000Y-195510000D01*
X369056000Y-193110000D02*
X369056000Y-195510000D01*
X374656000Y-193110000D02*
X374656000Y-195510000D01*
X374931000Y-195510000D02*
X374931000Y-193110000D01*
X369056000Y-195510000D02*
X375056000Y-195510000D01*
X375056000Y-193110000D02*
X369056000Y-193110000D01*
X375056000Y-195510000D02*
X375056000Y-193110000D01*
%TO.C,D4*%
X88132000Y-138360000D02*
X94132000Y-138360000D01*
X93857000Y-135960000D02*
X93857000Y-138360000D01*
X94007000Y-138360000D02*
X94007000Y-135960000D01*
X94132000Y-138360000D02*
X94132000Y-135960000D01*
X93732000Y-135960000D02*
X93732000Y-138360000D01*
X94132000Y-135960000D02*
X88132000Y-135960000D01*
X88132000Y-135960000D02*
X88132000Y-138360000D01*
%TO.C,D56*%
X313080000Y-155010000D02*
X307080000Y-155010000D01*
X307080000Y-155010000D02*
X307080000Y-157410000D01*
X312680000Y-155010000D02*
X312680000Y-157410000D01*
X307080000Y-157410000D02*
X313080000Y-157410000D01*
X312955000Y-157410000D02*
X312955000Y-155010000D01*
X313080000Y-157410000D02*
X313080000Y-155010000D01*
X312805000Y-155010000D02*
X312805000Y-157410000D01*
%TO.C,D59*%
X338068000Y-155010000D02*
X338068000Y-157410000D01*
X343668000Y-155010000D02*
X343668000Y-157410000D01*
X343943000Y-157410000D02*
X343943000Y-155010000D01*
X338068000Y-157410000D02*
X344068000Y-157410000D01*
X344068000Y-157410000D02*
X344068000Y-155010000D01*
X344068000Y-155010000D02*
X338068000Y-155010000D01*
X343793000Y-155010000D02*
X343793000Y-157410000D01*
D13*
%TO.C,R5*%
X90451000Y-117374936D02*
X90451000Y-117829064D01*
X91921000Y-117374936D02*
X91921000Y-117829064D01*
D12*
%TO.C,D41*%
X251358000Y-135960000D02*
X245358000Y-135960000D01*
X245358000Y-135960000D02*
X245358000Y-138360000D01*
X245358000Y-138360000D02*
X251358000Y-138360000D01*
X251083000Y-135960000D02*
X251083000Y-138360000D01*
X250958000Y-135960000D02*
X250958000Y-138360000D01*
X251358000Y-138360000D02*
X251358000Y-135960000D01*
X251233000Y-138360000D02*
X251233000Y-135960000D01*
D13*
%TO.C,C2*%
X149852748Y-198347000D02*
X150375252Y-198347000D01*
X149852748Y-196877000D02*
X150375252Y-196877000D01*
D12*
%TO.C,D37*%
X231908000Y-135960000D02*
X231908000Y-138360000D01*
X232033000Y-135960000D02*
X232033000Y-138360000D01*
X232183000Y-138360000D02*
X232183000Y-135960000D01*
X232308000Y-138360000D02*
X232308000Y-135960000D01*
X226308000Y-135960000D02*
X226308000Y-138360000D01*
X232308000Y-135960000D02*
X226308000Y-135960000D01*
X226308000Y-138360000D02*
X232308000Y-138360000D01*
%TO.C,D27*%
X197606000Y-119310000D02*
X203606000Y-119310000D01*
X203481000Y-119310000D02*
X203481000Y-116910000D01*
X203206000Y-116910000D02*
X203206000Y-119310000D01*
X203331000Y-116910000D02*
X203331000Y-119310000D01*
X197606000Y-116910000D02*
X197606000Y-119310000D01*
X203606000Y-116910000D02*
X197606000Y-116910000D01*
X203606000Y-119310000D02*
X203606000Y-116910000D01*
%TO.C,D33*%
X213258000Y-135960000D02*
X207258000Y-135960000D01*
X212983000Y-135960000D02*
X212983000Y-138360000D01*
X212858000Y-135960000D02*
X212858000Y-138360000D01*
X213258000Y-138360000D02*
X213258000Y-135960000D01*
X213133000Y-138360000D02*
X213133000Y-135960000D01*
X207258000Y-135960000D02*
X207258000Y-138360000D01*
X207258000Y-138360000D02*
X213258000Y-138360000D01*
%TO.C,D65*%
X355881000Y-195510000D02*
X355881000Y-193110000D01*
X350006000Y-193110000D02*
X350006000Y-195510000D01*
X355731000Y-193110000D02*
X355731000Y-195510000D01*
X356006000Y-195510000D02*
X356006000Y-193110000D01*
X356006000Y-193110000D02*
X350006000Y-193110000D01*
X350006000Y-195510000D02*
X356006000Y-195510000D01*
X355606000Y-193110000D02*
X355606000Y-195510000D01*
D13*
%TO.C,C6*%
X165615252Y-197331000D02*
X165092748Y-197331000D01*
X165615252Y-195861000D02*
X165092748Y-195861000D01*
D12*
%TO.C,D34*%
X217705000Y-157410000D02*
X217705000Y-155010000D01*
X211830000Y-157410000D02*
X217830000Y-157410000D01*
X217430000Y-155010000D02*
X217430000Y-157410000D01*
X217830000Y-155010000D02*
X211830000Y-155010000D01*
X211830000Y-155010000D02*
X211830000Y-157410000D01*
X217830000Y-157410000D02*
X217830000Y-155010000D01*
X217555000Y-155010000D02*
X217555000Y-157410000D01*
%TO.C,D24*%
X174629000Y-135960000D02*
X174629000Y-138360000D01*
X174779000Y-138360000D02*
X174779000Y-135960000D01*
X174504000Y-135960000D02*
X174504000Y-138360000D01*
X168904000Y-138360000D02*
X174904000Y-138360000D01*
X174904000Y-135960000D02*
X168904000Y-135960000D01*
X168904000Y-135960000D02*
X168904000Y-138360000D01*
X174904000Y-138360000D02*
X174904000Y-135960000D01*
%TO.C,D64*%
X356006000Y-174060000D02*
X350006000Y-174060000D01*
X356006000Y-176460000D02*
X356006000Y-174060000D01*
X350006000Y-176460000D02*
X356006000Y-176460000D01*
X355881000Y-176460000D02*
X355881000Y-174060000D01*
X350006000Y-174060000D02*
X350006000Y-176460000D01*
X355731000Y-174060000D02*
X355731000Y-176460000D01*
X355606000Y-174060000D02*
X355606000Y-176460000D01*
%TO.C,D18*%
X139219000Y-195510000D02*
X139219000Y-193110000D01*
X139344000Y-193110000D02*
X133344000Y-193110000D01*
X133344000Y-195510000D02*
X139344000Y-195510000D01*
X138944000Y-193110000D02*
X138944000Y-195510000D01*
X139069000Y-193110000D02*
X139069000Y-195510000D01*
X139344000Y-195510000D02*
X139344000Y-193110000D01*
X133344000Y-193110000D02*
X133344000Y-195510000D01*
%TO.C,D61*%
X330956000Y-195510000D02*
X336956000Y-195510000D01*
X330956000Y-193110000D02*
X330956000Y-195510000D01*
X336556000Y-193110000D02*
X336556000Y-195510000D01*
X336956000Y-195510000D02*
X336956000Y-193110000D01*
X336831000Y-195510000D02*
X336831000Y-193110000D01*
X336956000Y-193110000D02*
X330956000Y-193110000D01*
X336681000Y-193110000D02*
X336681000Y-195510000D01*
%TO.C,D63*%
X345180000Y-135960000D02*
X345180000Y-138360000D01*
X351180000Y-138360000D02*
X351180000Y-135960000D01*
X351180000Y-135960000D02*
X345180000Y-135960000D01*
X350905000Y-135960000D02*
X350905000Y-138360000D01*
X345180000Y-138360000D02*
X351180000Y-138360000D01*
X351055000Y-138360000D02*
X351055000Y-135960000D01*
X350780000Y-135960000D02*
X350780000Y-138360000D01*
%TO.C,D68*%
X375056000Y-155010000D02*
X369056000Y-155010000D01*
X369056000Y-155010000D02*
X369056000Y-157410000D01*
X369056000Y-157410000D02*
X375056000Y-157410000D01*
X375056000Y-157410000D02*
X375056000Y-155010000D01*
X374656000Y-155010000D02*
X374656000Y-157410000D01*
X374781000Y-155010000D02*
X374781000Y-157410000D01*
X374931000Y-157410000D02*
X374931000Y-155010000D01*
%TO.C,D38*%
X236480000Y-155010000D02*
X236480000Y-157410000D01*
X236880000Y-157410000D02*
X236880000Y-155010000D01*
X236605000Y-155010000D02*
X236605000Y-157410000D01*
X236755000Y-157410000D02*
X236755000Y-155010000D01*
X236880000Y-155010000D02*
X230880000Y-155010000D01*
X230880000Y-157410000D02*
X236880000Y-157410000D01*
X230880000Y-155010000D02*
X230880000Y-157410000D01*
%TO.C,D44*%
X279406000Y-116910000D02*
X279406000Y-119310000D01*
X279806000Y-119310000D02*
X279806000Y-116910000D01*
X279806000Y-116910000D02*
X273806000Y-116910000D01*
X273806000Y-119310000D02*
X279806000Y-119310000D01*
X279531000Y-116910000D02*
X279531000Y-119310000D01*
X273806000Y-116910000D02*
X273806000Y-119310000D01*
X279681000Y-119310000D02*
X279681000Y-116910000D01*
%TO.C,D12*%
X122305000Y-155010000D02*
X122305000Y-157410000D01*
X122180000Y-155010000D02*
X122180000Y-157410000D01*
X122455000Y-157410000D02*
X122455000Y-155010000D01*
X122580000Y-157410000D02*
X122580000Y-155010000D01*
X116580000Y-157410000D02*
X122580000Y-157410000D01*
X116580000Y-155010000D02*
X116580000Y-157410000D01*
X122580000Y-155010000D02*
X116580000Y-155010000D01*
%TO.C,D54*%
X317781000Y-119310000D02*
X317781000Y-116910000D01*
X317631000Y-116910000D02*
X317631000Y-119310000D01*
X311906000Y-119310000D02*
X317906000Y-119310000D01*
X317906000Y-116910000D02*
X311906000Y-116910000D01*
X317906000Y-119310000D02*
X317906000Y-116910000D01*
X317506000Y-116910000D02*
X317506000Y-119310000D01*
X311906000Y-116910000D02*
X311906000Y-119310000D01*
%TO.C,D6*%
X95244000Y-174060000D02*
X95244000Y-176460000D01*
X100844000Y-174060000D02*
X100844000Y-176460000D01*
X101244000Y-174060000D02*
X95244000Y-174060000D01*
X95244000Y-176460000D02*
X101244000Y-176460000D01*
X101119000Y-176460000D02*
X101119000Y-174060000D01*
X100969000Y-174060000D02*
X100969000Y-176460000D01*
X101244000Y-176460000D02*
X101244000Y-174060000D01*
D13*
%TO.C,R6*%
X101065000Y-117829064D02*
X101065000Y-117374936D01*
X99595000Y-117829064D02*
X99595000Y-117374936D01*
D12*
%TO.C,D29*%
X192780000Y-155010000D02*
X192780000Y-157410000D01*
X198505000Y-155010000D02*
X198505000Y-157410000D01*
X198380000Y-155010000D02*
X198380000Y-157410000D01*
X198655000Y-157410000D02*
X198655000Y-155010000D01*
X192780000Y-157410000D02*
X198780000Y-157410000D01*
X198780000Y-155010000D02*
X192780000Y-155010000D01*
X198780000Y-157410000D02*
X198780000Y-155010000D01*
%TO.C,D36*%
X241431000Y-116910000D02*
X241431000Y-119310000D01*
X235706000Y-116910000D02*
X235706000Y-119310000D01*
X241306000Y-116910000D02*
X241306000Y-119310000D01*
X241581000Y-119310000D02*
X241581000Y-116910000D01*
X241706000Y-119310000D02*
X241706000Y-116910000D01*
X241706000Y-116910000D02*
X235706000Y-116910000D01*
X235706000Y-119310000D02*
X241706000Y-119310000D01*
%TO.C,D39*%
X246132000Y-174060000D02*
X246132000Y-176460000D01*
X240532000Y-176460000D02*
X246532000Y-176460000D01*
X246257000Y-174060000D02*
X246257000Y-176460000D01*
X246407000Y-176460000D02*
X246407000Y-174060000D01*
X240532000Y-174060000D02*
X240532000Y-176460000D01*
X246532000Y-176460000D02*
X246532000Y-174060000D01*
X246532000Y-174060000D02*
X240532000Y-174060000D01*
%TO.C,D14*%
X140456000Y-116910000D02*
X140456000Y-119310000D01*
X146456000Y-116910000D02*
X140456000Y-116910000D01*
X140456000Y-119310000D02*
X146456000Y-119310000D01*
X146181000Y-116910000D02*
X146181000Y-119310000D01*
X146056000Y-116910000D02*
X146056000Y-119310000D01*
X146456000Y-119310000D02*
X146456000Y-116910000D01*
X146331000Y-119310000D02*
X146331000Y-116910000D01*
%TO.C,D50*%
X283458000Y-135960000D02*
X283458000Y-138360000D01*
X289183000Y-135960000D02*
X289183000Y-138360000D01*
X289058000Y-135960000D02*
X289058000Y-138360000D01*
X283458000Y-138360000D02*
X289458000Y-138360000D01*
X289333000Y-138360000D02*
X289333000Y-135960000D01*
X289458000Y-138360000D02*
X289458000Y-135960000D01*
X289458000Y-135960000D02*
X283458000Y-135960000D01*
%TO.C,D5*%
X90418000Y-155010000D02*
X90418000Y-157410000D01*
X96143000Y-155010000D02*
X96143000Y-157410000D01*
X96018000Y-155010000D02*
X96018000Y-157410000D01*
X96293000Y-157410000D02*
X96293000Y-155010000D01*
X96418000Y-155010000D02*
X90418000Y-155010000D01*
X96418000Y-157410000D02*
X96418000Y-155010000D01*
X90418000Y-157410000D02*
X96418000Y-157410000D01*
%TO.C,D40*%
X254756000Y-119310000D02*
X260756000Y-119310000D01*
X260481000Y-116910000D02*
X260481000Y-119310000D01*
X260356000Y-116910000D02*
X260356000Y-119310000D01*
X260631000Y-119310000D02*
X260631000Y-116910000D01*
X260756000Y-116910000D02*
X254756000Y-116910000D01*
X260756000Y-119310000D02*
X260756000Y-116910000D01*
X254756000Y-116910000D02*
X254756000Y-119310000D01*
%TO.C,D9*%
X115343000Y-195510000D02*
X115343000Y-193110000D01*
X109468000Y-195510000D02*
X115468000Y-195510000D01*
X115193000Y-193110000D02*
X115193000Y-195510000D01*
X115068000Y-193110000D02*
X115068000Y-195510000D01*
X115468000Y-195510000D02*
X115468000Y-193110000D01*
X115468000Y-193110000D02*
X109468000Y-193110000D01*
X109468000Y-193110000D02*
X109468000Y-195510000D01*
D13*
%TO.C,J2*%
X101220000Y-107512000D02*
X101220000Y-105512000D01*
X91820000Y-101712000D02*
X101220000Y-101712000D01*
X91820000Y-107512000D02*
X91820000Y-105512000D01*
X91820000Y-103612000D02*
X91820000Y-101712000D01*
X101220000Y-103612000D02*
X101220000Y-101712000D01*
D12*
%TO.C,D35*%
X227482000Y-174060000D02*
X221482000Y-174060000D01*
X227082000Y-174060000D02*
X227082000Y-176460000D01*
X227482000Y-176460000D02*
X227482000Y-174060000D01*
X227357000Y-176460000D02*
X227357000Y-174060000D01*
X221482000Y-174060000D02*
X221482000Y-176460000D01*
X227207000Y-174060000D02*
X227207000Y-176460000D01*
X221482000Y-176460000D02*
X227482000Y-176460000D01*
D13*
%TO.C,Y1*%
X147534000Y-196927000D02*
X147534000Y-190677000D01*
X142534000Y-196927000D02*
X142534000Y-190677000D01*
X142534000Y-196927000D02*
G75*
G03*
X147534000Y-196927000I2500000J0D01*
G01*
X147534000Y-190677000D02*
G75*
G03*
X142534000Y-190677000I-2500000J0D01*
G01*
D12*
%TO.C,D57*%
X317906000Y-193110000D02*
X311906000Y-193110000D01*
X317781000Y-195510000D02*
X317781000Y-193110000D01*
X317506000Y-193110000D02*
X317506000Y-195510000D01*
X317906000Y-195510000D02*
X317906000Y-193110000D01*
X311906000Y-195510000D02*
X317906000Y-195510000D01*
X311906000Y-193110000D02*
X311906000Y-195510000D01*
X317631000Y-193110000D02*
X317631000Y-195510000D01*
%TO.C,D16*%
X141230000Y-155010000D02*
X141230000Y-157410000D01*
X135630000Y-155010000D02*
X135630000Y-157410000D01*
X135630000Y-157410000D02*
X141630000Y-157410000D01*
X141355000Y-155010000D02*
X141355000Y-157410000D01*
X141630000Y-155010000D02*
X135630000Y-155010000D01*
X141630000Y-157410000D02*
X141630000Y-155010000D01*
X141505000Y-157410000D02*
X141505000Y-155010000D01*
D11*
%TO.C,U1*%
X178514555Y-189738000D02*
X178037258Y-189260703D01*
X163877445Y-189738000D02*
X164354742Y-189260703D01*
X170789414Y-196649969D02*
X169887852Y-197551530D01*
X171196000Y-197056555D02*
X170789414Y-196649969D01*
X171196000Y-197056555D02*
X171673297Y-196579258D01*
X178514555Y-189738000D02*
X178037258Y-190215297D01*
X171196000Y-182419445D02*
X170718703Y-182896742D01*
X171196000Y-182419445D02*
X171673297Y-182896742D01*
X163877445Y-189738000D02*
X164354742Y-190215297D01*
D12*
%TO.C,D21*%
X160934000Y-155010000D02*
X154934000Y-155010000D01*
X160934000Y-157410000D02*
X160934000Y-155010000D01*
X154934000Y-157410000D02*
X160934000Y-157410000D01*
X160534000Y-155010000D02*
X160534000Y-157410000D01*
X154934000Y-155010000D02*
X154934000Y-157410000D01*
X160809000Y-157410000D02*
X160809000Y-155010000D01*
X160659000Y-155010000D02*
X160659000Y-157410000D01*
%TO.C,D51*%
X288030000Y-157410000D02*
X294030000Y-157410000D01*
X293755000Y-155010000D02*
X293755000Y-157410000D01*
X294030000Y-157410000D02*
X294030000Y-155010000D01*
X288030000Y-155010000D02*
X288030000Y-157410000D01*
X294030000Y-155010000D02*
X288030000Y-155010000D01*
X293630000Y-155010000D02*
X293630000Y-157410000D01*
X293905000Y-157410000D02*
X293905000Y-155010000D01*
D13*
%TO.C,R1*%
X229335000Y-185192936D02*
X229335000Y-185647064D01*
X227865000Y-185192936D02*
X227865000Y-185647064D01*
D12*
%TO.C,D49*%
X292856000Y-116910000D02*
X292856000Y-119310000D01*
X298456000Y-116910000D02*
X298456000Y-119310000D01*
X292856000Y-119310000D02*
X298856000Y-119310000D01*
X298731000Y-119310000D02*
X298731000Y-116910000D01*
X298856000Y-119310000D02*
X298856000Y-116910000D01*
X298856000Y-116910000D02*
X292856000Y-116910000D01*
X298581000Y-116910000D02*
X298581000Y-119310000D01*
%TO.C,D69*%
X375056000Y-176460000D02*
X375056000Y-174060000D01*
X374931000Y-176460000D02*
X374931000Y-174060000D01*
X369056000Y-176460000D02*
X375056000Y-176460000D01*
X374656000Y-174060000D02*
X374656000Y-176460000D01*
X375056000Y-174060000D02*
X369056000Y-174060000D01*
X374781000Y-174060000D02*
X374781000Y-176460000D01*
X369056000Y-174060000D02*
X369056000Y-176460000D01*
%TO.C,D13*%
X132232000Y-176460000D02*
X132232000Y-174060000D01*
X126232000Y-174060000D02*
X126232000Y-176460000D01*
X132107000Y-176460000D02*
X132107000Y-174060000D01*
X131832000Y-174060000D02*
X131832000Y-176460000D01*
X126232000Y-176460000D02*
X132232000Y-176460000D01*
X131957000Y-174060000D02*
X131957000Y-176460000D01*
X132232000Y-174060000D02*
X126232000Y-174060000D01*
%TO.C,D30*%
X202432000Y-174060000D02*
X202432000Y-176460000D01*
X208157000Y-174060000D02*
X208157000Y-176460000D01*
X202432000Y-176460000D02*
X208432000Y-176460000D01*
X208432000Y-174060000D02*
X202432000Y-174060000D01*
X208032000Y-174060000D02*
X208032000Y-176460000D01*
X208432000Y-176460000D02*
X208432000Y-174060000D01*
X208307000Y-176460000D02*
X208307000Y-174060000D01*
%TO.C,D11*%
X118008000Y-135960000D02*
X112008000Y-135960000D01*
X118008000Y-138360000D02*
X118008000Y-135960000D01*
X117883000Y-138360000D02*
X117883000Y-135960000D01*
X112008000Y-138360000D02*
X118008000Y-138360000D01*
X112008000Y-135960000D02*
X112008000Y-138360000D01*
X117733000Y-135960000D02*
X117733000Y-138360000D01*
X117608000Y-135960000D02*
X117608000Y-138360000D01*
%TO.C,D43*%
X265457000Y-176460000D02*
X265457000Y-174060000D01*
X265582000Y-174060000D02*
X259582000Y-174060000D01*
X259582000Y-174060000D02*
X259582000Y-176460000D01*
X265307000Y-174060000D02*
X265307000Y-176460000D01*
X265582000Y-176460000D02*
X265582000Y-174060000D01*
X265182000Y-174060000D02*
X265182000Y-176460000D01*
X259582000Y-176460000D02*
X265582000Y-176460000D01*
%TO.C,D47*%
X284232000Y-174060000D02*
X284232000Y-176460000D01*
X284632000Y-176460000D02*
X284632000Y-174060000D01*
X278632000Y-174060000D02*
X278632000Y-176460000D01*
X284632000Y-174060000D02*
X278632000Y-174060000D01*
X278632000Y-176460000D02*
X284632000Y-176460000D01*
X284357000Y-174060000D02*
X284357000Y-176460000D01*
X284507000Y-176460000D02*
X284507000Y-174060000D01*
%TO.C,D62*%
X346483000Y-119310000D02*
X346483000Y-116910000D01*
X346608000Y-116910000D02*
X340608000Y-116910000D01*
X346608000Y-119310000D02*
X346608000Y-116910000D01*
X346333000Y-116910000D02*
X346333000Y-119310000D01*
X340608000Y-116910000D02*
X340608000Y-119310000D01*
X340608000Y-119310000D02*
X346608000Y-119310000D01*
X346208000Y-116910000D02*
X346208000Y-119310000D01*
%TO.C,D60*%
X329844000Y-176460000D02*
X329844000Y-174060000D01*
X329444000Y-174060000D02*
X329444000Y-176460000D01*
X323844000Y-176460000D02*
X329844000Y-176460000D01*
X329569000Y-174060000D02*
X329569000Y-176460000D01*
X329719000Y-176460000D02*
X329719000Y-174060000D01*
X329844000Y-174060000D02*
X323844000Y-174060000D01*
X323844000Y-174060000D02*
X323844000Y-176460000D01*
%TO.C,D46*%
X274705000Y-155010000D02*
X274705000Y-157410000D01*
X268980000Y-155010000D02*
X268980000Y-157410000D01*
X274580000Y-155010000D02*
X274580000Y-157410000D01*
X274855000Y-157410000D02*
X274855000Y-155010000D01*
X274980000Y-155010000D02*
X268980000Y-155010000D01*
X268980000Y-157410000D02*
X274980000Y-157410000D01*
X274980000Y-157410000D02*
X274980000Y-155010000D01*
D13*
%TO.C,C4*%
X164257010Y-183584457D02*
X163887543Y-183214990D01*
X165296457Y-182545010D02*
X164926990Y-182175543D01*
D12*
%TO.C,D22*%
X164332000Y-174060000D02*
X164332000Y-176460000D01*
X170057000Y-174060000D02*
X170057000Y-176460000D01*
X170332000Y-174060000D02*
X164332000Y-174060000D01*
X170207000Y-176460000D02*
X170207000Y-174060000D01*
X164332000Y-176460000D02*
X170332000Y-176460000D01*
X169932000Y-174060000D02*
X169932000Y-176460000D01*
X170332000Y-176460000D02*
X170332000Y-174060000D01*
D13*
%TO.C,C7*%
X181247148Y-194083000D02*
X181769652Y-194083000D01*
X181247148Y-195553000D02*
X181769652Y-195553000D01*
D12*
%TO.C,D26*%
X188982000Y-174060000D02*
X188982000Y-176460000D01*
X189107000Y-174060000D02*
X189107000Y-176460000D01*
X189382000Y-174060000D02*
X183382000Y-174060000D01*
X189382000Y-176460000D02*
X189382000Y-174060000D01*
X183382000Y-174060000D02*
X183382000Y-176460000D01*
X183382000Y-176460000D02*
X189382000Y-176460000D01*
X189257000Y-176460000D02*
X189257000Y-174060000D01*
%TO.C,D28*%
X194083000Y-138360000D02*
X194083000Y-135960000D01*
X193808000Y-135960000D02*
X193808000Y-138360000D01*
X194208000Y-135960000D02*
X188208000Y-135960000D01*
X193933000Y-135960000D02*
X193933000Y-138360000D01*
X188208000Y-138360000D02*
X194208000Y-138360000D01*
X188208000Y-135960000D02*
X188208000Y-138360000D01*
X194208000Y-138360000D02*
X194208000Y-135960000D01*
%TO.C,D23*%
X178556000Y-116910000D02*
X178556000Y-119310000D01*
X178556000Y-119310000D02*
X184556000Y-119310000D01*
X184556000Y-119310000D02*
X184556000Y-116910000D01*
X184556000Y-116910000D02*
X178556000Y-116910000D01*
X184156000Y-116910000D02*
X184156000Y-119310000D01*
X184281000Y-116910000D02*
X184281000Y-119310000D01*
X184431000Y-119310000D02*
X184431000Y-116910000D01*
%TO.C,D31*%
X210443000Y-193110000D02*
X210443000Y-195510000D01*
X204718000Y-193110000D02*
X204718000Y-195510000D01*
X210593000Y-195510000D02*
X210593000Y-193110000D01*
X210718000Y-195510000D02*
X210718000Y-193110000D01*
X210318000Y-193110000D02*
X210318000Y-195510000D01*
X210718000Y-193110000D02*
X204718000Y-193110000D01*
X204718000Y-195510000D02*
X210718000Y-195510000D01*
%TO.C,D20*%
X150108000Y-135960000D02*
X150108000Y-138360000D01*
X155983000Y-138360000D02*
X155983000Y-135960000D01*
X155708000Y-135960000D02*
X155708000Y-138360000D01*
X156108000Y-135960000D02*
X150108000Y-135960000D01*
X156108000Y-138360000D02*
X156108000Y-135960000D01*
X155833000Y-135960000D02*
X155833000Y-138360000D01*
X150108000Y-138360000D02*
X156108000Y-138360000D01*
%TO.C,D15*%
X136658000Y-135960000D02*
X136658000Y-138360000D01*
X137058000Y-138360000D02*
X137058000Y-135960000D01*
X131058000Y-138360000D02*
X137058000Y-138360000D01*
X136783000Y-135960000D02*
X136783000Y-138360000D01*
X131058000Y-135960000D02*
X131058000Y-138360000D01*
X137058000Y-135960000D02*
X131058000Y-135960000D01*
X136933000Y-138360000D02*
X136933000Y-135960000D01*
%TO.C,D66*%
X374781000Y-116910000D02*
X374781000Y-119310000D01*
X369056000Y-119310000D02*
X375056000Y-119310000D01*
X374656000Y-116910000D02*
X374656000Y-119310000D01*
X374931000Y-119310000D02*
X374931000Y-116910000D01*
X369056000Y-116910000D02*
X369056000Y-119310000D01*
X375056000Y-116910000D02*
X369056000Y-116910000D01*
X375056000Y-119310000D02*
X375056000Y-116910000D01*
%TO.C,D52*%
X297682000Y-176460000D02*
X303682000Y-176460000D01*
X297682000Y-174060000D02*
X297682000Y-176460000D01*
X303407000Y-174060000D02*
X303407000Y-176460000D01*
X303682000Y-174060000D02*
X297682000Y-174060000D01*
X303682000Y-176460000D02*
X303682000Y-174060000D01*
X303282000Y-174060000D02*
X303282000Y-176460000D01*
X303557000Y-176460000D02*
X303557000Y-174060000D01*
%TO.C,D45*%
X264408000Y-135960000D02*
X264408000Y-138360000D01*
X264408000Y-138360000D02*
X270408000Y-138360000D01*
X270408000Y-138360000D02*
X270408000Y-135960000D01*
X270008000Y-135960000D02*
X270008000Y-138360000D01*
X270133000Y-135960000D02*
X270133000Y-138360000D01*
X270283000Y-138360000D02*
X270283000Y-135960000D01*
X270408000Y-135960000D02*
X264408000Y-135960000D01*
D13*
%TO.C,R3*%
X100102936Y-126719000D02*
X100557064Y-126719000D01*
X100102936Y-125249000D02*
X100557064Y-125249000D01*
D12*
%TO.C,D17*%
X150882000Y-174060000D02*
X150882000Y-176460000D01*
X151157000Y-176460000D02*
X151157000Y-174060000D01*
X145282000Y-176460000D02*
X151282000Y-176460000D01*
X151007000Y-174060000D02*
X151007000Y-176460000D01*
X145282000Y-174060000D02*
X145282000Y-176460000D01*
X151282000Y-176460000D02*
X151282000Y-174060000D01*
X151282000Y-174060000D02*
X145282000Y-174060000D01*
%TO.C,D32*%
X222656000Y-116910000D02*
X216656000Y-116910000D01*
X216656000Y-119310000D02*
X222656000Y-119310000D01*
X222531000Y-119310000D02*
X222531000Y-116910000D01*
X216656000Y-116910000D02*
X216656000Y-119310000D01*
X222656000Y-119310000D02*
X222656000Y-116910000D01*
X222381000Y-116910000D02*
X222381000Y-119310000D01*
X222256000Y-116910000D02*
X222256000Y-119310000D01*
%TD*%
M02*
